{"glyphs":{"0":{"ha":552,"x_min":24,"x_max":489,"o":"m 381 252 q 385 289 385 270 q 385 326 385 307 q 385 363 385 344 q 381 398 385 381 q 375 463 381 444 q 365 496 369 481 q 338 564 352 546 q 314 590 324 581 q 296 607 304 598 q 259 615 278 615 q 206 607 228 615 q 152 524 159 561 q 124 398 124 459 l 124 252 q 152 128 124 193 q 172 80 157 100 l 189 63 q 206 52 196 56 q 252 37 224 37 q 333 80 291 37 q 361 139 354 107 q 374 185 369 170 q 381 252 381 207 m 487 320 q 428 89 487 178 q 357 19 402 44 q 256 -13 317 -13 q 152 19 187 -13 q 80 89 96 48 q 26 259 31 161 q 24 319 24 293 l 24 369 q 50 496 24 439 q 61 530 56 511 q 124 615 76 576 q 187 654 146 637 q 217 660 200 656 q 254 665 233 665 q 294 660 274 665 q 326 654 313 656 q 385 615 372 628 q 446 530 420 591 q 463 496 454 511 q 472 456 467 476 q 481 413 478 435 q 486 369 483 391 q 489 324 489 346 l 487 320 z "},"1":{"ha":467,"x_min":59,"x_max":413,"o":"m 302 61 q 311 44 302 50 q 326 39 311 39 l 413 33 l 413 -7 l 87 -7 l 87 33 l 189 39 q 204 44 194 39 l 207 61 l 207 570 l 59 543 l 59 587 l 263 650 l 302 650 l 302 61 z "},"2":{"ha":546,"x_min":31,"x_max":480,"o":"m 31 56 q 101 112 67 85 q 167 165 135 139 q 224 217 196 193 q 276 263 252 241 q 314 310 298 285 q 344 357 330 335 q 367 444 367 400 q 357 517 367 489 q 341 541 348 530 q 326 557 333 552 q 291 585 311 576 q 243 596 265 596 l 213 596 q 196 593 204 596 q 178 587 189 593 q 163 581 167 581 q 156 574 159 580 l 152 572 l 152 463 q 137 456 148 463 l 130 456 q 122 452 124 456 l 100 452 q 80 456 87 452 q 61 463 69 456 q 44 513 44 489 q 107 609 44 563 q 195 647 159 643 q 254 652 231 652 q 297 646 276 652 q 341 637 319 641 q 374 619 357 628 q 409 596 391 609 q 450 543 441 565 q 467 462 467 498 q 457 403 467 426 q 438 364 448 380 q 420 331 428 348 q 394 301 407 319 q 365 267 380 283 q 332 236 348 252 q 297 204 317 220 q 256 171 278 187 q 206 130 235 156 q 128 72 176 104 l 415 72 l 433 152 l 480 152 l 480 -9 l 31 -9 l 31 56 z "},"3":{"ha":557,"x_min":31,"x_max":480,"o":"m 104 469 l 83 474 q 74 480 80 480 q 62 487 67 480 q 54 498 57 494 q 50 530 50 509 q 81 600 50 578 q 178 650 143 644 q 246 661 215 661 q 398 617 346 661 q 443 563 422 596 q 454 485 454 531 q 311 343 454 381 q 339 337 324 341 q 448 278 424 309 q 475 224 470 244 q 480 181 480 204 q 461 108 480 150 q 400 41 443 67 q 337 4 372 13 q 143 -4 220 -31 q 39 65 69 20 q 31 98 31 74 l 31 120 q 44 137 39 128 q 52 139 48 139 q 61 144 56 139 q 74 150 67 150 l 104 150 q 122 139 115 150 l 146 59 q 167 50 156 54 q 189 41 178 46 q 341 76 248 6 q 368 115 356 91 q 381 153 380 139 q 381 193 381 167 q 333 278 381 246 q 235 304 304 304 l 196 304 l 180 298 l 180 359 l 202 359 q 265 367 244 359 q 346 428 326 387 q 357 480 357 441 q 346 533 357 522 q 324 572 333 559 q 280 596 300 593 q 243 607 261 607 l 213 607 q 196 604 204 607 q 166 594 181 604 q 146 581 150 583 l 146 481 q 137 478 143 481 l 128 467 q 117 466 122 463 q 104 469 111 469 z "},"4":{"ha":554,"x_min":24,"x_max":489,"o":"m 100 257 l 313 257 l 313 539 l 100 257 m 400 -17 l 313 -17 l 313 193 l 24 193 l 24 257 l 341 661 l 400 661 l 400 257 l 489 257 l 489 193 l 400 193 l 400 -17 z "},"5":{"ha":557,"x_min":26,"x_max":480,"o":"m 215 394 l 261 400 q 357 387 302 400 q 420 348 396 370 q 463 283 444 330 q 480 202 480 250 l 480 200 q 441 70 480 119 q 211 -24 361 -24 q 137 -17 159 -24 q 107 -3 124 -9 q 80 9 91 4 q 58 30 67 20 q 39 48 50 39 q 26 91 26 72 q 44 131 26 109 q 87 143 67 143 l 104 143 q 109 140 109 143 q 113 137 109 137 l 152 52 l 163 41 q 176 38 172 41 q 185 34 180 35 q 195 30 191 33 q 207 26 200 26 q 215 22 211 22 q 224 22 215 22 q 291 41 259 22 q 374 126 356 69 q 381 172 381 146 q 374 244 381 230 q 336 296 356 280 q 293 322 317 313 q 220 335 263 335 q 194 335 207 335 q 167 333 181 335 q 119 319 144 322 q 92 311 104 313 q 67 306 80 309 l 67 639 l 437 639 l 437 556 l 133 556 l 133 374 l 135 374 q 145 377 137 374 q 160 381 154 380 q 178 387 167 381 q 215 394 196 387 z "},"6":{"ha":552,"x_min":19,"x_max":483,"o":"m 385 200 q 379 266 385 244 q 357 304 372 287 q 283 348 319 344 q 248 348 270 348 l 220 348 q 187 335 200 339 q 170 330 178 335 l 156 320 q 140 313 146 319 q 124 300 133 307 q 122 270 122 291 l 122 250 q 128 159 122 189 q 165 70 150 87 q 198 40 180 54 q 252 26 217 26 q 357 78 317 26 q 381 131 370 102 q 385 167 385 148 l 385 200 m 483 209 q 469 128 483 163 q 415 41 444 70 q 248 -24 343 -24 q 119 17 170 -24 q 80 53 102 30 q 35 131 57 76 q 19 276 19 198 q 44 422 19 354 q 122 546 67 494 q 402 650 219 650 l 402 596 l 374 596 q 283 576 324 596 q 211 531 244 567 q 157 459 183 509 q 124 352 131 409 q 164 379 146 367 q 204 400 181 391 q 276 409 246 409 q 435 354 369 409 q 483 209 483 298 z "},"7":{"ha":543,"x_min":24,"x_max":483,"o":"m 174 -20 l 67 -20 l 385 561 l 91 561 l 72 470 l 24 470 l 24 643 l 483 643 l 483 585 l 174 13 l 174 -20 z "},"8":{"ha":539,"x_min":24,"x_max":483,"o":"m 380 109 q 385 151 385 130 q 384 184 385 172 q 374 207 383 196 q 309 263 359 239 q 276 279 293 272 q 240 294 259 285 q 196 311 220 302 q 163 289 174 294 q 152 277 157 281 q 139 262 146 272 q 128 244 131 252 q 119 225 124 235 q 113 204 113 215 l 113 148 q 122 122 113 137 q 146 76 124 106 q 256 39 178 39 l 281 39 q 311 46 296 39 q 333 57 324 50 q 352 72 343 65 q 380 109 372 93 m 372 483 q 363 537 372 526 q 337 580 357 563 q 283 606 300 606 l 256 606 q 207 596 219 606 q 189 588 196 594 q 174 576 181 581 q 152 538 161 563 q 143 492 143 513 q 151 456 143 470 q 169 432 159 441 q 187 415 178 424 q 263 367 204 391 q 300 354 280 359 q 326 380 324 372 q 356 417 354 400 q 366 450 357 428 q 374 481 374 472 l 372 483 m 437 280 q 483 178 483 233 q 470 96 483 119 q 420 28 448 56 q 385 7 404 20 q 256 -22 339 -22 q 115 7 161 -22 q 83 28 98 20 q 35 93 59 50 q 24 159 24 124 q 31 224 24 194 q 61 270 43 246 q 83 285 72 278 q 109 304 94 293 q 134 313 122 307 q 159 324 146 319 q 141 335 150 328 q 122 348 131 343 q 89 372 100 357 q 52 437 54 419 q 50 484 50 456 q 59 539 50 513 q 80 578 69 565 q 104 606 91 591 q 133 625 119 615 q 169 641 148 635 q 251 650 202 650 q 333 639 300 650 q 370 625 356 635 q 398 606 385 615 q 457 491 457 554 q 448 438 457 456 q 432 409 439 420 q 420 387 426 398 q 401 371 411 381 q 381 357 391 361 q 363 344 372 348 q 341 331 354 339 q 367 322 354 326 q 391 311 380 319 q 414 297 404 306 q 437 280 424 289 z "},"9":{"ha":561,"x_min":24,"x_max":489,"o":"m 256 280 l 289 283 q 306 287 298 287 q 322 291 313 287 q 339 300 331 294 q 357 309 346 306 q 370 319 361 315 q 385 333 380 322 l 385 381 q 380 472 385 437 q 368 506 374 489 q 357 541 361 524 q 313 587 331 572 q 256 604 287 604 q 194 590 224 604 q 156 554 165 576 q 140 527 146 541 q 124 498 133 513 q 122 463 122 480 l 122 430 q 129 364 122 385 q 150 326 135 343 q 196 287 172 300 q 256 280 226 280 m 261 219 l 220 215 q 152 226 178 215 q 80 270 91 254 q 56 303 65 285 q 35 335 46 320 q 24 406 24 369 q 41 516 24 478 q 91 587 57 554 q 256 650 154 650 q 346 639 300 650 q 420 587 389 617 q 467 498 456 543 q 489 354 489 437 q 469 218 489 270 q 431 137 450 165 q 375 71 413 109 q 261 0 337 33 q 100 -24 193 -24 l 100 33 l 133 31 q 220 48 159 31 q 328 130 280 67 q 352 172 343 150 q 381 274 378 217 q 363 261 372 269 q 342 248 354 254 q 320 237 330 243 l 300 228 q 281 223 291 224 q 261 219 270 222 z "},"\r":{"ha":0,"x_min":0,"x_max":0,"o":""},"\u0000":{"ha":0,"x_min":0,"x_max":0,"o":""}," ":{"ha":443,"x_min":0,"x_max":0,"o":""},"!":{"ha":259,"x_min":96,"x_max":209,"o":"m 206 65 l 209 44 l 206 24 q 199 14 204 17 q 191 4 194 11 q 181 -4 185 0 q 159 -13 172 -13 l 141 -13 q 131 -9 135 -13 q 122 -3 128 -6 q 117 4 117 0 q 107 14 111 11 q 100 24 104 17 l 100 65 q 117 83 104 72 q 122 91 117 89 q 131 96 128 93 l 152 100 l 172 96 q 194 83 187 89 q 206 65 196 76 m 113 359 l 109 431 q 100 496 100 465 l 100 539 q 96 556 96 550 l 96 563 q 109 604 96 593 q 151 620 119 620 q 194 604 183 620 q 205 587 204 598 q 206 563 206 576 l 206 539 q 200 496 206 515 l 196 426 q 194 395 194 413 q 190 344 194 378 q 183 263 185 311 q 178 161 181 215 l 131 161 l 113 359 z "},"\"":{"ha":309,"x_min":39,"x_max":261,"o":"m 72 378 l 39 600 q 46 632 39 622 q 61 644 54 643 q 78 644 69 644 q 104 635 100 644 q 117 600 117 624 l 83 378 l 72 378 m 217 378 l 183 600 q 191 631 183 619 q 206 644 198 643 q 222 644 213 644 q 256 635 244 644 q 261 600 261 622 l 230 378 l 217 378 z "},"#":{"ha":644,"x_min":56,"x_max":615,"o":"m 248 248 l 378 248 l 424 378 l 294 378 l 248 248 m 431 248 l 581 248 l 581 206 l 415 206 l 339 -20 l 294 -9 l 367 206 l 233 206 l 157 -20 l 113 -4 l 183 206 l 56 206 l 56 248 l 200 248 l 246 378 l 96 378 l 96 426 l 257 426 l 330 641 l 378 628 l 307 426 l 439 426 l 511 641 l 561 628 l 491 426 l 615 426 l 615 378 l 476 378 l 431 248 z "},"$":{"ha":506,"x_min":48,"x_max":456,"o":"m 367 113 q 374 144 374 122 q 369 194 374 183 q 357 212 363 206 q 346 226 352 219 q 330 237 337 231 q 304 252 320 246 q 278 261 287 257 l 278 48 q 317 61 296 48 q 346 80 337 74 q 367 113 359 89 m 233 556 q 217 553 224 556 q 200 548 209 550 q 187 537 193 541 q 176 526 181 533 q 148 459 148 489 q 161 419 148 430 q 178 391 169 402 q 204 374 193 381 q 237 359 219 363 l 237 561 l 233 556 m 335 604 q 360 600 348 600 q 431 583 372 600 l 431 443 l 383 443 l 372 539 q 278 563 346 563 l 278 346 q 297 340 287 341 q 320 335 307 339 q 359 320 333 326 q 376 306 367 311 q 393 294 385 302 q 426 265 415 289 q 456 169 456 231 l 452 169 q 443 117 452 133 q 387 44 433 80 q 346 20 367 26 q 296 0 315 0 l 274 0 l 274 -96 l 233 -96 l 233 0 q 180 0 202 0 q 144 4 157 0 q 96 13 130 4 q 48 20 65 13 l 48 178 l 96 178 l 113 72 q 130 61 120 65 q 161 52 141 52 q 194 44 176 44 l 233 44 l 233 270 q 203 280 219 276 q 172 289 187 283 q 80 367 98 322 q 65 422 65 396 q 76 496 65 474 l 93 530 q 127 559 106 546 q 157 581 148 572 q 175 588 167 583 q 194 596 183 593 q 215 600 206 600 q 233 604 224 600 l 233 674 l 278 674 l 278 604 l 335 604 z "},"%":{"ha":793,"x_min":28,"x_max":750,"o":"m 233 367 l 237 431 l 233 496 q 222 544 226 524 q 169 587 206 587 q 135 576 148 587 l 126 563 q 100 496 107 535 l 96 431 l 100 367 q 107 341 104 354 q 117 320 111 328 q 135 287 120 300 q 152 278 143 278 q 181 278 169 278 q 200 287 193 278 q 222 320 213 296 l 233 367 m 680 141 l 680 207 q 673 256 680 233 q 665 289 667 278 q 655 306 659 298 q 644 322 650 315 q 567 307 591 343 q 549 267 550 281 q 544 237 548 252 q 539 185 539 215 q 556 61 539 111 q 581 28 570 37 q 608 15 591 15 q 644 28 626 15 q 655 44 650 35 q 665 61 659 52 q 670 81 667 69 q 680 141 680 111 m 307 431 q 285 326 307 365 q 274 294 278 309 q 230 257 256 269 q 180 243 209 243 q 65 294 89 243 q 49 325 56 309 q 37 356 43 341 q 28 431 28 383 q 35 500 28 476 q 83 591 56 563 q 158 620 113 620 q 230 609 204 620 q 276 566 261 587 q 296 517 291 544 q 307 431 307 472 m 169 0 l 556 609 l 613 609 l 226 0 l 169 0 m 741 248 q 750 180 750 207 q 741 96 750 143 q 729 64 733 78 q 717 37 724 50 q 695 15 704 24 q 672 -2 687 6 q 617 -17 643 -17 q 548 0 572 -17 q 507 37 519 13 q 470 172 470 89 q 507 309 470 265 q 548 352 517 324 q 577 361 561 356 q 609 367 593 367 q 644 361 626 367 q 674 352 661 356 q 695 331 687 341 q 717 309 704 322 q 729 283 724 298 q 741 248 733 269 z "},"&":{"ha":659,"x_min":37,"x_max":613,"o":"m 191 302 q 165 278 174 289 q 154 267 159 274 q 144 256 148 259 q 136 241 141 246 q 131 226 131 235 q 128 207 130 217 q 126 177 126 198 q 135 131 126 156 q 149 108 143 120 q 165 89 156 96 q 206 61 181 67 q 248 48 230 48 l 278 48 q 295 52 289 48 q 311 58 302 56 q 326 65 320 61 q 354 80 343 69 q 367 89 361 83 q 378 100 372 94 l 191 302 m 326 456 l 326 493 q 319 524 326 511 q 307 544 311 537 q 293 556 298 550 q 278 563 287 561 q 252 572 270 572 l 224 572 q 200 563 213 572 q 183 548 187 554 q 165 522 174 531 q 161 506 161 515 q 161 487 161 496 q 169 446 161 465 q 180 429 176 439 q 191 411 183 419 q 217 378 211 387 q 246 354 231 369 q 263 365 256 361 q 291 384 283 374 q 307 404 298 394 q 326 456 326 426 m 480 278 l 467 281 l 419 289 l 419 326 l 604 326 l 604 289 l 539 278 q 504 194 526 231 q 493 174 498 181 q 481 157 487 167 q 457 126 470 133 l 535 39 l 613 37 l 613 0 l 446 0 l 452 20 l 411 65 q 372 37 385 50 q 312 5 330 9 q 281 -4 294 0 q 224 -13 265 -13 q 154 -2 183 -13 q 100 29 124 9 q 68 63 76 48 q 52 94 59 78 q 37 159 37 122 q 56 244 37 219 q 69 265 63 252 q 87 284 78 274 q 107 302 96 294 q 157 326 124 311 q 135 346 143 341 q 115 374 126 359 q 82 434 85 413 q 80 469 80 456 q 111 556 80 517 q 131 576 120 569 q 156 595 141 589 q 183 609 170 602 q 252 620 217 620 q 320 609 287 620 q 342 595 330 602 q 367 581 354 589 q 409 511 404 544 q 411 481 411 498 q 404 428 411 441 q 372 383 381 396 q 326 352 350 361 q 278 322 304 335 l 431 161 q 446 181 443 169 q 456 195 452 187 q 465 209 459 204 q 469 223 467 215 q 476 237 470 231 q 483 264 483 257 q 480 278 483 270 z "},"'":{"ha":161,"x_min":39,"x_max":117,"o":"m 72 378 l 39 600 q 61 644 39 641 q 78 644 69 644 q 104 635 100 644 q 117 600 117 624 l 83 378 l 72 378 z "},"(":{"ha":378,"x_min":52,"x_max":309,"o":"m 309 -131 q 265 -122 285 -130 q 226 -109 244 -115 q 166 -69 185 -89 q 133 -35 146 -50 q 113 0 120 -20 q 94 36 100 17 q 78 76 87 56 q 67 119 69 96 q 61 163 65 141 q 52 258 52 219 q 57 332 52 298 q 70 402 63 367 q 114 525 83 478 q 191 609 144 572 q 309 648 243 641 l 309 609 q 230 572 259 602 q 178 504 196 550 q 135 261 135 419 q 144 126 135 200 q 178 15 165 43 q 230 -57 194 -26 q 309 -89 257 -80 l 309 -131 z "},")":{"ha":357,"x_min":31,"x_max":289,"o":"m 274 404 q 283 333 278 369 q 289 267 289 298 q 283 173 289 206 q 274 119 278 141 q 261 78 270 96 q 230 0 254 30 q 207 -35 220 -20 q 181 -65 194 -50 q 117 -109 150 -93 q 74 -122 94 -115 q 31 -131 54 -130 l 31 -89 q 75 -78 57 -87 q 113 -57 93 -69 q 165 15 152 -13 q 181 68 172 41 q 194 126 191 94 q 206 257 206 217 q 198 366 206 304 q 181 453 191 428 q 165 504 172 478 q 113 572 148 543 q 31 609 78 602 l 31 648 q 148 609 96 641 q 274 404 246 537 z "},"*":{"ha":457,"x_min":48,"x_max":406,"o":"m 117 307 l 117 372 l 209 446 l 222 439 l 178 330 l 117 307 m 89 467 l 48 517 l 113 535 l 209 470 l 206 457 l 89 467 m 233 439 l 243 446 l 335 372 l 335 307 l 274 330 l 233 439 m 217 480 l 191 593 l 226 648 l 261 593 l 233 480 l 217 480 m 248 457 l 243 470 l 339 535 l 406 517 l 367 467 l 248 457 z "},"+":{"ha":822,"x_min":181,"x_max":726,"o":"m 483 0 l 424 0 l 424 246 l 181 246 l 181 298 l 424 298 l 424 544 l 483 544 l 483 298 l 726 298 l 726 246 l 483 246 l 483 0 z "},",":{"ha":231,"x_min":28,"x_max":191,"o":"m 56 48 l 61 72 q 67 80 65 76 q 89 104 74 93 q 109 109 96 109 q 169 80 146 109 q 177 66 176 74 q 181 48 178 57 q 183 30 183 39 l 183 7 l 191 7 q 178 -57 191 -19 q 160 -82 169 -69 q 141 -106 152 -96 q 28 -157 104 -146 l 28 -126 q 69 -111 57 -120 q 90 -96 80 -102 q 104 -83 100 -91 q 115 -67 111 -76 q 126 -48 119 -57 q 130 -24 130 -37 l 130 4 l 72 4 l 72 6 l 69 7 l 67 15 l 65 15 q 61 24 61 20 l 61 28 q 56 48 56 37 z "},"-":{"ha":296,"x_min":39,"x_max":248,"o":"m 39 248 l 248 248 l 248 183 l 39 183 l 39 248 z "},".":{"ha":235,"x_min":56,"x_max":178,"o":"m 61 24 q 56 49 56 33 q 61 72 56 65 q 69 91 61 81 q 93 104 78 100 q 111 109 100 109 q 138 105 130 109 q 161 93 146 100 q 172 72 167 85 q 178 48 178 65 q 172 24 178 31 q 167 14 170 17 q 157 4 163 11 q 148 -4 154 0 l 135 -9 q 126 -13 131 -13 l 117 -13 q 75 1 89 -13 q 61 24 61 15 z "},"/":{"ha":487,"x_min":0,"x_max":443,"o":"m 0 -83 l 387 609 l 443 609 l 61 -83 l 0 -83 z "},":":{"ha":272,"x_min":52,"x_max":178,"o":"m 61 24 q 56 49 56 33 q 61 72 56 65 q 69 91 61 81 q 93 104 78 100 q 111 109 100 109 q 138 105 130 109 q 161 93 146 100 q 172 72 167 85 q 178 48 178 65 q 172 24 178 31 q 167 14 170 17 q 157 4 163 11 q 148 -4 154 0 l 135 -9 q 126 -13 131 -13 l 117 -13 q 75 1 89 -13 q 61 24 61 15 m 117 446 l 135 443 q 157 426 152 437 q 178 404 178 413 l 178 387 q 172 361 178 369 q 167 351 172 356 q 157 342 161 346 q 148 335 154 337 q 131 328 143 333 q 113 322 120 322 q 89 330 100 322 q 80 335 83 333 q 61 361 61 344 q 52 387 52 376 q 61 411 52 398 q 72 426 61 420 q 89 443 76 433 l 117 446 z "},";":{"ha":307,"x_min":28,"x_max":191,"o":"m 56 48 l 61 72 q 67 80 65 76 q 89 104 74 93 q 109 109 96 109 q 169 80 146 109 q 177 66 176 74 q 181 48 178 57 q 187 30 183 39 q 191 4 191 20 q 178 -57 191 -19 q 160 -82 169 -69 q 141 -106 152 -96 q 28 -157 104 -146 l 28 -126 q 69 -111 57 -120 q 90 -96 80 -102 q 104 -83 100 -91 q 115 -67 111 -76 q 126 -48 119 -57 q 130 -24 130 -37 l 130 4 l 72 4 l 72 6 l 69 7 l 67 15 l 65 15 q 61 24 61 19 l 61 28 q 56 48 56 37 m 93 439 q 117 446 107 446 q 141 439 126 446 q 161 426 156 439 q 178 393 178 417 q 161 341 178 363 q 120 322 133 322 q 93 330 107 322 q 82 333 87 330 q 72 341 78 337 q 67 351 69 346 q 61 359 65 356 q 56 385 56 367 q 60 409 56 404 q 67 419 65 415 q 72 426 69 424 q 93 439 83 439 z "},"<":{"ha":998,"x_min":181,"x_max":726,"o":"m 181 298 l 726 507 l 726 452 l 237 270 l 726 93 l 726 37 l 181 246 l 181 298 z "},"=":{"ha":1057,"x_min":181,"x_max":726,"o":"m 181 217 l 726 217 l 726 161 l 181 161 l 181 217 m 181 383 l 726 383 l 726 326 l 181 326 l 181 383 z "},">":{"ha":1039,"x_min":181,"x_max":726,"o":"m 181 93 l 667 270 l 181 452 l 181 507 l 726 298 l 726 246 l 181 37 l 181 93 z "},"?":{"ha":554,"x_min":44,"x_max":378,"o":"m 117 483 l 100 483 q 80 487 89 483 q 61 496 67 487 q 44 531 44 506 q 80 593 44 567 q 145 619 120 617 q 190 620 170 620 q 228 618 209 620 q 261 613 246 615 q 322 581 298 600 q 374 494 369 535 q 378 457 378 478 l 374 456 q 331 344 374 381 q 315 328 322 335 q 287 306 306 315 q 243 278 254 289 q 206 261 222 272 l 206 161 l 152 161 l 152 294 q 172 304 161 298 q 196 313 183 309 q 237 346 222 328 q 256 366 250 354 q 270 391 263 378 q 287 452 287 430 q 248 544 287 519 q 152 576 222 576 l 117 483 m 126 44 l 130 65 q 141 80 133 76 q 149 88 144 87 q 158 93 154 89 q 167 96 163 96 l 178 96 q 207 89 200 96 l 217 80 q 225 70 220 74 q 230 61 230 67 q 233 41 233 56 q 230 20 233 26 q 225 11 230 15 q 217 4 220 7 q 208 -3 213 0 q 199 -9 204 -6 q 183 -13 194 -13 l 167 -13 q 158 -9 163 -13 q 149 -3 154 -6 q 141 4 144 0 q 135 11 139 7 q 130 20 131 15 l 126 44 z "},"@":{"ha":1046,"x_min":65,"x_max":781,"o":"m 530 354 l 530 372 q 517 391 519 381 q 497 403 509 394 q 470 411 485 411 q 415 393 441 411 q 372 359 385 380 q 339 287 346 317 q 326 209 326 259 q 400 109 326 109 q 426 117 413 109 q 452 131 446 120 q 464 140 459 135 q 476 148 469 144 q 491 169 487 161 l 530 354 m 443 -93 l 519 -89 q 583 -74 541 -85 q 611 -61 598 -67 q 685 -26 656 -43 l 698 -61 q 667 -74 681 -67 q 596 -107 606 -104 q 572 -117 587 -111 q 536 -125 554 -120 q 500 -133 519 -130 q 426 -139 454 -139 q 376 -135 398 -139 q 330 -130 354 -131 q 250 -98 300 -124 q 172 -44 200 -72 q 142 -11 154 -30 q 112 34 130 7 q 81 100 94 61 q 65 200 65 150 q 98 393 65 320 q 143 468 115 430 q 189 522 170 506 q 372 613 280 600 q 457 628 407 628 q 593 609 537 628 q 693 550 648 591 q 781 339 781 483 l 778 335 q 770 248 778 278 q 757 213 763 231 q 744 181 752 194 q 722 153 731 167 q 700 126 713 139 q 609 61 661 72 q 559 48 580 48 q 504 69 520 48 q 487 126 487 96 q 424 72 454 89 q 333 56 365 46 q 309 61 322 57 q 282 85 296 69 q 263 113 269 102 q 248 135 257 124 q 246 167 246 152 l 246 200 q 261 294 246 259 q 313 374 285 341 q 467 446 394 446 l 478 446 q 491 443 485 446 l 517 439 q 526 437 520 439 l 539 431 q 561 424 548 424 l 576 443 l 624 443 l 624 437 q 620 426 624 433 l 613 393 q 604 352 613 380 l 593 302 q 579 241 585 272 q 567 187 572 209 q 561 159 561 165 l 561 144 q 563 120 561 130 q 578 109 572 113 q 600 100 589 100 q 619 106 609 100 q 644 117 630 111 q 665 139 654 126 q 689 165 676 152 q 722 237 706 193 q 733 287 728 263 q 739 355 739 311 q 713 446 739 398 q 657 530 694 494 q 617 552 637 543 q 576 572 596 561 q 483 587 535 587 q 298 539 378 587 q 261 516 278 530 q 226 487 244 502 q 198 453 211 472 q 172 415 185 433 q 156 374 165 394 q 130 233 130 317 q 174 48 130 117 q 209 0 191 22 q 443 -93 302 -93 z "},"A":{"ha":622,"x_min":4,"x_max":604,"o":"m 196 265 l 374 265 l 287 507 l 196 265 m 391 39 l 443 44 q 452 48 446 44 l 452 61 l 391 226 l 181 226 l 120 61 l 120 56 q 126 48 120 52 l 126 46 q 130 44 126 44 l 131 44 l 183 39 l 183 0 l 4 0 l 4 39 l 56 48 l 265 624 l 335 624 l 548 65 q 549 56 548 59 q 550 52 550 54 q 558 48 556 48 q 563 44 561 48 l 604 39 l 604 0 l 391 0 l 391 39 z "},"B":{"ha":535,"x_min":28,"x_max":515,"o":"m 496 246 q 511 148 515 215 q 476 69 507 113 q 423 30 448 39 q 380 12 398 20 q 335 4 361 4 q 307 0 320 0 q 28 0 167 0 l 28 39 l 78 44 q 93 48 89 44 q 96 61 93 54 l 96 544 q 93 561 96 556 q 78 563 89 563 l 28 569 l 28 609 l 274 609 q 426 569 391 609 q 476 465 476 530 q 465 404 476 426 q 431 361 452 385 q 375 330 396 333 q 346 322 354 326 q 417 311 385 322 q 475 276 461 293 q 496 246 489 259 m 378 261 q 270 294 337 294 q 246 289 256 294 q 193 289 219 289 l 191 287 l 191 48 l 200 48 q 209 44 204 48 l 243 44 q 322 52 296 44 q 378 78 356 65 q 415 173 415 111 q 378 261 415 235 m 191 335 l 217 335 q 294 341 244 335 q 321 355 309 350 q 343 367 333 359 q 372 406 365 387 q 378 456 378 433 l 378 457 q 341 539 378 509 q 237 569 315 569 l 194 569 l 191 563 l 191 335 z "},"C":{"ha":559,"x_min":31,"x_max":531,"o":"m 531 20 l 524 20 q 514 17 522 20 q 494 10 506 13 q 470 4 483 7 q 361 -17 400 -17 q 215 13 293 -17 q 91 115 144 39 q 63 169 78 135 q 44 226 48 204 q 31 317 31 259 q 120 535 31 443 q 222 600 152 569 q 352 624 283 624 l 372 624 q 390 622 381 624 q 435 613 398 620 q 487 602 456 613 q 531 587 519 591 l 531 446 l 476 446 l 465 530 q 461 533 465 531 q 454 542 457 535 q 446 548 450 548 q 435 556 443 548 q 423 558 428 556 q 411 563 419 561 l 387 569 q 354 572 378 572 q 230 533 285 572 q 200 504 213 522 q 152 419 172 476 q 141 367 146 393 q 135 307 135 341 q 152 194 135 267 q 200 109 170 143 q 270 52 224 72 q 367 37 300 37 l 393 37 l 409 41 q 419 44 415 41 q 435 48 431 44 q 439 52 439 48 q 452 61 452 52 q 457 69 457 61 l 480 169 l 531 169 l 531 20 z "},"D":{"ha":635,"x_min":28,"x_max":596,"o":"m 431 104 q 478 188 465 141 q 491 287 491 235 q 476 424 491 372 q 426 504 465 476 q 362 547 409 531 q 257 563 315 563 l 191 563 l 191 44 l 261 44 q 359 61 319 44 q 431 104 394 70 m 498 535 q 571 442 546 500 q 596 324 596 383 q 546 122 596 194 q 383 13 481 31 q 278 0 339 0 l 28 0 l 28 39 l 78 44 q 93 48 89 44 q 96 61 96 52 l 96 552 q 93 556 96 556 q 78 563 83 563 l 28 569 l 28 609 l 261 609 q 393 587 322 609 q 498 535 463 570 z "},"E":{"ha":524,"x_min":28,"x_max":498,"o":"m 335 346 q 341 354 341 352 l 352 419 l 393 419 l 393 213 l 352 213 l 341 278 q 335 289 341 283 q 322 294 335 294 l 191 294 l 191 44 l 419 44 q 426 52 424 44 q 430 56 428 54 q 435 61 435 57 l 452 148 l 498 148 l 498 0 l 28 0 l 28 39 l 78 44 l 85 44 q 93 53 89 44 q 96 65 96 61 l 96 548 q 93 556 96 550 q 84 563 89 563 q 78 569 80 563 l 28 572 l 28 609 l 467 609 l 467 470 l 415 470 l 400 548 q 393 561 400 556 q 383 563 393 563 l 191 563 l 191 339 l 322 339 q 335 346 335 339 z "},"F":{"ha":483,"x_min":24,"x_max":465,"o":"m 78 44 q 96 56 96 44 l 96 544 q 93 561 96 556 q 78 563 89 563 l 24 569 l 24 609 l 465 609 l 465 465 l 411 465 l 393 548 q 391 561 393 556 q 378 563 387 563 l 191 563 l 191 326 l 326 326 q 335 335 335 326 q 341 346 341 341 l 352 411 l 393 411 l 393 206 l 352 206 l 341 265 q 335 278 341 270 q 326 281 335 281 l 191 281 l 191 56 q 194 48 191 52 q 206 44 194 44 l 265 39 l 265 0 l 28 0 l 28 39 l 78 44 z "},"G":{"ha":619,"x_min":31,"x_max":609,"o":"m 452 237 q 431 248 452 248 l 372 256 l 372 294 l 609 294 l 609 256 l 561 248 q 539 230 539 248 l 539 20 q 513 11 528 15 q 483 4 498 7 q 453 -3 469 0 q 420 -9 437 -6 q 356 -17 387 -17 q 215 11 276 -17 q 178 28 194 20 q 117 83 143 50 q 72 144 98 100 q 31 309 31 243 q 50 419 31 376 q 167 572 98 535 q 226 600 194 587 q 361 620 289 620 l 411 620 q 442 615 424 615 q 496 600 459 615 q 539 593 520 600 l 539 446 l 483 446 l 470 530 q 467 533 467 531 q 465 539 467 535 q 447 550 454 550 q 435 556 441 550 l 415 563 q 387 572 406 563 l 359 572 q 265 556 315 572 q 135 309 135 491 q 274 56 135 122 q 372 37 319 37 l 400 37 q 424 44 419 41 q 439 48 435 44 l 452 48 l 452 237 z "},"H":{"ha":663,"x_min":28,"x_max":644,"o":"m 596 563 q 583 556 583 563 q 579 552 581 556 q 576 544 576 548 l 576 61 q 583 48 576 56 q 589 44 583 44 l 596 44 l 644 39 l 644 0 l 415 0 l 415 39 l 467 44 l 474 44 q 480 48 480 44 q 483 61 483 52 l 483 294 l 191 294 l 191 48 q 206 44 194 44 l 257 39 l 257 0 l 28 0 l 28 39 l 78 44 q 89 48 89 44 q 96 61 96 54 l 96 544 q 94 552 96 548 q 89 556 91 556 q 78 563 89 563 l 28 569 l 28 609 l 257 609 l 257 569 l 206 563 q 191 556 194 563 l 191 341 l 483 341 l 483 556 q 467 563 476 563 l 415 569 l 415 609 l 644 609 l 644 569 l 596 563 z "},"I":{"ha":291,"x_min":28,"x_max":270,"o":"m 200 556 q 194 544 194 556 l 194 61 q 200 48 194 56 q 213 44 200 44 l 270 39 l 270 0 l 28 0 l 28 39 l 83 44 l 93 44 q 96 48 96 44 q 100 61 100 52 l 100 556 q 83 563 93 563 l 28 569 l 28 609 l 270 609 l 270 569 l 213 563 q 200 556 200 563 z "},"J":{"ha":437,"x_min":20,"x_max":415,"o":"m 256 544 l 248 561 q 233 563 246 563 l 178 569 l 178 609 l 415 609 l 415 569 l 361 563 q 346 556 352 563 q 343 550 343 554 q 341 544 341 550 l 341 230 q 335 130 341 163 q 270 24 317 61 q 237 0 257 13 q 163 -17 196 -17 l 122 -17 q 102 -13 113 -17 q 80 -6 91 -9 q 61 0 69 -4 q 37 7 48 0 q 27 10 30 7 q 20 13 24 13 l 20 165 l 78 165 l 96 56 l 100 44 q 106 40 104 41 q 113 37 109 39 q 126 31 113 37 l 135 31 q 226 80 198 31 q 245 136 243 117 q 252 176 248 156 q 256 222 256 196 l 256 544 z "},"K":{"ha":598,"x_min":28,"x_max":581,"o":"m 191 56 q 206 44 191 44 l 257 39 l 257 0 l 28 0 l 28 39 l 78 44 q 93 48 89 44 q 96 61 93 54 l 96 544 q 93 561 96 556 q 78 563 89 563 l 28 569 l 28 609 l 261 609 l 261 569 l 206 563 q 194 559 196 563 q 191 544 191 556 l 191 307 l 217 307 l 419 548 l 419 561 q 411 563 415 563 l 367 572 l 367 609 l 556 609 l 556 572 q 541 569 546 569 l 530 569 q 507 563 519 563 q 496 561 496 563 l 309 339 l 511 44 l 581 39 l 581 0 l 419 0 l 419 28 l 248 270 l 191 270 l 191 56 z "},"L":{"ha":494,"x_min":24,"x_max":467,"o":"m 96 544 q 86 562 91 561 q 78 563 81 563 l 24 569 l 24 609 l 256 609 l 256 569 l 206 563 q 194 556 196 563 q 191 544 191 556 l 191 44 l 383 44 q 393 51 391 44 q 400 61 394 57 l 411 169 l 467 169 l 467 0 l 24 0 l 24 39 l 78 44 q 89 47 89 44 q 91 52 89 50 q 96 61 96 54 l 96 544 z "},"M":{"ha":791,"x_min":24,"x_max":765,"o":"m 600 48 l 604 61 l 604 561 l 393 0 l 352 0 l 148 550 l 148 61 q 169 44 148 44 l 222 39 l 222 0 l 24 0 l 24 39 l 78 44 q 93 48 89 44 q 96 61 96 52 l 96 552 q 93 556 96 556 q 78 563 83 563 l 28 569 l 28 609 l 230 609 l 230 583 l 393 135 l 556 581 l 556 609 l 765 609 l 765 569 l 717 563 q 704 559 709 563 q 698 552 698 556 l 698 61 q 700 48 698 52 q 717 44 706 44 l 765 39 l 765 0 l 535 0 l 535 39 l 583 44 q 600 48 596 44 z "},"N":{"ha":654,"x_min":24,"x_max":628,"o":"m 567 563 q 556 548 556 563 l 556 0 l 487 0 l 148 507 l 148 65 q 152 48 148 56 q 169 44 157 44 l 217 39 l 217 0 l 24 0 l 24 39 l 78 44 q 89 48 89 44 q 96 65 96 61 l 96 548 q 89 561 96 550 q 78 569 89 569 l 24 572 l 24 609 l 200 609 l 200 583 l 504 130 l 504 544 q 500 559 504 556 q 483 563 496 563 l 435 569 l 435 609 l 628 609 l 628 569 l 576 563 l 576 569 q 567 563 572 563 z "},"O":{"ha":644,"x_min":37,"x_max":624,"o":"m 519 302 q 470 491 519 426 q 444 524 457 509 q 411 548 431 539 q 331 572 381 572 q 246 548 281 572 q 139 356 161 507 q 135 304 135 330 q 183 117 135 200 q 246 56 204 83 q 319 37 283 37 q 415 56 374 37 q 478 120 457 85 q 522 302 522 198 l 519 302 m 624 302 q 604 178 624 243 l 578 124 q 500 37 554 78 q 439 2 478 20 q 330 -17 400 -17 q 117 72 193 -17 q 81 119 94 93 q 57 174 69 146 q 37 302 37 228 q 117 530 37 446 q 206 596 157 572 q 331 620 263 620 q 439 602 400 620 q 544 530 494 576 q 604 426 580 480 q 624 302 624 357 z "},"P":{"ha":517,"x_min":20,"x_max":487,"o":"m 352 307 q 371 331 363 320 q 386 362 380 341 q 393 413 393 383 q 387 483 393 463 q 359 530 369 515 q 307 556 339 544 q 233 563 278 563 l 191 563 l 191 278 l 209 278 q 226 274 213 274 l 237 274 q 352 307 322 274 m 476 511 q 487 428 487 478 q 472 346 487 378 q 445 302 457 315 q 419 274 433 289 q 248 226 350 226 l 233 226 q 220 230 226 230 q 199 230 207 230 q 191 233 191 230 l 191 48 q 206 44 194 44 l 265 39 l 265 0 l 28 0 l 28 39 l 78 44 q 89 47 89 44 q 91 52 89 50 q 96 61 96 54 l 96 544 q 78 563 96 563 l 20 569 l 20 609 l 237 609 q 352 600 287 609 q 426 569 393 589 q 476 511 456 544 z "},"Q":{"ha":670,"x_min":37,"x_max":633,"o":"m 530 302 q 525 354 530 330 q 517 404 520 378 q 419 548 487 515 q 334 572 383 572 q 248 548 285 572 q 194 494 222 535 q 141 307 141 419 q 152 200 141 248 q 191 117 165 156 q 248 56 217 78 q 335 37 289 37 q 419 56 381 37 q 481 119 461 85 q 517 200 502 152 q 525 250 520 226 q 530 302 530 274 m 548 -161 l 507 -165 l 465 -165 q 378 -157 419 -165 q 294 -78 320 -135 q 287 -17 287 -61 q 183 15 233 -7 q 104 83 128 59 q 52 181 83 113 q 37 272 37 222 l 37 344 q 44 387 37 365 q 65 448 50 415 q 91 496 80 481 q 121 535 102 511 q 178 576 141 559 q 211 595 193 589 q 248 609 230 602 q 345 620 287 620 q 444 602 404 620 q 633 302 633 517 q 615 191 633 239 q 569 93 596 131 q 487 24 531 50 q 383 -13 443 0 q 507 -120 383 -120 l 539 -120 l 563 -117 l 583 -117 l 596 -113 l 596 -154 q 581 -157 587 -154 l 548 -161 z "},"R":{"ha":609,"x_min":28,"x_max":587,"o":"m 233 313 q 298 322 280 313 q 367 361 348 322 q 381 389 372 372 q 389 467 398 419 q 378 491 385 481 q 352 531 372 517 q 329 544 341 537 q 302 556 317 550 q 230 561 281 561 l 191 561 l 191 313 l 233 313 m 587 -4 q 581 -9 583 -4 q 569 -13 572 -9 q 548 -17 556 -13 l 530 -17 q 424 28 456 -17 q 400 72 406 43 q 390 98 393 83 q 383 126 387 113 q 339 226 363 202 q 298 257 326 239 q 230 270 263 270 l 200 270 q 194 265 196 265 l 191 265 l 191 61 q 194 48 191 52 q 209 44 196 44 l 257 39 l 257 0 l 28 0 l 28 39 l 78 44 q 93 48 89 44 q 96 61 96 52 l 96 552 q 93 556 96 556 q 78 563 83 563 l 28 569 l 28 609 l 265 609 q 431 572 365 609 q 476 519 457 550 q 487 452 487 493 q 443 339 487 383 q 393 309 426 322 q 339 294 372 298 q 374 282 361 289 q 400 270 387 276 q 417 252 407 261 q 435 233 426 243 q 443 212 439 220 q 451 193 446 204 q 457 169 456 181 q 463 146 459 157 q 467 124 467 135 q 470 104 467 113 q 491 69 480 87 q 530 44 513 52 q 587 37 556 37 l 587 -4 z "},"S":{"ha":456,"x_min":31,"x_max":439,"o":"m 330 556 l 313 563 q 294 572 311 563 l 257 572 q 144 507 181 572 q 141 489 141 498 l 141 444 q 144 426 141 435 q 158 410 152 417 q 172 393 165 404 q 209 372 185 381 q 256 350 224 361 q 339 313 304 330 q 367 295 352 304 q 393 276 381 287 q 422 235 415 254 q 439 169 439 193 l 435 169 q 424 100 435 135 q 344 19 378 35 q 261 -12 296 -7 q 200 -17 226 -17 l 157 -17 q 129 -13 143 -17 q 102 -6 115 -9 q 77 0 89 -4 q 55 8 65 4 q 31 15 44 13 l 31 178 l 93 178 l 100 78 q 104 70 104 74 q 112 62 107 65 q 117 56 117 59 l 133 48 q 144 44 139 48 l 172 37 q 226 37 204 37 q 261 44 248 37 q 322 78 306 54 q 335 96 328 89 q 341 142 341 111 q 326 191 341 172 q 309 211 320 204 q 285 226 298 219 q 239 253 257 246 q 207 267 220 259 q 181 278 194 274 q 156 293 169 287 q 121 312 150 294 q 78 344 93 330 q 44 443 44 378 q 61 517 44 491 q 100 572 76 546 q 169 609 122 589 q 237 620 206 620 l 278 620 q 302 615 289 620 l 341 613 q 378 600 372 604 q 415 593 404 593 l 415 452 l 361 452 l 352 535 q 339 548 339 544 q 335 550 339 550 l 335 554 l 333 554 q 330 556 330 554 z "},"T":{"ha":559,"x_min":15,"x_max":530,"o":"m 457 548 q 456 561 457 556 q 452 562 452 561 q 446 563 452 563 l 313 563 l 313 61 q 317 55 313 57 q 321 48 320 52 q 335 44 322 44 l 393 39 l 393 0 l 144 0 l 144 39 l 206 44 q 217 48 217 44 q 226 61 226 54 l 226 563 l 93 563 q 89 562 89 563 q 83 561 89 561 q 80 548 80 556 l 69 465 l 15 465 l 15 609 l 530 609 l 530 465 l 476 465 l 457 548 z "},"U":{"ha":641,"x_min":28,"x_max":620,"o":"m 569 563 q 559 563 569 563 q 550 544 550 563 l 550 200 q 491 37 550 83 q 320 -17 422 -17 q 148 39 215 -17 q 96 200 96 102 l 96 544 q 93 561 96 556 q 78 563 89 563 l 28 569 l 28 609 l 261 609 l 261 569 l 206 563 q 194 559 196 563 q 191 544 191 556 l 191 185 q 200 128 191 144 q 341 44 237 44 q 419 61 385 44 q 467 96 444 70 q 495 182 494 159 q 496 226 496 206 l 496 544 q 491 561 496 556 q 476 563 487 563 l 424 569 l 424 609 l 620 609 l 620 569 l 569 563 z "},"V":{"ha":622,"x_min":7,"x_max":596,"o":"m 339 -17 l 270 -17 l 61 561 l 7 569 l 7 609 l 226 609 l 226 569 l 172 563 q 165 556 165 563 q 161 548 161 556 l 322 100 l 476 548 q 478 553 478 550 q 473 559 478 556 q 465 563 469 563 l 415 569 l 415 609 l 596 609 l 596 569 l 539 561 l 339 -17 z "},"W":{"ha":848,"x_min":7,"x_max":833,"o":"m 641 -17 l 572 -17 l 424 487 l 274 -17 l 209 -17 l 61 556 l 7 569 l 7 609 l 217 609 l 217 569 l 161 563 q 156 561 157 563 q 152 556 156 559 l 152 544 l 261 135 l 404 609 l 470 609 l 620 120 l 717 544 q 719 551 719 548 q 717 556 719 554 q 706 563 717 563 l 648 569 l 648 609 l 833 609 l 833 569 l 778 556 l 641 -17 z "},"X":{"ha":580,"x_min":7,"x_max":563,"o":"m 335 39 l 383 44 q 393 48 393 44 q 393 61 404 61 l 278 248 l 135 61 q 131 48 131 56 q 144 44 135 44 l 200 39 l 200 0 l 7 0 l 7 39 l 65 48 l 246 298 l 80 556 l 20 569 l 20 609 l 248 609 l 248 569 l 206 563 q 191 556 191 563 l 191 548 l 302 374 l 424 544 q 424 556 428 550 q 415 563 424 563 l 367 569 l 367 609 l 556 609 l 556 569 l 498 561 l 330 330 l 511 48 l 563 39 l 563 0 l 335 0 l 335 39 z "},"Y":{"ha":569,"x_min":7,"x_max":556,"o":"m 178 563 q 165 556 165 563 l 165 554 q 169 548 165 550 l 294 309 l 435 544 q 435 556 441 550 q 424 563 435 563 l 374 569 l 374 609 l 556 609 l 556 569 l 511 561 l 326 257 l 326 56 q 346 44 326 44 l 404 39 l 404 0 l 161 0 l 161 39 l 213 44 q 233 56 233 44 l 233 246 l 61 556 l 7 569 l 7 609 l 222 609 l 222 569 l 178 563 z "},"Z":{"ha":500,"x_min":37,"x_max":483,"o":"m 37 39 l 372 563 l 135 563 q 130 556 130 563 q 120 548 120 556 l 109 465 l 56 465 l 56 609 l 483 609 l 483 569 l 144 44 l 404 44 q 411 52 411 44 q 415 56 415 52 l 415 61 l 431 169 l 483 169 l 483 0 l 37 0 l 37 39 z "},"[":{"ha":354,"x_min":126,"x_max":341,"o":"m 126 641 l 341 641 l 341 600 l 200 600 l 200 -78 l 341 -78 l 341 -120 l 126 -120 l 126 641 z "},"\\":{"ha":470,"x_min":0,"x_max":443,"o":"m 0 609 l 61 609 l 443 -83 l 383 -83 l 0 609 z "},"]":{"ha":326,"x_min":39,"x_max":261,"o":"m 39 -78 l 181 -78 l 181 600 l 39 600 l 39 641 l 261 641 l 261 -120 l 39 -120 l 39 -78 z "},"^":{"ha":330,"x_min":0,"x_max":294,"o":"m 148 587 l 56 498 l 0 498 l 113 652 l 181 652 l 294 498 l 243 498 l 148 587 z "},"_":{"ha":483,"x_min":0,"x_max":302,"o":"m 0 -78 l 302 -78 l 302 -131 l 0 -131 l 0 -78 z "},"`":{"ha":239,"x_min":0,"x_max":209,"o":"m 20 661 l 39 665 q 61 661 52 665 l 63 661 q 69 657 65 661 q 80 648 72 657 q 83 646 83 648 q 89 641 83 644 l 209 498 l 157 498 l 20 583 q 11 594 15 591 q 4 600 7 596 q 0 624 0 609 l 0 635 q 11 656 7 654 q 20 661 15 657 z "},"a":{"ha":454,"x_min":28,"x_max":446,"o":"m 298 243 q 206 209 235 226 q 170 195 183 204 q 148 181 157 187 q 117 117 117 143 q 123 95 117 109 q 131 75 130 81 q 135 65 131 69 q 147 56 143 61 q 158 48 152 52 q 174 44 165 44 q 204 44 191 44 q 237 53 222 44 q 263 65 252 61 q 281 73 274 69 q 298 83 289 78 l 298 243 m 378 367 l 383 309 l 383 61 q 388 48 383 57 q 404 37 393 39 l 446 37 l 446 0 l 309 0 l 298 52 q 248 20 272 31 q 238 13 244 15 q 226 7 231 11 q 200 0 213 0 q 172 -9 181 -9 q 146 -13 165 -13 q 109 -7 128 -13 q 39 61 54 13 q 28 100 28 83 l 28 126 q 32 144 28 133 q 44 172 37 154 q 72 196 59 191 q 94 211 83 204 q 123 225 106 219 q 158 238 141 231 q 196 248 176 244 q 243 263 219 257 q 298 278 267 269 l 298 313 q 278 383 298 363 q 224 404 250 404 l 193 404 q 159 398 181 404 q 148 393 154 394 l 148 313 l 72 313 l 61 320 q 58 322 61 322 q 52 326 56 322 l 52 339 q 69 387 52 372 q 89 407 78 400 q 113 424 100 415 q 190 444 157 443 q 243 446 222 446 q 354 411 319 446 q 378 367 367 393 z "},"b":{"ha":491,"x_min":13,"x_max":470,"o":"m 231 439 l 270 446 l 289 446 q 426 387 376 446 q 470 237 470 317 q 456 144 470 180 q 411 69 443 100 q 330 15 387 41 q 213 0 274 0 l 80 0 l 80 600 l 13 600 l 13 633 l 130 667 l 165 667 l 165 415 q 183 424 178 415 q 209 432 194 426 q 231 439 224 439 m 181 383 l 165 378 l 165 44 l 209 44 q 280 50 261 44 q 367 135 352 72 q 378 222 378 172 q 341 351 378 309 q 243 393 304 393 l 222 393 q 200 391 217 391 q 191 387 194 387 q 181 383 187 387 z "},"c":{"ha":415,"x_min":28,"x_max":391,"o":"m 270 406 l 256 411 q 196 393 219 411 q 157 359 176 385 q 133 302 135 320 q 126 226 126 261 q 131 157 126 202 q 146 126 141 139 q 237 48 172 67 q 279 44 256 44 q 325 52 302 44 q 362 68 348 59 q 391 83 376 76 l 391 28 q 376 23 385 26 q 359 15 367 20 q 341 6 352 9 q 322 0 330 4 q 281 -13 311 -4 l 237 -17 q 117 24 178 -17 q 89 52 100 35 q 28 213 28 113 q 96 387 28 319 q 165 431 124 415 q 237 443 207 443 l 280 443 q 322 434 304 443 q 352 424 341 426 q 378 393 367 413 q 391 354 391 380 l 387 335 q 381 324 383 328 q 374 313 378 320 q 354 307 367 307 q 346 302 352 302 q 335 302 341 302 l 309 307 q 289 320 298 311 l 289 393 q 270 406 287 400 z "},"d":{"ha":506,"x_min":31,"x_max":487,"o":"m 302 61 l 326 72 q 337 75 333 72 q 346 80 341 78 l 346 391 q 330 393 341 393 q 309 400 326 400 q 302 404 307 404 l 289 404 q 278 406 283 406 l 270 406 q 161 354 202 406 q 144 329 152 341 q 131 297 135 317 q 124 260 128 278 q 120 222 120 243 q 126 171 120 204 q 139 126 131 139 q 152 100 146 113 q 248 52 193 52 l 278 52 l 291 59 q 302 61 296 61 m 287 446 l 309 443 q 330 439 326 443 l 346 439 l 346 604 l 278 604 l 278 633 l 393 667 l 431 667 l 431 61 q 435 44 431 48 q 452 39 439 39 l 487 37 l 487 0 l 346 0 l 346 48 q 313 24 326 31 q 299 14 309 17 q 281 4 289 11 q 264 -3 272 0 q 245 -9 256 -6 q 226 -13 235 -13 l 206 -13 q 130 7 157 -13 q 56 93 89 22 q 44 130 48 107 q 31 194 31 159 q 48 294 31 254 q 65 338 54 320 q 89 374 76 356 q 261 446 161 446 l 287 446 z "},"e":{"ha":443,"x_min":28,"x_max":411,"o":"m 411 44 q 361 15 383 22 q 328 4 339 7 q 307 -3 317 0 q 286 -9 298 -6 q 263 -13 274 -13 l 237 -13 q 167 -2 193 -13 q 67 74 96 28 q 43 124 57 91 q 28 198 28 157 q 44 309 28 256 q 89 383 63 350 q 157 431 120 413 q 237 446 211 446 q 320 435 276 446 q 372 393 348 415 q 404 335 389 369 q 411 261 411 306 l 411 233 l 117 233 q 126 165 117 206 q 136 136 131 152 q 148 104 141 120 q 270 44 191 44 l 289 44 q 346 61 309 44 q 363 70 354 67 q 378 80 372 74 q 411 100 402 91 l 411 44 m 322 294 q 319 317 322 307 q 313 337 317 326 q 290 380 302 370 q 270 393 278 389 q 233 400 263 400 q 157 367 178 400 q 144 349 148 359 q 131 326 141 339 q 120 274 130 309 l 322 274 l 322 294 z "},"f":{"ha":383,"x_min":28,"x_max":352,"o":"m 346 633 q 352 615 352 626 q 346 587 352 598 l 335 576 q 322 569 326 569 q 309 563 320 563 l 309 567 q 307 572 307 569 q 296 574 298 572 l 289 581 q 270 596 278 583 q 250 608 257 602 q 233 615 243 615 q 230 622 230 620 l 230 624 q 219 618 224 622 q 209 609 215 613 q 200 596 206 602 q 190 582 194 591 q 183 562 185 574 q 178 539 181 550 l 178 426 l 287 426 l 287 383 l 178 383 l 178 56 q 194 37 178 37 l 248 37 l 248 0 l 28 0 l 28 37 l 72 37 q 83 44 78 37 q 89 56 89 48 l 89 383 l 31 383 l 31 415 l 89 431 l 89 454 q 93 470 89 463 q 93 489 93 480 l 100 520 q 104 537 100 530 q 120 569 117 557 q 136 593 130 581 q 151 613 143 604 q 170 630 159 622 q 190 644 181 637 q 209 654 198 650 q 231 661 220 657 q 274 667 248 667 q 335 652 311 667 q 343 643 339 646 q 346 633 346 639 z "},"g":{"ha":481,"x_min":31,"x_max":457,"o":"m 348 -105 q 351 -97 348 -105 q 356 -79 354 -89 q 359 -60 359 -69 q 356 -44 359 -52 q 352 -28 354 -37 q 336 -19 343 -22 q 320 -8 330 -15 q 296 4 311 -2 q 248 15 274 9 l 230 15 q 213 20 222 15 q 181 24 191 20 q 161 16 169 20 q 144 7 154 11 q 135 -5 139 2 q 126 -19 131 -11 q 117 -41 117 -28 q 113 -56 113 -44 l 113 -78 q 119 -97 113 -89 q 129 -115 124 -106 q 141 -131 133 -124 q 230 -165 161 -165 q 287 -157 261 -165 q 326 -130 319 -141 q 348 -105 343 -120 m 161 378 q 151 360 154 369 q 142 337 148 352 q 135 298 135 322 q 144 256 135 274 q 172 204 144 230 q 183 194 180 198 q 204 187 194 191 q 224 183 213 183 q 243 187 235 183 q 258 194 250 191 q 272 205 267 198 q 287 217 278 211 q 294 236 291 226 q 303 256 298 246 q 307 276 307 267 l 307 317 q 299 346 307 328 q 287 374 291 365 l 261 400 q 230 406 246 406 q 161 378 181 406 m 126 39 l 120 48 l 120 56 q 117 74 117 61 q 126 104 117 87 q 165 152 139 130 q 109 178 126 163 q 83 200 93 193 q 72 219 78 207 q 61 237 67 230 q 52 296 52 265 q 65 354 52 328 q 80 381 69 369 q 100 404 91 393 q 233 443 150 443 l 250 443 q 265 439 257 443 l 281 439 q 294 435 289 439 q 319 425 307 426 q 339 415 330 424 l 457 415 l 457 372 l 372 372 l 372 367 q 381 352 376 361 q 391 335 385 343 q 393 313 393 326 q 393 283 393 300 q 378 222 393 243 q 359 196 369 209 q 318 167 344 178 q 274 148 291 156 q 200 144 230 139 q 194 126 194 137 q 191 104 191 117 l 191 93 q 194 87 191 93 l 194 83 q 237 80 194 83 q 265 77 252 78 q 293 72 278 76 q 320 67 307 69 q 362 53 343 63 q 398 33 381 43 q 426 4 415 24 q 439 -37 439 -15 q 424 -106 439 -72 q 400 -134 415 -120 q 372 -161 385 -148 q 294 -196 337 -189 q 219 -213 254 -213 q 131 -206 161 -213 q 78 -178 94 -189 q 31 -83 31 -131 q 34 -67 31 -76 q 39 -44 37 -57 q 107 22 56 -2 q 130 28 117 26 l 126 39 z "},"h":{"ha":517,"x_min":13,"x_max":498,"o":"m 237 378 l 213 374 q 191 367 198 367 l 178 361 q 165 354 172 359 l 165 56 q 171 43 165 48 q 183 37 178 37 l 222 37 l 222 0 l 15 0 l 15 37 l 61 37 q 78 44 69 37 q 80 56 80 48 l 80 600 l 13 600 l 13 633 l 130 667 l 165 667 l 165 391 q 196 411 174 393 q 230 424 213 419 q 256 434 246 430 q 278 439 265 439 q 296 446 287 446 l 313 446 q 377 433 361 446 q 404 415 393 420 q 426 372 420 398 q 439 309 439 348 l 439 61 q 450 41 439 43 q 457 37 454 39 l 498 37 l 498 0 l 298 0 l 294 31 l 335 37 q 346 44 341 37 q 354 56 354 44 l 354 289 l 352 326 q 335 354 343 343 q 307 374 320 365 q 287 378 298 378 l 237 378 z "},"i":{"ha":259,"x_min":28,"x_max":246,"o":"m 178 61 q 196 37 178 43 l 246 37 l 246 0 l 28 0 l 31 37 l 78 37 q 81 40 80 39 q 89 44 83 41 q 93 61 93 48 l 93 378 l 31 378 l 31 411 l 144 446 l 178 446 l 178 61 m 93 609 l 100 624 q 120 635 115 630 q 141 641 131 641 q 181 624 165 641 q 189 618 187 622 q 194 609 191 613 q 196 583 196 600 l 194 563 q 187 554 191 557 q 181 544 183 550 q 165 535 172 535 q 141 530 152 530 q 100 544 130 530 l 93 563 q 89 578 89 570 l 89 596 q 93 609 89 602 z "},"j":{"ha":202,"x_min":-74,"x_max":191,"o":"m 96 -69 l 100 -20 l 100 383 l 31 383 l 31 411 l 144 446 l 181 446 l 181 15 q 178 -7 178 4 l 178 -31 q 170 -56 172 -44 q 165 -81 169 -69 q 144 -120 156 -113 q 78 -185 120 -169 q -4 -206 46 -206 l -31 -206 q -52 -194 -46 -202 q -74 -157 -74 -187 q -69 -139 -74 -144 q -67 -131 -69 -133 q -61 -120 -65 -128 q -55 -118 -57 -119 q -50 -114 -52 -117 q -31 -106 -48 -111 l 56 -165 q 78 -144 61 -161 q 81 -131 80 -141 q 89 -113 83 -120 q 96 -69 96 -91 m 191 583 q 183 563 191 578 q 177 548 183 556 q 167 540 170 541 q 156 535 163 539 q 141 531 148 531 l 126 531 q 116 535 120 531 q 106 540 111 539 q 96 548 100 541 q 91 554 93 550 q 83 563 89 557 q 80 576 80 570 q 80 591 80 581 q 83 609 80 600 q 94 620 89 613 q 117 635 102 630 q 137 641 122 641 q 162 634 154 641 q 176 625 170 628 q 183 618 181 622 q 191 609 185 613 l 191 583 z "},"k":{"ha":478,"x_min":13,"x_max":476,"o":"m 320 383 l 320 391 q 309 400 320 400 l 274 404 l 274 439 l 446 439 l 446 404 l 391 393 l 270 265 l 426 39 l 476 37 l 476 0 l 330 0 l 330 37 l 217 206 l 165 206 l 165 56 q 171 45 165 50 q 179 39 178 41 q 183 37 180 37 l 222 37 l 222 0 l 15 0 l 15 37 l 61 37 q 78 44 69 37 q 80 56 80 48 l 80 600 l 13 600 l 13 633 l 130 667 l 165 667 l 165 233 l 183 233 l 320 383 z "},"l":{"ha":261,"x_min":24,"x_max":246,"o":"m 24 37 l 72 37 q 85 45 78 37 q 93 56 93 54 l 93 600 l 24 600 l 24 633 l 135 667 l 178 667 l 178 56 q 185 43 178 44 l 194 37 l 246 37 l 246 0 l 24 0 l 24 37 z "},"m":{"ha":757,"x_min":15,"x_max":750,"o":"m 72 44 q 80 56 80 44 l 80 372 l 15 372 l 15 404 l 130 435 l 165 435 l 165 391 q 196 411 174 393 q 215 419 206 415 q 233 426 224 424 q 287 446 269 446 q 325 446 309 446 q 352 443 341 446 q 363 437 356 439 q 407 396 391 424 q 411 383 411 389 q 429 392 419 389 q 446 404 439 394 q 466 413 456 407 q 485 424 476 419 q 531 439 513 439 q 552 446 541 446 l 572 446 q 628 435 602 446 q 650 419 641 426 q 666 402 659 413 q 676 380 672 391 q 685 354 680 369 q 689 307 689 328 l 689 61 q 706 37 689 44 l 750 37 l 750 0 l 548 0 l 544 31 l 583 37 q 596 44 591 37 q 600 48 600 44 l 600 307 q 596 326 600 317 q 592 342 596 335 q 583 356 587 348 q 541 378 570 378 l 496 378 l 470 374 q 446 367 456 367 q 424 354 435 361 l 424 56 q 431 44 424 50 q 443 37 437 37 l 483 37 l 483 0 l 281 0 l 281 37 l 322 37 q 332 43 326 37 q 339 56 339 48 l 339 311 q 335 330 339 320 q 322 359 335 346 q 305 372 320 367 q 280 378 289 378 q 244 378 256 378 q 183 361 200 378 q 165 354 172 361 l 165 48 q 169 44 165 44 q 183 37 178 37 l 222 31 l 222 0 l 15 0 l 15 31 l 61 37 q 72 44 72 37 z "},"n":{"ha":502,"x_min":15,"x_max":496,"o":"m 346 44 q 352 56 352 44 l 352 294 q 307 374 352 369 q 270 378 289 378 l 239 378 q 213 373 226 378 q 189 365 200 369 q 165 354 178 361 l 165 56 q 171 45 165 50 q 179 39 178 41 q 183 37 180 37 l 222 37 l 222 0 l 15 0 l 15 37 l 61 37 q 78 44 69 37 q 80 56 80 48 l 80 372 l 15 372 l 15 404 l 130 435 l 165 435 l 165 391 q 206 411 185 406 q 225 420 215 417 q 245 430 235 424 q 264 437 256 435 q 281 443 272 439 q 300 446 289 446 l 313 446 q 407 409 376 446 q 439 307 439 372 l 439 61 q 448 41 439 43 q 456 37 452 39 l 496 37 l 496 0 l 294 0 l 294 31 l 335 37 q 346 44 341 37 z "},"o":{"ha":487,"x_min":28,"x_max":457,"o":"m 339 89 q 348 116 343 100 q 360 150 354 131 q 367 203 367 169 q 364 254 367 237 q 356 297 361 270 q 341 344 352 324 q 246 406 302 406 q 191 391 211 406 q 170 372 181 381 q 152 352 159 363 q 126 217 126 291 q 128 183 126 198 q 133 150 130 169 q 152 89 137 119 q 246 28 196 28 q 293 41 278 28 q 339 89 320 63 m 404 378 q 457 228 457 317 q 424 89 457 157 q 400 56 415 69 q 289 -7 359 11 q 243 -13 269 -13 q 152 4 213 -13 q 83 52 115 22 q 28 217 28 126 q 39 293 28 257 q 89 378 56 344 q 157 431 109 415 q 230 446 187 446 q 404 378 359 446 z "},"p":{"ha":493,"x_min":20,"x_max":476,"o":"m 165 44 l 191 39 q 201 37 194 37 q 213 31 207 37 l 237 31 q 307 44 278 31 q 374 144 365 85 q 383 194 383 163 q 378 278 383 256 q 367 307 372 291 q 313 372 352 346 q 259 383 285 383 q 226 378 233 383 q 210 376 217 378 q 194 372 204 374 q 165 359 178 363 l 165 44 m 465 320 q 476 237 476 276 q 457 130 476 174 q 415 52 443 80 q 341 4 381 22 q 246 -13 280 -13 l 217 -13 q 204 -9 211 -9 l 194 -9 q 165 -4 181 -4 l 165 -139 q 172 -148 165 -148 q 183 -157 180 -157 l 237 -161 l 237 -196 l 20 -196 l 20 -161 l 61 -157 q 80 -139 80 -157 l 80 372 l 20 372 l 20 404 l 131 439 l 165 439 l 165 391 q 184 406 172 400 q 206 419 196 413 q 294 446 252 446 q 359 435 335 446 q 424 387 396 419 q 465 320 439 369 z "},"q":{"ha":472,"x_min":28,"x_max":483,"o":"m 257 39 l 278 44 l 298 44 q 322 48 307 48 q 331 52 326 52 q 335 56 335 52 l 335 393 q 307 404 330 393 l 274 406 q 209 391 235 406 q 161 354 181 380 q 133 304 139 330 q 120 224 120 243 q 126 171 120 204 q 139 124 131 139 q 152 96 146 109 q 193 58 165 78 q 257 39 220 39 m 330 -154 q 335 -143 335 -154 l 335 24 q 323 16 330 17 q 308 12 317 15 q 293 7 300 9 q 243 -9 257 -9 q 224 -13 233 -13 l 209 -13 q 131 4 169 -13 q 78 52 94 31 q 28 196 28 131 q 43 294 28 261 q 100 383 70 356 q 181 431 130 413 q 272 446 246 446 l 307 446 q 322 443 313 446 l 354 443 q 372 439 363 439 q 391 439 381 439 q 407 435 400 435 q 424 431 415 435 l 424 -143 q 426 -154 424 -148 q 439 -161 437 -161 l 483 -165 l 483 -196 l 261 -196 l 265 -165 l 320 -161 q 330 -154 322 -161 z "},"r":{"ha":376,"x_min":20,"x_max":346,"o":"m 335 439 l 346 435 l 346 341 l 307 341 q 298 352 302 350 q 289 359 294 354 q 257 367 280 367 q 217 352 235 367 q 169 309 191 337 l 169 56 q 178 44 169 44 q 191 37 178 37 l 248 31 l 248 0 l 20 0 l 20 31 l 65 37 q 80 44 76 37 q 83 48 83 44 l 83 372 l 20 372 l 20 404 l 131 435 l 169 435 l 169 354 q 194 383 180 363 q 206 398 198 393 q 225 415 215 404 q 248 433 235 426 q 289 446 269 446 l 307 446 q 322 443 309 443 q 335 439 322 439 z "},"s":{"ha":357,"x_min":28,"x_max":330,"o":"m 298 431 l 320 426 l 320 320 l 270 320 l 261 383 q 233 393 248 389 l 211 400 q 189 404 204 404 q 135 387 163 404 q 117 341 117 363 q 131 306 117 322 q 172 274 150 285 q 210 254 185 263 q 244 238 235 244 q 263 226 252 231 q 296 202 287 211 l 311 185 q 330 131 330 169 l 330 130 q 320 69 330 100 q 230 -4 285 11 q 157 -17 196 -17 l 117 -13 q 95 -8 104 -9 q 80 -4 87 -7 q 65 0 72 0 q 48 4 57 0 q 28 13 41 4 l 28 131 l 78 131 l 89 52 q 103 45 94 48 q 120 37 111 43 q 169 28 143 24 q 246 72 219 31 q 248 94 248 80 q 243 133 248 126 q 231 146 237 141 q 222 157 226 152 l 206 167 q 186 177 196 170 q 165 188 176 183 q 141 200 154 193 q 96 222 122 211 q 79 238 89 231 q 63 252 69 244 q 37 311 37 281 q 131 439 37 406 q 183 446 157 446 l 219 446 q 237 443 230 446 l 274 439 q 298 431 283 439 z "},"t":{"ha":324,"x_min":24,"x_max":302,"o":"m 281 48 q 302 56 291 48 l 302 20 q 261 4 283 9 q 246 -3 257 0 q 224 -9 235 -6 q 202 -13 213 -13 l 178 -13 q 80 89 80 -13 l 80 391 l 24 391 l 24 424 l 83 452 l 126 548 l 165 548 l 165 439 l 294 439 l 294 391 l 165 391 l 165 135 q 169 93 165 135 q 176 76 172 83 q 183 63 180 69 q 213 41 196 43 q 243 39 230 39 q 261 44 256 39 q 281 48 278 44 z "},"u":{"ha":513,"x_min":15,"x_max":496,"o":"m 281 52 l 307 61 q 330 67 320 61 q 344 73 339 72 q 352 78 348 74 l 352 378 l 289 378 l 289 411 l 400 446 l 435 446 l 435 61 q 441 46 435 52 q 449 40 446 41 q 456 37 452 39 l 496 37 l 496 0 l 352 0 l 352 52 q 322 28 331 41 q 306 20 315 26 q 289 13 298 15 q 268 3 278 6 q 246 -6 257 0 q 206 -13 231 -13 q 159 -7 180 -13 q 117 24 133 2 q 80 131 80 54 l 80 378 l 15 378 l 15 411 l 130 446 l 165 446 l 165 152 q 172 109 165 128 q 198 63 172 85 q 228 52 213 52 l 281 52 z "},"v":{"ha":491,"x_min":7,"x_max":470,"o":"m 261 0 l 206 0 l 61 393 l 7 404 l 7 439 l 209 439 l 209 404 l 165 400 q 158 396 161 400 q 151 389 156 393 q 152 378 146 385 l 256 96 l 367 378 l 367 391 q 359 396 363 393 q 352 400 356 400 l 309 404 l 309 439 l 470 439 l 470 404 l 424 393 l 261 0 z "},"w":{"ha":724,"x_min":7,"x_max":700,"o":"m 530 0 l 467 0 l 359 339 l 237 0 l 172 0 l 61 393 l 7 404 l 7 439 l 206 439 l 206 404 l 165 400 q 158 396 161 400 q 152 390 156 393 q 148 378 148 387 l 226 96 l 341 439 l 406 439 l 511 96 l 596 378 q 598 384 600 381 q 596 391 596 387 q 590 396 593 393 q 583 400 587 400 l 539 404 l 539 439 l 700 439 l 700 404 l 657 393 l 530 0 z "},"x":{"ha":472,"x_min":7,"x_max":452,"o":"m 257 37 l 289 39 q 298 44 294 39 l 298 56 l 217 172 l 131 56 q 130 45 130 52 q 135 39 130 39 l 181 37 l 181 0 l 7 0 l 7 37 l 61 44 l 191 209 l 69 393 l 15 404 l 15 439 l 213 439 l 213 404 l 181 393 q 172 378 161 393 l 246 278 l 322 378 q 322 391 328 385 q 320 393 322 393 l 278 404 l 278 439 l 439 439 l 439 404 l 391 393 l 270 237 l 404 44 l 452 37 l 452 0 l 257 0 l 257 37 z "},"y":{"ha":485,"x_min":7,"x_max":470,"o":"m 89 -209 l 61 -206 q 48 -200 54 -204 q 39 -194 43 -196 q 33 -185 37 -191 q 24 -163 24 -178 q 35 -120 24 -131 q 52 -100 46 -109 l 135 -143 q 161 -113 150 -124 q 170 -95 165 -104 q 181 -76 176 -87 q 191 -55 187 -65 q 199 -34 194 -44 q 206 -16 204 -24 q 213 0 209 -7 l 61 393 l 7 404 l 7 439 l 209 439 l 209 404 l 165 400 q 158 396 161 400 q 151 389 156 393 q 152 378 146 385 l 257 113 l 367 378 l 367 391 q 359 396 363 393 q 352 400 356 400 l 309 404 l 309 439 l 470 439 l 470 404 l 424 393 l 248 -28 q 196 -143 248 -52 q 184 -159 193 -152 q 169 -174 176 -167 q 152 -189 163 -183 q 131 -204 141 -194 q 89 -209 109 -209 z "},"z":{"ha":409,"x_min":28,"x_max":387,"o":"m 326 56 l 330 65 l 339 135 l 387 135 l 387 0 l 28 0 l 28 48 l 270 393 l 113 393 q 102 388 107 393 q 96 381 96 383 q 93 374 96 378 l 83 307 l 39 307 l 39 435 l 374 435 l 374 400 l 126 44 l 313 44 q 322 48 322 44 q 326 56 322 56 z "},"{":{"ha":426,"x_min":52,"x_max":378,"o":"m 248 183 l 261 152 l 261 30 q 265 13 261 22 q 274 -26 265 -4 q 281 -36 278 -30 q 287 -47 283 -43 q 294 -56 291 -52 q 307 -61 298 -61 q 335 -74 320 -65 l 378 -74 l 378 -113 l 374 -117 l 350 -117 q 330 -113 339 -117 q 290 -107 306 -113 q 266 -101 274 -102 q 248 -93 257 -100 q 220 -78 230 -89 q 193 -32 198 -52 q 183 0 187 -13 l 181 39 l 181 157 q 178 172 178 163 q 172 191 178 181 q 161 211 169 206 q 148 221 154 217 q 135 230 143 226 l 117 233 q 89 237 109 237 l 52 237 l 52 278 l 89 281 q 117 287 109 281 q 135 294 130 287 q 157 307 148 294 q 172 330 165 311 q 178 346 178 339 q 181 367 178 354 l 181 480 l 183 519 q 204 576 196 565 q 217 596 211 587 q 230 607 224 602 q 248 613 235 613 l 287 628 l 330 633 q 352 635 341 635 l 378 635 l 378 600 l 370 600 q 359 596 365 600 l 346 596 q 335 593 341 596 q 307 583 317 593 q 287 572 298 583 q 276 560 278 567 q 270 545 274 554 q 266 529 267 537 q 261 511 265 520 l 261 389 q 257 372 261 380 q 248 339 257 363 q 239 314 248 328 q 218 293 230 300 q 194 278 206 285 q 141 261 169 267 q 169 253 156 257 q 194 246 181 248 q 237 209 219 235 q 248 183 248 198 z "},"|":{"ha":278,"x_min":131,"x_max":191,"o":"m 131 722 l 191 722 l 191 -235 l 131 -235 l 131 722 z "},"}":{"ha":415,"x_min":61,"x_max":387,"o":"m 281 307 q 299 294 289 298 q 342 285 309 289 q 387 281 374 281 l 387 243 l 383 246 q 322 237 335 246 q 270 207 298 237 q 261 194 265 204 l 257 161 q 256 143 256 152 l 256 44 q 248 4 256 22 q 243 -37 248 -20 q 231 -55 235 -44 q 219 -70 226 -65 q 192 -90 202 -87 q 171 -96 181 -93 q 152 -100 161 -100 l 109 -109 l 61 -109 l 61 -74 l 78 -74 q 104 -69 96 -74 q 152 -44 141 -69 q 162 -33 159 -41 q 169 -20 165 -26 q 172 -6 172 -15 q 178 13 172 4 l 178 137 q 181 152 178 146 q 191 183 181 172 q 206 213 194 204 q 239 244 220 235 q 298 261 278 261 q 272 272 280 270 q 246 281 254 278 q 232 287 239 285 q 222 294 226 289 q 208 310 219 300 q 196 329 198 320 q 190 344 194 337 q 184 357 185 350 q 181 374 183 365 l 178 406 l 178 517 q 169 548 178 533 q 155 574 163 567 q 131 587 146 581 q 104 596 120 596 q 93 600 100 600 l 65 600 l 65 635 l 113 635 q 152 628 139 635 q 191 615 178 628 q 220 596 204 613 q 242 568 237 580 q 248 544 246 556 q 256 522 250 531 q 257 504 257 515 l 257 385 q 261 367 257 376 l 261 352 q 281 307 261 328 z "},"~":{"ha":719,"x_min":80,"x_max":676,"o":"m 246 274 q 80 206 181 274 l 80 261 q 169 309 130 298 q 238 326 207 326 q 283 324 269 326 q 320 320 298 322 q 350 306 333 311 q 381 296 367 302 q 446 278 406 285 q 512 265 481 265 q 572 278 543 265 q 676 335 633 302 l 676 278 q 628 248 646 254 q 583 230 607 235 q 548 217 561 217 q 526 213 535 213 q 505 213 517 213 q 478 216 493 213 q 445 222 463 219 q 413 232 428 226 q 378 246 398 239 q 346 254 363 248 q 246 274 285 274 z "},"":{"ha":443,"x_min":0,"x_max":0,"o":""},"":{"ha":469,"x_min":69,"x_max":439,"o":"m 265 411 q 247 404 257 406 q 230 393 237 402 q 194 359 215 385 q 178 335 183 350 q 165 307 172 320 q 157 239 157 267 q 163 156 157 187 q 226 65 174 106 q 265 44 244 50 l 265 411 m 335 44 l 354 48 q 365 52 361 52 q 374 56 369 52 q 378 57 378 56 l 378 61 l 383 67 l 383 69 l 393 157 l 439 157 l 439 15 l 435 15 q 420 11 428 15 q 404 7 413 7 q 367 0 385 0 l 307 0 l 307 -93 l 265 -93 l 265 0 q 120 72 163 15 q 80 137 91 102 q 69 221 69 172 q 80 309 69 270 q 183 426 120 398 q 265 452 219 443 l 265 544 l 307 544 l 307 456 l 341 456 q 374 452 352 452 q 389 446 381 446 l 422 439 q 439 435 430 439 l 439 302 l 393 302 l 383 378 q 378 391 383 387 q 374 400 378 393 l 361 404 q 356 406 359 406 q 352 411 354 406 l 309 411 l 309 44 l 335 44 z "},"":{"ha":500,"x_min":37,"x_max":470,"o":"m 131 165 l 135 230 l 135 298 l 72 298 l 72 341 l 131 341 l 131 439 q 243 648 131 593 q 307 667 278 667 q 377 661 356 667 q 424 644 398 656 q 441 631 431 637 q 456 615 450 624 q 470 572 470 600 l 467 569 l 467 548 q 456 533 465 537 q 435 519 446 530 q 413 517 426 517 q 393 519 400 517 l 378 519 l 378 613 q 367 615 372 613 l 354 615 q 346 620 352 620 l 339 620 q 285 609 302 620 q 261 593 269 598 q 252 578 257 585 q 241 560 246 570 q 232 541 235 550 q 226 523 230 531 q 221 504 222 515 q 217 483 220 493 l 217 339 l 391 339 l 391 294 l 217 294 l 217 217 q 210 188 213 204 q 201 158 207 172 q 189 131 194 144 q 172 109 183 119 q 126 69 157 89 l 157 69 l 181 72 l 467 72 l 467 0 l 37 0 l 37 52 q 63 64 50 59 q 83 78 76 69 q 117 113 106 89 q 125 139 120 126 q 131 165 130 152 z "},"":{"ha":770,"x_min":28,"x_max":722,"o":"m 517 126 q 495 117 502 117 q 480 113 489 117 q 439 104 467 113 l 391 100 q 307 115 339 100 q 226 165 246 144 q 183 233 207 187 q 174 277 180 256 q 169 320 169 298 q 174 363 169 343 q 183 404 180 383 q 204 437 194 420 q 254 491 226 474 q 302 515 281 507 q 383 531 341 531 q 451 525 426 531 q 491 517 476 519 q 519 507 506 515 l 519 400 l 480 400 l 467 467 q 426 487 439 487 l 404 487 q 298 443 330 487 q 281 419 289 433 q 265 391 272 404 q 256 330 256 361 q 261 246 256 267 q 393 144 307 144 l 415 144 l 435 148 q 446 153 441 152 q 455 157 452 154 q 463 161 457 161 l 467 161 l 483 237 l 522 237 l 522 126 l 517 126 m 674 233 q 685 316 685 276 q 674 400 685 356 q 660 436 667 417 q 641 470 654 456 q 593 535 631 496 q 494 604 565 569 q 456 615 478 613 q 380 628 430 628 q 294 615 330 628 q 217 583 257 611 q 157 535 181 563 q 129 506 141 522 q 104 476 117 491 q 65 325 65 378 q 78 233 65 272 q 109 161 85 187 q 157 96 124 128 q 294 15 198 46 q 363 4 330 4 q 531 48 450 4 q 593 96 570 69 q 674 233 661 165 m 713 411 q 722 320 722 346 q 694 180 722 256 q 674 141 687 159 q 589 41 652 93 q 527 3 565 20 q 467 -20 489 -15 q 281 -20 372 -44 q 161 41 224 -7 q 130 69 143 54 q 39 222 74 117 q 28 297 28 252 q 29 364 28 343 q 37 407 30 385 q 92 521 69 493 q 130 563 115 550 q 200 615 156 598 q 374 667 274 667 q 511 637 441 667 q 550 615 533 628 q 617 569 594 593 q 696 452 678 502 q 713 411 704 431 z "},"":{"ha":756,"x_min":28,"x_max":726,"o":"m 452 419 l 452 433 q 446 452 452 443 q 436 462 441 456 q 423 477 431 469 q 398 489 415 485 q 339 496 374 496 l 307 496 l 307 335 q 357 335 337 335 q 391 339 378 335 q 408 344 400 339 q 424 352 417 348 q 443 378 437 363 q 452 419 452 387 m 504 226 q 511 196 511 207 q 519 186 517 193 q 530 172 520 180 q 548 159 533 167 q 604 152 567 152 l 604 126 l 583 126 l 569 120 l 550 120 q 485 137 504 120 q 470 148 478 143 q 462 164 467 157 q 454 183 457 170 q 444 209 450 196 q 437 230 439 222 q 415 274 430 257 q 401 283 407 278 q 385 294 394 289 q 335 302 374 302 l 307 302 l 307 169 q 308 160 307 161 q 322 152 309 159 l 354 152 l 354 130 l 194 130 l 194 152 l 230 152 q 235 156 233 156 q 237 161 237 157 q 243 169 243 161 l 243 485 q 237 491 243 487 q 230 496 237 496 l 194 498 l 194 522 q 356 522 296 522 q 430 519 415 522 q 480 498 467 513 q 511 467 502 489 q 522 420 522 446 q 511 378 522 394 q 487 352 504 361 q 473 341 481 343 q 456 335 465 339 q 415 322 437 322 q 440 315 430 320 q 457 307 450 309 q 473 294 467 298 q 483 281 480 289 q 496 256 496 269 q 504 226 504 235 m 685 313 q 622 506 685 428 q 596 535 609 520 q 531 583 567 563 q 457 615 509 606 q 377 628 420 628 q 294 615 333 628 q 222 583 252 606 q 161 535 185 567 q 93 437 111 489 q 78 400 87 417 q 69 309 69 344 q 78 233 69 274 q 94 194 87 213 q 112 150 100 176 q 157 93 124 124 l 217 44 q 254 29 235 37 q 293 15 272 20 q 419 4 367 -7 q 531 44 493 22 q 644 157 619 106 q 689 313 689 243 l 685 313 m 676 491 q 726 315 726 422 q 713 222 726 270 q 678 137 689 157 q 624 69 643 85 q 550 13 593 37 q 511 -8 533 0 q 467 -26 489 -17 q 374 -37 424 -37 q 281 -26 324 -37 q 241 -8 261 -17 q 202 13 220 0 q 165 38 183 26 q 131 69 146 50 q 78 135 102 91 q 28 313 28 207 q 102 526 28 426 q 131 561 115 544 q 165 592 146 580 q 211 622 183 604 q 287 652 239 641 q 375 665 322 665 q 467 652 428 665 q 550 615 517 641 q 624 563 591 591 q 676 491 663 515 z "},"":{"ha":843,"x_min":44,"x_max":750,"o":"m 491 141 l 633 141 l 633 307 l 491 141 m 61 294 l 120 294 q 131 298 130 294 l 131 593 l 44 576 l 44 600 l 172 641 l 194 641 l 194 307 q 204 294 194 294 l 261 294 l 261 265 l 61 265 l 61 294 m 165 0 l 569 633 l 624 633 l 226 0 l 165 0 m 685 -20 l 633 -20 l 633 100 l 443 100 l 443 141 l 644 367 l 685 367 l 685 141 l 750 141 l 750 100 l 685 100 l 685 -20 z "},"":{"ha":846,"x_min":39,"x_max":754,"o":"m 61 294 l 120 294 q 130 298 130 294 q 131 307 131 298 l 131 593 l 39 576 l 39 600 l 169 641 l 191 641 l 191 307 q 194 298 191 298 q 206 294 196 294 l 261 294 l 261 265 l 61 265 l 61 294 m 161 0 l 561 633 l 620 633 l 217 0 l 161 0 m 613 372 l 665 367 q 687 356 676 361 q 706 341 698 350 q 728 315 724 330 q 735 289 731 300 q 739 257 739 278 q 727 217 739 237 q 704 185 715 196 l 676 157 q 646 128 663 141 q 613 100 630 115 q 576 74 593 89 q 539 44 559 59 l 713 44 l 722 93 l 754 93 l 754 0 l 476 0 l 470 37 q 516 71 496 56 q 562 104 535 87 q 615 157 589 120 q 657 209 644 181 q 674 254 674 233 q 669 294 674 285 q 660 309 665 304 q 652 322 656 315 q 628 335 639 335 q 604 341 611 341 l 589 341 q 581 339 583 341 l 563 335 q 556 330 556 335 l 548 330 l 548 270 q 539 265 548 265 q 530 261 539 261 l 507 261 q 496 265 502 261 q 483 294 483 278 q 493 319 483 309 q 508 336 502 330 q 522 352 515 343 q 541 358 531 354 q 563 368 550 363 q 589 372 576 372 l 613 372 z "},"":{"ha":850,"x_min":31,"x_max":757,"o":"m 498 141 l 641 141 l 641 307 l 498 141 m 178 0 l 581 633 l 635 633 l 233 0 l 178 0 m 96 539 l 78 535 q 56 544 65 535 q 44 550 52 544 l 44 569 q 52 596 44 583 q 80 620 67 607 q 120 633 100 626 q 144 638 131 635 q 169 641 156 641 q 195 638 183 641 q 219 631 207 635 q 239 626 230 628 q 256 619 248 624 q 289 555 289 589 q 264 495 289 520 q 200 457 239 470 l 219 457 q 238 455 230 457 q 255 449 246 452 q 270 441 263 446 q 301 396 300 409 q 302 374 302 383 l 298 374 q 289 326 298 348 q 241 283 261 291 q 159 261 183 261 l 122 261 q 96 265 109 261 q 79 275 89 272 q 61 281 69 278 q 48 293 54 289 q 39 304 43 296 q 31 322 31 315 l 31 335 q 37 340 37 339 q 39 341 37 341 q 44 348 43 346 q 58 354 44 354 q 78 352 72 354 l 89 352 l 104 302 q 130 294 119 294 q 139 289 131 289 l 152 289 q 197 299 183 289 q 217 313 211 309 q 233 341 233 330 q 243 374 243 356 q 183 439 243 422 l 126 439 l 126 470 l 135 470 l 172 476 q 200 487 187 478 q 213 500 207 494 q 226 530 226 509 l 226 557 q 219 580 226 574 q 206 593 211 585 q 193 599 198 598 q 178 606 187 600 q 152 613 169 613 l 131 609 l 117 604 l 100 600 l 100 541 q 96 539 100 539 m 689 -20 l 635 -20 l 635 100 l 452 100 l 452 141 l 648 367 l 689 367 l 689 141 l 757 141 l 757 100 l 689 100 l 689 -20 z "},"":{"ha":641,"x_min":4,"x_max":604,"o":"m 196 265 l 374 265 l 287 507 l 196 265 m 391 39 l 443 44 q 452 48 446 44 l 452 61 l 391 226 l 181 226 l 120 61 l 120 56 q 126 48 120 52 l 126 46 q 130 44 126 44 l 131 44 l 183 39 l 183 0 l 4 0 l 4 39 l 56 48 l 265 624 l 335 624 l 548 65 q 549 56 548 59 q 550 52 550 54 q 558 48 556 48 q 563 44 561 48 l 604 39 l 604 0 l 391 0 l 391 39 m 161 774 l 172 791 q 181 798 178 794 q 191 806 185 802 l 226 806 q 247 789 244 796 q 256 778 250 781 q 257 757 257 770 q 256 739 257 744 q 243 723 250 733 q 226 713 235 713 q 207 706 219 706 q 191 713 196 706 q 172 722 180 713 q 168 731 170 728 q 161 739 165 733 l 161 774 m 415 806 q 439 778 439 789 q 443 763 443 770 l 443 748 q 439 739 443 743 q 431 723 439 733 q 415 713 424 713 q 400 709 411 709 l 385 709 q 378 713 381 709 q 361 722 372 713 q 356 731 359 728 q 352 739 354 733 l 346 757 l 352 778 q 378 806 359 793 l 415 806 z "},"":{"ha":641,"x_min":4,"x_max":604,"o":"m 196 265 l 374 265 l 287 507 l 196 265 m 391 39 l 443 44 q 452 48 446 44 l 452 61 l 391 226 l 181 226 l 120 61 l 120 56 q 126 48 120 52 l 126 46 q 130 44 126 44 l 131 44 l 183 39 l 183 0 l 4 0 l 4 39 l 56 48 l 265 624 l 335 624 l 548 65 q 549 56 548 59 q 550 52 550 54 q 558 48 556 48 q 563 44 561 48 l 604 39 l 604 0 l 391 0 l 391 39 m 346 741 q 367 781 367 754 q 361 806 367 800 q 350 828 359 820 q 331 840 341 835 q 315 844 322 844 l 302 844 q 278 843 287 844 q 267 835 272 837 q 256 829 261 833 q 246 809 250 824 q 237 781 237 794 q 246 761 237 769 q 249 750 248 756 q 257 741 250 744 q 267 731 261 733 q 280 726 272 730 q 298 722 287 722 l 315 722 q 326 726 322 722 q 346 741 341 731 m 404 826 q 408 803 406 813 q 411 781 411 793 q 408 759 411 769 q 404 741 406 750 q 390 723 394 731 q 378 706 385 715 q 331 677 346 680 q 296 674 315 674 q 261 685 278 674 q 227 704 235 693 q 213 723 219 715 q 200 741 207 731 q 194 774 194 756 q 200 826 194 807 q 213 844 207 833 q 226 857 219 854 q 302 889 243 889 q 346 883 328 889 q 378 857 361 876 q 390 844 385 854 q 404 826 394 833 z "},"":{"ha":583,"x_min":31,"x_max":531,"o":"m 424 -89 l 426 -117 l 424 -117 q 413 -163 424 -148 q 393 -181 402 -178 q 356 -198 383 -191 q 320 -206 330 -206 l 294 -206 q 283 -204 289 -204 l 274 -204 q 263 -196 267 -198 l 248 -194 l 248 -161 l 270 -161 q 289 -165 278 -165 l 326 -165 q 346 -161 335 -161 q 357 -149 354 -156 q 364 -139 361 -143 q 367 -123 367 -135 q 352 -106 367 -111 q 322 -96 341 -96 l 307 -96 l 302 -100 l 302 -13 q 278 -6 289 -9 q 250 0 267 -4 q 178 31 200 15 q 89 115 135 52 q 58 169 74 135 q 39 224 43 204 q 31 320 31 265 q 56 435 31 376 q 117 535 70 478 q 217 600 146 565 q 352 624 281 624 l 370 624 q 391 620 381 624 q 414 618 404 620 q 440 614 424 615 q 480 600 456 613 q 505 595 493 600 q 530 587 517 591 l 530 446 l 476 446 l 457 530 q 446 548 457 543 q 431 556 439 548 l 411 561 q 383 569 394 569 q 352 572 374 572 q 308 567 330 572 q 265 556 287 561 q 229 532 246 543 q 188 494 211 522 q 152 419 165 467 q 135 308 135 372 q 148 207 135 244 q 196 104 159 165 q 315 41 254 46 q 367 37 339 37 l 393 37 q 419 44 413 41 l 428 44 q 435 48 431 44 l 439 48 l 452 61 q 456 69 456 61 l 480 165 l 531 165 l 531 20 q 525 18 530 20 q 511 15 520 15 q 476 0 498 11 q 446 -5 459 0 q 417 -13 433 -9 q 385 -17 400 -17 l 339 -17 l 339 -61 q 352 -57 341 -57 l 361 -57 q 387 -61 378 -57 q 406 -69 400 -61 q 424 -89 417 -74 z "},"":{"ha":526,"x_min":28,"x_max":498,"o":"m 335 346 q 341 354 341 352 l 352 419 l 393 419 l 393 213 l 352 213 l 341 278 q 335 289 341 283 q 322 294 335 294 l 191 294 l 191 44 l 419 44 q 426 52 424 44 q 430 56 428 54 q 435 61 435 57 l 452 148 l 498 148 l 498 0 l 28 0 l 28 39 l 78 44 l 85 44 q 93 53 89 44 q 96 65 96 61 l 96 548 q 93 556 96 550 q 84 563 89 563 q 78 569 80 563 l 28 572 l 28 609 l 467 609 l 467 470 l 415 470 l 400 548 q 393 561 400 556 q 383 563 393 563 l 191 563 l 191 339 l 322 339 q 335 346 335 339 m 322 837 l 335 843 l 352 843 q 374 837 367 843 q 386 831 381 837 q 391 824 391 826 q 393 819 391 822 l 393 802 q 387 781 393 785 q 374 765 380 770 l 233 676 l 183 676 l 307 819 q 312 828 307 822 q 319 833 317 833 q 322 837 322 833 z "},"":{"ha":646,"x_min":24,"x_max":628,"o":"m 567 563 q 556 548 556 563 l 556 0 l 487 0 l 148 507 l 148 65 q 152 48 148 56 q 169 44 157 44 l 217 39 l 217 0 l 24 0 l 24 39 l 78 44 q 89 48 89 44 q 96 65 96 61 l 96 548 q 89 561 96 550 q 78 569 89 569 l 24 572 l 24 609 l 200 609 l 200 583 l 504 130 l 504 544 q 500 559 504 556 q 483 563 496 563 l 435 569 l 435 609 l 628 609 l 628 569 l 576 563 l 576 569 q 567 563 572 563 m 415 765 q 422 771 420 769 q 431 779 424 774 q 439 787 439 783 q 446 806 439 791 l 483 806 q 475 783 480 793 q 467 765 470 774 q 456 748 459 756 q 446 731 452 741 l 433 722 q 374 706 407 706 q 354 709 374 706 q 337 719 343 717 q 320 730 326 719 q 307 735 311 731 q 298 739 304 739 q 278 744 289 744 q 259 750 270 750 l 241 750 q 233 744 235 750 q 217 739 226 744 q 209 722 209 728 q 206 706 206 717 l 165 706 q 174 728 169 719 l 181 744 q 192 762 187 754 q 206 778 196 770 q 233 796 219 793 q 274 806 244 806 l 294 806 q 313 793 311 794 q 330 786 322 793 q 346 777 337 780 q 372 765 356 774 l 400 761 l 415 765 z "},"":{"ha":791,"x_min":209,"x_max":698,"o":"m 452 237 l 246 28 l 209 61 l 415 270 l 209 483 l 246 517 l 452 307 l 661 517 l 698 483 l 487 270 l 698 61 l 661 28 l 452 237 z "},"":{"ha":826,"x_min":181,"x_max":726,"o":"m 452 181 l 476 178 q 485 170 481 172 q 495 158 493 165 q 503 146 498 152 q 507 137 507 141 l 507 126 q 504 104 507 113 q 476 78 485 78 q 452 72 465 72 q 431 78 439 72 q 415 89 422 78 q 400 117 400 100 q 400 137 400 117 q 404 144 400 141 q 409 156 406 152 q 415 165 413 161 q 421 170 419 169 q 431 178 424 172 l 452 181 m 181 298 l 726 298 l 726 243 l 181 243 l 181 298 m 452 470 l 476 467 q 484 461 481 465 q 491 455 487 457 q 496 447 494 452 q 504 439 498 443 q 507 430 507 433 l 507 419 q 504 393 507 404 q 496 385 498 391 q 476 367 494 380 l 452 361 l 431 367 q 415 378 424 372 q 404 393 411 385 q 400 415 400 404 l 400 430 q 406 444 400 435 q 415 456 413 452 q 421 461 419 457 q 431 467 424 465 l 452 470 z "},"":{"ha":56,"x_min":0,"x_max":0,"o":""},"":{"ha":44,"x_min":0,"x_max":0,"o":""},"":{"ha":1409,"x_min":61,"x_max":1317,"o":"m 107 613 q 261 244 150 383 q 522 104 372 104 q 659 159 606 104 q 713 300 713 217 q 591 576 713 450 q 441 446 528 485 l 381 587 q 580 776 580 646 q 457 874 580 874 q 272 822 372 874 l 215 959 q 383 1002 302 1002 q 569 928 498 1002 q 641 731 641 854 q 622 639 641 687 l 646 613 q 859 724 756 724 l 872 724 q 887 719 880 724 q 1096 926 922 926 q 1317 563 1317 926 q 1248 273 1317 380 q 1063 167 1180 167 q 944 219 980 167 q 909 394 909 272 l 909 457 q 848 572 909 572 q 719 519 794 572 q 826 235 826 374 q 754 56 826 124 q 561 -11 681 -11 q 226 163 372 -11 q 61 602 87 326 l 107 613 m 928 706 q 972 596 972 681 l 972 446 q 1067 291 972 291 q 1239 450 1191 291 q 1254 556 1254 498 q 1206 733 1254 665 q 1080 802 1157 802 q 928 706 976 802 m 520 1165 q 706 1063 598 1063 q 887 1165 813 1063 l 1002 1069 q 774 948 893 948 q 478 1133 602 948 l 520 1165 m 728 1302 l 815 1211 l 728 1126 l 639 1219 l 728 1302 z "},"":{"ha":228,"x_min":11,"x_max":135,"o":"m 11 0 l 11 559 l 135 559 l 135 0 l 11 0 z "},"":{"ha":481,"x_min":11,"x_max":389,"o":"m 263 0 l 263 559 l 389 559 l 389 0 l 263 0 m 11 0 l 11 559 l 135 559 l 135 0 l 11 0 z "},"":{"ha":507,"x_min":11,"x_max":415,"o":"m 415 580 q 362 546 415 546 q 266 529 309 546 q 191 481 222 511 q 126 317 126 419 q 189 143 126 217 q 361 63 256 67 q 386 58 372 63 q 402 30 400 54 q 386 3 400 7 q 352 -2 372 -2 q 103 77 194 -4 q 11 297 11 157 q 105 525 11 437 q 341 609 198 613 q 415 580 415 606 z "},"":{"ha":763,"x_min":2,"x_max":670,"o":"m 574 84 q 552 64 574 84 q 470 23 530 44 q 340 2 411 2 q 206 23 269 2 q 100 85 144 44 q 2 309 2 172 q 98 537 2 444 q 330 624 189 624 q 563 537 463 624 q 641 437 611 496 q 670 307 670 378 q 644 181 670 237 q 574 84 619 124 m 333 576 q 246 561 289 576 q 167 519 204 546 q 83 372 83 457 q 152 193 83 265 q 330 120 222 120 q 507 193 441 120 q 572 372 572 265 q 496 522 572 461 q 333 576 431 576 z "},"":{"ha":369,"x_min":0,"x_max":276,"o":"m 137 372 q 109 372 137 372 q 41 407 81 372 q 0 495 0 443 q 34 588 0 548 q 131 628 69 628 q 235 589 194 628 q 276 494 276 550 q 233 407 276 448 q 137 372 193 372 m 272 132 q 272 105 272 132 q 233 39 272 78 q 139 0 194 0 q 42 33 83 0 q 0 135 0 67 q 85 246 0 209 q 135 257 109 257 q 231 222 191 257 q 272 132 272 187 m 222 495 q 222 512 222 495 q 194 547 222 528 q 131 567 167 567 q 72 547 94 567 q 50 496 50 528 q 77 441 50 465 q 135 417 104 417 q 194 440 167 417 q 222 495 222 463 m 135 209 q 77 188 104 209 q 50 135 50 167 q 72 85 50 104 q 133 67 94 67 q 196 86 172 67 q 220 137 220 106 q 194 189 220 169 q 135 209 167 209 z "},"":{"ha":1000,"x_min":-2,"x_max":907,"o":"m 620 335 q 546 478 546 376 q 596 589 546 548 q 697 624 641 624 q 794 603 754 624 q 859 544 833 581 q 907 367 907 474 q 869 189 907 259 q 767 78 831 119 q 441 -2 641 -2 q 141 78 263 -2 q -2 337 -2 170 q 70 539 -2 450 q 261 624 141 624 q 409 552 361 624 q 424 498 424 530 q 382 403 424 439 q 281 367 341 367 q 154 433 194 367 q 141 481 141 454 q 163 550 141 509 q 69 393 65 494 q 204 176 69 250 q 470 120 307 120 q 724 181 617 120 q 854 393 854 254 q 819 496 854 450 q 730 546 783 546 q 633 441 633 546 q 653 367 633 393 q 685 328 672 341 l 685 281 l 272 281 q 233 308 233 281 q 270 335 233 335 l 620 335 m 248 581 q 206 544 226 572 q 187 484 187 517 q 217 435 187 452 q 279 419 246 419 q 331 444 311 419 q 350 496 352 470 q 248 581 341 563 z "},"":{"ha":1017,"x_min":-2,"x_max":924,"o":"m 265 278 q 243 306 243 278 q 269 333 243 333 l 667 333 q 707 340 691 333 q 741 352 724 346 q 635 397 676 363 q 594 485 594 431 q 641 583 594 539 q 769 628 687 628 q 878 585 831 628 q 924 483 924 543 q 903 419 924 450 q 857 376 881 387 q 902 324 893 348 q 915 265 911 300 q 783 63 915 135 q 457 -2 665 -2 q 157 72 281 -2 q 44 180 89 113 q -2 346 -2 246 q 72 544 -2 463 q 263 624 146 624 q 415 552 370 624 q 430 498 430 528 q 422 446 430 469 q 396 404 415 424 q 270 361 352 361 q 200 383 231 361 q 143 481 143 424 q 155 530 143 509 q 167 554 167 550 q 89 468 115 511 q 63 356 63 424 q 102 243 63 289 q 200 170 141 196 q 457 120 306 120 q 704 156 591 120 q 828 261 828 194 q 821 307 828 294 q 802 335 815 320 q 747 299 781 320 q 667 278 713 278 l 265 278 m 869 481 q 869 499 869 481 q 839 544 869 517 q 764 572 809 572 q 697 545 719 572 q 676 488 676 519 q 690 442 676 457 q 721 415 704 426 q 758 398 739 404 q 789 389 778 393 q 844 419 819 393 q 869 481 869 444 m 269 424 q 346 502 346 424 q 322 557 346 531 q 248 572 298 583 q 208 540 222 563 q 196 491 194 517 q 218 444 198 465 q 269 424 237 424 z "},"":{"ha":856,"x_min":-2,"x_max":763,"o":"m 356 515 q 533 624 383 624 q 700 541 643 624 q 746 394 746 478 q 714 248 746 309 q 650 161 681 187 q 756 11 743 69 q 739 -26 763 -15 q 663 22 702 -50 q 634 80 646 50 q 613 124 622 109 q 393 11 546 48 q 318 0 352 0 q 238 11 283 0 q 152 44 193 22 q 54 178 54 94 q 148 300 54 257 q 322 330 217 330 q 548 259 454 330 q 587 224 574 239 q 650 285 620 244 q 680 386 680 326 q 640 490 680 446 q 535 533 600 533 q 426 502 470 533 q 377 443 381 470 q 355 415 372 415 q 337 435 337 415 q 325 472 337 456 q 293 504 313 489 q 196 531 254 531 q 65 443 83 531 q 63 426 63 435 q 30 387 63 387 q 12 401 22 387 q 0 448 2 415 q 13 515 -2 481 q 52 570 28 548 q 172 624 109 624 q 293 597 248 628 q 356 515 337 567 m 319 291 q 279 291 319 291 q 187 261 239 291 q 135 187 135 231 q 184 135 135 163 q 319 108 233 107 q 451 131 404 109 q 550 193 498 152 q 489 243 537 217 q 319 291 398 291 z "},"":{"ha":1200,"x_min":-2,"x_max":1107,"o":"m 437 580 q 332 627 391 593 q 247 684 274 661 q 220 730 220 707 q 240 770 220 752 q 284 789 259 789 q 330 774 309 789 q 441 624 354 746 q 750 935 594 767 q 769 941 757 941 q 825 912 796 941 q 854 863 854 883 q 846 833 854 843 l 437 580 m 683 84 q 661 64 683 84 q 579 23 639 44 q 449 2 519 2 q 319 23 380 2 q 211 85 257 44 q 111 309 111 174 q 211 537 111 444 q 439 624 304 624 q 670 537 574 624 q 749 437 719 496 q 780 307 780 378 q 754 181 780 237 q 683 84 728 124 m 443 576 q 356 561 400 576 q 278 519 313 546 q 194 372 194 456 q 263 193 194 265 q 441 120 333 120 q 615 193 546 120 q 680 372 680 261 q 606 522 680 463 q 443 576 541 576 m 52 428 l 1002 424 q 1030 482 1028 456 q 1021 521 1031 509 q 983 533 1011 533 q 906 487 924 533 q 881 467 896 469 q 856 507 856 467 q 894 580 856 548 q 982 611 933 611 q 1067 583 1031 611 q 1102 501 1102 556 q 1044 402 1102 446 q 1107 289 1107 341 q 1067 207 1107 244 q 976 170 1026 170 q 863 276 863 170 q 913 361 863 322 l 48 363 q -2 393 -2 363 q 52 428 -2 428 m 1043 282 q 1043 296 1043 282 q 1026 335 1043 309 q 994 361 1009 361 q 965 351 978 361 q 941 326 952 341 q 915 276 915 291 q 976 219 915 219 q 1023 237 1004 219 q 1043 282 1043 256 z "},"":{"ha":994,"x_min":2,"x_max":902,"o":"m 417 626 q 404 759 413 681 q 414 809 404 794 q 453 824 424 824 q 492 803 481 824 q 498 759 502 781 l 476 624 q 578 611 519 624 q 681 563 637 598 q 689 551 689 559 q 680 531 689 543 q 663 524 670 520 q 454 580 574 580 q 226 498 307 580 l 857 498 q 902 469 902 498 q 857 441 902 441 l 172 439 q 135 322 146 409 q 167 187 131 254 q 279 109 207 109 q 385 144 350 109 q 431 215 420 178 q 450 252 441 252 q 467 224 463 252 q 535 137 487 165 q 631 109 583 109 q 710 121 680 109 q 765 156 741 133 q 820 256 813 198 q 774 212 807 230 q 709 194 741 194 q 656 199 678 193 q 619 220 635 206 q 581 303 581 254 q 622 378 581 352 q 703 404 663 404 q 770 389 743 404 q 819 352 798 374 q 865 235 865 302 q 796 62 865 124 q 613 0 728 0 q 519 24 567 0 q 452 91 472 48 q 369 24 424 48 q 258 0 313 0 q 165 19 204 0 q 100 70 126 37 q 48 242 44 135 q 109 441 52 348 l 43 441 q 2 467 2 441 q 46 498 2 498 l 148 498 q 241 572 183 543 q 417 626 344 626 m 807 294 q 778 341 802 322 q 724 359 754 359 q 674 337 694 359 q 654 291 654 315 q 722 243 654 243 q 765 256 737 243 q 807 294 793 270 z "},"":{"ha":1244,"x_min":0,"x_max":1152,"o":"m 1112 272 q 1092 254 1112 272 q 1026 235 1072 235 q 943 266 980 235 q 903 336 906 296 q 919 402 900 376 q 959 439 939 428 l 172 439 q 141 257 120 359 q 211 131 157 174 q 294 109 239 109 q 385 144 350 109 q 431 215 420 178 q 450 252 441 252 q 467 224 463 252 q 535 137 487 165 q 631 109 583 109 q 710 121 680 109 q 765 156 741 133 q 820 256 813 198 q 774 212 807 230 q 700 194 741 194 q 619 219 656 191 q 581 298 581 248 q 622 376 581 348 q 703 404 663 404 q 770 389 743 404 q 819 352 798 374 q 865 235 865 302 q 798 62 865 124 q 619 0 731 0 q 529 23 580 0 q 452 93 478 46 q 369 25 424 50 q 258 0 313 0 q 166 19 204 0 q 102 70 128 37 q 48 244 48 137 q 104 439 48 352 l 50 439 q 0 466 0 439 q 56 493 0 493 l 144 493 q 354 613 230 587 q 333 688 346 643 q 317 750 320 733 q 311 776 313 767 q 319 805 309 785 q 361 824 330 824 q 405 811 393 824 q 417 779 417 798 q 415 739 417 759 q 409 695 413 719 q 403 650 406 672 q 398 622 400 628 q 426 624 413 624 l 489 624 q 481 737 483 702 l 480 770 q 530 824 480 824 q 581 769 591 824 q 574 749 580 765 q 559 711 569 733 q 528 622 541 669 q 681 563 615 615 q 689 551 689 559 q 680 531 689 543 q 663 524 670 520 q 454 580 574 580 q 328 556 391 580 q 219 493 265 533 l 1044 493 q 1081 531 1074 519 q 1087 556 1087 543 q 1024 611 1087 611 q 957 563 976 611 q 924 537 941 537 q 903 575 898 537 q 940 644 907 613 q 1030 676 972 676 q 1118 645 1087 676 q 1148 574 1148 615 q 1129 503 1148 533 q 1093 465 1109 472 q 1152 362 1152 415 q 1112 272 1152 309 m 1087 352 q 1062 406 1087 389 q 1009 417 1037 424 q 959 346 959 398 q 1019 287 959 287 q 1087 352 1087 287 m 807 294 q 778 341 802 322 q 724 359 754 359 q 674 340 694 359 q 654 291 654 320 q 722 243 654 243 q 765 256 737 243 q 807 294 793 270 z "},"":{"ha":1767,"x_min":0,"x_max":1674,"o":"m 1615 91 q 1541 25 1585 50 q 1449 0 1496 0 q 1366 13 1402 0 q 1300 48 1330 26 q 1219 170 1231 106 q 1133 48 1198 102 q 1002 0 1072 0 q 811 106 893 0 q 767 200 781 144 q 746 274 752 256 q 763 297 756 287 q 776 317 770 307 q 785 330 781 326 l 802 281 q 991 109 865 109 q 1130 174 1081 109 q 1172 306 1172 231 q 1151 430 1172 381 q 1093 504 1130 478 q 920 550 1030 550 q 865 587 865 550 q 886 616 865 607 q 928 624 907 624 q 1150 528 1061 624 q 1233 298 1233 437 q 1311 159 1248 217 q 1433 109 1369 109 q 1563 185 1509 109 q 1611 333 1611 256 q 1541 489 1611 426 q 1369 550 1472 550 q 1309 585 1309 550 q 1322 615 1309 606 q 1369 624 1335 624 q 1594 526 1509 628 q 1674 287 1674 428 q 1615 91 1674 176 m 467 585 q 533 624 467 624 q 652 591 600 624 q 737 507 704 557 q 802 281 802 407 q 744 93 802 178 q 581 0 681 0 q 391 109 463 0 q 318 32 361 65 q 219 0 274 0 q 126 13 163 0 q 59 52 89 26 q 0 185 0 106 q 152 356 0 304 q 235 381 194 369 q 320 456 320 406 q 286 524 320 498 q 196 550 252 550 q 101 517 141 550 q 61 430 61 483 q 39 404 61 404 q 0 456 0 404 q 63 578 0 526 q 194 624 119 624 q 315 581 263 624 q 374 470 374 533 q 338 381 374 407 q 246 341 302 356 q 204 327 235 337 q 141 302 172 317 q 63 222 63 263 q 103 134 63 159 q 207 109 143 109 q 372 244 333 109 q 394 265 376 265 q 415 246 413 265 q 580 109 443 109 q 707 193 661 109 q 741 354 744 257 q 676 493 737 435 q 528 550 615 550 q 467 585 467 550 z "},"":{"ha":1094,"x_min":13,"x_max":1002,"o":"m 78 463 q 48 426 78 426 q 17 481 24 426 q 70 611 13 552 q 191 663 117 659 q 372 550 326 670 q 431 634 385 604 q 543 665 476 665 q 649 644 609 665 q 711 591 689 624 q 744 439 756 522 q 656 285 735 346 q 587 242 624 261 q 519 199 550 222 q 468 144 489 176 q 446 69 446 113 q 470 -6 446 26 q 528 -59 494 -37 q 668 -104 598 -104 q 787 -80 737 -104 q 872 -15 837 -56 q 939 196 939 63 q 896 374 939 285 q 820 489 876 420 q 796 538 794 517 q 815 570 798 559 q 856 576 831 581 q 900 543 881 570 q 984 365 967 452 q 1002 195 1002 278 q 982 37 1002 113 q 922 -96 963 -39 q 670 -224 837 -224 q 472 -156 556 -224 q 376 69 376 -76 q 397 162 376 126 q 451 227 419 198 q 521 276 483 256 q 593 319 559 296 q 651 368 626 341 q 680 437 676 394 q 654 534 689 496 q 554 572 619 572 q 444 542 489 572 q 391 476 400 511 q 372 452 389 452 q 352 472 352 452 q 341 510 352 493 q 309 541 330 528 q 213 572 259 572 q 80 481 100 572 q 78 463 78 472 z "},"":{"ha":839,"x_min":0,"x_max":746,"o":"m 696 130 q 681 103 696 130 q 619 38 667 76 q 511 0 572 0 q 335 87 389 0 q 169 0 283 0 q 50 48 104 0 q 0 160 0 91 q 45 280 0 230 q 169 330 91 330 q 289 289 243 330 q 337 198 330 250 q 491 109 394 109 q 637 189 581 109 q 687 381 687 261 q 567 644 687 544 q 246 743 446 743 q 194 746 220 743 q 169 780 169 750 q 246 824 169 824 q 461 787 367 824 q 618 687 556 750 q 713 540 680 624 q 746 383 746 456 q 736 247 746 311 q 696 130 726 183 m 219 281 q 161 291 198 291 q 99 258 124 291 q 74 194 74 226 q 103 135 74 161 q 178 109 131 109 q 250 135 224 109 q 276 196 276 161 q 219 281 276 256 z "},"":{"ha":839,"x_min":0,"x_max":746,"o":"m 696 130 q 681 103 696 130 q 619 38 667 76 q 511 0 572 0 q 335 87 389 0 q 169 0 283 0 q 50 48 104 0 q 0 160 0 91 q 45 280 0 230 q 169 330 91 330 q 289 289 243 330 q 337 198 330 250 q 491 109 394 109 q 637 189 581 109 q 687 381 687 261 q 567 644 687 544 q 246 743 446 743 q 194 746 220 743 q 169 780 169 750 q 246 824 169 824 q 461 787 367 824 q 618 687 556 750 q 713 540 680 624 q 746 383 746 456 q 736 247 746 311 q 696 130 726 183 m 219 281 q 161 291 198 291 q 99 258 124 291 q 74 194 74 226 q 103 135 74 161 q 178 109 131 109 q 250 135 224 109 q 276 196 276 161 q 219 281 276 256 m 269 928 q 254 895 270 913 q 201 878 237 878 q 137 852 165 878 q 109 789 109 826 q 120 731 109 752 q 143 696 131 711 q 162 674 154 681 q 161 656 170 667 q 134 651 152 646 q 96 674 117 656 q 52 784 52 715 q 90 908 52 854 q 204 970 128 963 q 269 928 261 970 z "},"":{"ha":874,"x_min":0,"x_max":781,"o":"m 378 530 q 556 624 415 624 q 733 522 670 624 q 781 339 781 444 q 648 28 781 107 q 533 -2 598 -2 q 411 26 469 -2 q 320 109 354 54 q 263 30 300 61 q 183 -2 226 -2 q 109 9 141 -2 q 52 41 78 20 q 0 152 0 83 q 46 261 0 220 q 161 302 93 302 q 263 274 230 302 q 320 204 296 246 q 409 131 363 152 q 514 109 456 109 q 609 128 572 109 q 672 178 646 146 q 724 337 724 241 q 674 470 724 415 q 552 533 622 533 q 441 502 481 533 q 400 438 400 470 q 376 406 400 406 q 357 415 367 406 q 348 444 348 424 q 304 509 348 485 q 215 533 259 533 q 145 522 170 533 q 102 494 120 511 q 61 413 61 457 q 49 383 61 391 q 29 376 37 376 q 10 390 20 376 q 0 428 0 404 q 54 569 0 515 q 182 624 107 624 q 306 598 257 624 q 378 530 356 572 m 261 183 q 232 238 257 215 q 169 261 207 261 q 103 239 130 261 q 76 179 76 217 q 103 125 76 141 q 157 109 130 109 q 261 183 261 109 z "},"":{"ha":820,"x_min":-2,"x_max":728,"o":"m 561 296 q 600 322 561 322 q 695 279 663 322 q 728 192 728 235 q 715 114 728 148 q 678 56 702 80 q 539 0 626 0 q 383 96 430 0 q 215 0 320 0 q 19 107 70 0 q 0 200 0 143 q 41 298 0 257 q 141 352 69 324 q 183 366 152 359 q 246 383 215 372 q 330 459 330 413 q 290 518 330 502 q 195 533 250 533 q 107 513 141 533 q 65 468 74 493 q 49 428 56 443 q 26 416 43 413 q 4 432 9 419 q 2 478 -2 446 q 69 587 11 550 q 200 624 128 624 q 320 579 272 624 q 369 465 369 533 q 222 319 369 359 q 151 299 183 309 q 98 266 119 289 q 78 217 78 243 q 90 172 78 191 q 122 141 102 154 q 218 111 165 111 q 303 136 270 111 q 348 195 335 161 q 367 244 361 230 q 385 257 372 257 q 401 244 398 257 q 420 193 404 230 q 535 111 459 111 q 638 137 611 111 q 665 194 665 163 q 647 244 665 224 q 595 263 630 263 q 561 296 561 263 z "},"":{"ha":820,"x_min":-2,"x_max":728,"o":"m 561 296 q 600 322 561 322 q 695 279 663 322 q 728 192 728 235 q 715 114 728 148 q 678 56 702 80 q 539 0 626 0 q 383 96 430 0 q 215 0 320 0 q 19 107 70 0 q 0 200 0 143 q 41 298 0 257 q 141 352 69 324 q 183 366 152 359 q 246 383 215 372 q 330 459 330 413 q 290 518 330 502 q 195 533 250 533 q 107 513 141 533 q 65 468 74 493 q 49 428 56 443 q 26 416 43 413 q 4 432 9 419 q 2 478 -2 446 q 69 587 11 550 q 200 624 128 624 q 320 579 272 624 q 369 465 369 533 q 222 319 369 359 q 151 299 183 309 q 98 266 119 289 q 78 217 78 243 q 90 172 78 191 q 122 141 102 154 q 218 111 165 111 q 303 136 270 111 q 348 195 335 161 q 367 244 361 230 q 385 257 372 257 q 401 244 398 257 q 420 193 404 230 q 535 111 459 111 q 638 137 611 111 q 665 194 665 163 q 647 244 665 224 q 595 263 630 263 q 561 296 561 263 m 354 674 q 317 670 350 670 q 244 757 311 757 q 192 738 211 757 q 178 678 172 719 q 194 643 178 663 l 207 622 l 204 622 q 193 620 200 620 l 172 620 q 137 658 157 628 q 117 715 117 689 q 150 793 117 767 q 235 819 183 819 q 346 741 320 819 q 354 674 356 713 z "},"":{"ha":839,"x_min":-2,"x_max":746,"o":"m 561 296 q 600 322 561 322 q 695 279 663 322 q 728 192 728 235 q 715 114 728 148 q 678 56 702 80 q 539 0 626 0 q 383 96 430 0 q 215 0 320 0 q 19 107 70 0 q 0 200 0 143 q 41 298 0 257 q 141 352 69 324 q 183 366 152 359 q 246 383 215 372 q 330 459 330 413 q 290 518 330 502 q 195 533 250 533 q 107 513 141 533 q 65 468 74 493 q 49 428 56 443 q 26 416 43 413 q 4 432 9 419 q 2 478 -2 446 q 69 587 11 550 q 200 624 128 624 q 320 579 272 624 q 369 465 369 533 q 222 319 369 359 q 151 299 183 309 q 98 266 119 289 q 78 217 78 243 q 90 172 78 191 q 122 141 102 154 q 218 111 165 111 q 303 136 270 111 q 348 195 335 161 q 367 244 361 230 q 385 257 372 257 q 401 244 398 257 q 420 193 404 230 q 535 111 459 111 q 638 137 611 111 q 665 194 665 163 q 647 244 665 224 q 595 263 630 263 q 561 296 561 263 m 365 698 q 378 656 378 681 q 248 576 378 576 l 56 576 q 28 604 28 576 q 52 624 28 624 l 276 624 q 322 667 322 624 q 302 690 322 685 q 274 694 281 694 l 56 694 q -2 737 -2 694 q 19 777 -2 770 q 59 783 41 783 l 581 783 q 696 751 646 783 q 746 659 746 719 q 626 533 746 533 q 540 565 570 533 q 509 635 509 596 q 530 698 509 674 l 365 698 m 680 637 q 661 681 680 665 q 619 698 643 698 q 578 679 594 698 q 561 636 561 659 q 580 594 561 613 q 628 578 598 574 q 680 637 680 581 z "},"":{"ha":685,"x_min":0,"x_max":698,"o":"m 398 657 q 325 613 361 635 q 272 583 289 591 q 167 628 215 606 q 65 728 65 674 q 84 770 65 752 q 129 789 104 789 q 172 774 154 789 q 210 720 183 759 q 285 624 237 681 q 327 662 302 637 q 385 719 352 687 q 470 806 419 754 q 594 935 522 859 q 613 941 602 941 q 661 919 643 941 q 698 856 698 876 q 691 833 698 843 l 398 657 m 491 52 q 469 39 491 52 q 394 13 446 26 q 285 0 341 0 q 175 18 230 0 q 81 63 120 35 q 0 219 0 124 l 63 219 q 200 119 63 152 q 291 109 243 109 q 446 141 389 109 q 504 215 504 172 q 466 276 504 257 q 372 302 428 294 q 251 313 317 309 q 131 329 185 317 q 38 369 76 341 q 0 448 0 398 q 27 530 0 498 q 94 583 54 561 q 287 624 169 624 q 404 607 346 624 q 554 519 511 578 q 562 496 561 509 q 550 476 563 483 q 526 471 541 467 q 506 481 511 476 q 289 550 441 550 q 87 496 152 550 q 63 442 63 478 q 102 389 63 406 q 200 366 141 372 q 327 356 259 359 q 455 339 394 352 q 554 295 515 326 q 593 210 593 265 q 564 117 593 156 q 491 52 535 78 z "},"":{"ha":920,"x_min":0,"x_max":828,"o":"m 443 -61 q 389 -133 452 -133 q 330 -67 322 -133 q 351 -7 333 -41 q 389 67 369 26 q 443 -61 435 -26 m 187 294 q 376 217 287 294 q 424 344 424 285 q 407 443 424 402 q 359 513 391 483 q 198 580 291 580 q 128 563 165 580 q 270 450 270 559 q 232 361 270 393 q 137 330 194 330 q 40 361 80 330 q 0 450 0 393 q 62 577 0 530 q 197 624 124 624 q 319 603 270 624 q 406 544 369 581 q 483 348 483 467 q 473 267 483 320 q 437 172 463 213 q 507 131 470 152 q 592 109 544 109 q 674 133 639 109 q 730 193 709 157 q 770 348 770 261 q 704 498 770 441 q 556 550 644 550 q 512 561 530 550 q 494 587 494 572 q 555 624 494 624 q 666 595 615 624 q 752 519 717 567 q 828 298 828 422 q 696 26 828 96 q 587 0 652 0 q 391 104 472 0 q 181 0 283 0 q 15 81 61 0 q 0 144 0 109 q 187 294 0 294 m 131 511 q 61 450 61 511 q 81 397 61 415 q 133 380 102 380 q 181 399 165 380 q 198 445 198 419 q 183 492 198 472 q 131 511 169 511 m 339 167 q 317 188 330 172 q 285 219 304 204 q 189 256 239 256 q 101 236 139 256 q 63 184 63 217 q 98 131 63 152 q 185 109 133 109 q 339 167 272 109 z "},"":{"ha":756,"x_min":0,"x_max":752,"o":"m 454 657 q 381 613 417 635 q 326 583 346 591 l 222 628 q 120 728 120 672 q 140 770 120 752 q 184 789 159 789 q 230 774 209 789 q 339 624 239 754 q 381 662 359 637 q 441 719 404 687 q 648 935 502 772 q 668 941 656 941 q 695 933 680 941 q 724 911 711 926 q 752 856 752 881 q 746 833 752 843 l 454 657 m 587 485 q 640 348 624 424 q 656 226 656 272 q 650 144 656 180 q 633 72 644 107 q 603 12 622 37 q 550 -8 583 -13 q 499 17 517 -4 q 504 78 481 37 q 548 330 548 167 q 491 494 548 419 q 341 580 426 580 q 234 551 281 580 q 157 478 187 522 q 94 270 94 383 q 128 143 94 215 q 163 44 161 72 q 115 -6 167 9 q 24 63 56 -22 q 0 197 0 126 q 19 346 0 269 q 81 485 39 424 q 339 624 178 624 q 587 485 506 624 z "},"":{"ha":1330,"x_min":0,"x_max":1237,"o":"m 377 -63 q 379 -77 377 -63 q 369 -112 381 -91 q 322 -133 356 -133 q 265 -67 256 -133 q 285 -7 269 -41 l 322 67 q 357 -6 343 22 q 377 -63 372 -35 m 333 657 q 207 583 231 593 q 102 628 152 606 q 0 728 0 674 q 19 770 0 752 q 64 789 39 789 q 109 774 89 789 q 146 720 120 759 q 220 624 172 681 q 262 662 237 637 q 320 719 287 687 q 406 806 354 754 q 530 935 459 859 q 548 941 537 941 q 605 912 576 941 q 633 863 633 883 q 626 833 633 843 l 333 657 m 1141 533 q 1163 512 1141 533 q 1211 431 1185 491 q 1237 309 1237 372 q 1221 193 1237 246 q 1174 96 1206 139 q 983 0 1102 0 q 837 48 907 0 q 722 230 730 124 q 715 289 719 265 q 732 297 719 294 q 754 309 746 300 q 819 178 767 233 q 974 109 880 109 q 1119 177 1069 109 q 1170 341 1170 244 q 1096 493 1170 435 q 919 550 1024 550 q 875 561 889 550 q 861 590 861 572 q 873 616 861 607 q 933 624 885 624 q 1039 600 981 624 q 1141 533 1096 576 m 467 550 q 406 583 406 550 q 419 613 406 602 q 457 624 433 624 q 681 519 604 624 q 754 289 754 420 q 693 91 754 170 q 508 0 622 0 q 322 100 394 0 q 163 0 270 0 q 47 44 94 0 q 0 161 0 87 q 44 278 0 235 q 165 320 89 320 q 293 270 237 320 q 339 209 322 244 q 412 141 372 172 q 501 109 452 109 q 585 131 550 109 q 643 185 620 152 q 687 342 687 252 q 630 491 687 431 q 467 550 572 550 m 165 276 q 92 250 119 276 q 64 190 65 224 q 94 132 63 156 q 165 109 124 109 q 237 143 206 109 q 269 217 269 176 q 193 270 248 250 q 165 276 176 276 z "},"":{"ha":820,"x_min":-2,"x_max":728,"o":"m 348 424 q 355 476 348 463 q 361 494 361 489 l 491 494 q 463 558 474 524 q 452 598 452 593 q 502 663 452 663 q 556 602 567 663 q 519 494 550 567 l 622 494 q 648 459 648 494 q 622 424 648 424 l 348 424 m 561 296 q 600 322 561 322 q 695 279 663 322 q 728 192 728 235 q 715 114 728 148 q 678 56 702 80 q 539 0 626 0 q 383 96 430 0 q 215 0 320 0 q 19 107 70 0 q 0 200 0 143 q 36 293 0 257 q 141 352 72 328 q 181 366 152 359 q 237 385 209 372 q 309 459 309 417 q 279 513 309 493 q 200 533 248 533 q 113 513 152 533 q 65 468 74 493 q 49 428 56 443 q 26 416 43 413 q 4 432 9 419 q 2 478 -2 446 q 69 587 11 550 q 200 624 128 624 q 320 579 272 624 q 369 465 369 533 q 222 319 369 359 q 151 299 183 309 q 98 266 119 289 q 78 217 78 243 q 90 172 78 191 q 122 141 102 154 q 218 111 165 111 q 303 136 270 111 q 348 195 335 161 q 367 244 361 230 q 385 257 372 257 q 401 244 398 257 q 420 193 404 230 q 535 111 459 111 q 638 137 611 111 q 665 194 665 163 q 647 244 665 224 q 595 263 630 263 q 561 296 561 263 z "},"":{"ha":967,"x_min":0,"x_max":878,"o":"m 815 835 q 664 744 694 765 q 619 711 633 722 q 524 654 600 698 q 456 606 489 630 q 406 576 424 583 q 348 603 380 587 q 289 630 317 619 q 187 730 187 676 q 201 767 187 752 q 233 787 215 781 q 298 776 276 802 q 407 624 326 731 q 452 663 426 639 l 509 722 q 719 937 611 822 q 738 944 726 944 q 765 936 750 944 q 793 915 780 928 q 820 863 820 881 q 815 835 820 844 m 389 609 q 431 626 389 626 q 746 536 628 626 q 872 300 865 446 q 824 98 876 183 q 663 0 765 0 q 540 30 581 0 q 478 106 498 59 q 309 0 415 0 q 159 70 215 0 q 113 194 113 130 q 138 304 113 259 q 231 389 163 348 q 126 361 176 370 q 59 352 76 352 q 21 369 43 352 q 0 415 0 385 q 21 462 0 444 q 69 480 43 480 l 307 456 l 307 404 q 228 327 256 367 q 200 226 200 287 q 231 148 200 187 q 312 109 265 109 q 403 141 359 109 q 454 239 446 172 q 480 269 456 269 q 495 263 487 269 q 504 239 504 257 q 543 146 504 183 q 639 109 581 109 q 755 172 719 109 q 781 333 791 235 q 676 515 774 437 q 454 580 589 583 l 406 576 q 389 609 389 585 z "},"":{"ha":967,"x_min":0,"x_max":878,"o":"m 530 -63 q 522 -114 535 -93 q 474 -135 509 -135 q 427 -118 439 -135 q 418 -71 415 -100 q 438 -8 420 -43 q 476 65 456 26 q 530 -63 522 -35 m 815 835 q 664 744 694 765 q 619 711 633 722 q 524 654 600 698 q 456 606 489 630 q 406 576 424 583 q 348 603 380 587 q 289 630 317 619 q 187 730 187 676 q 201 767 187 752 q 233 787 215 781 q 298 776 276 802 q 407 624 326 731 q 452 663 426 639 l 509 722 q 719 937 611 822 q 738 944 726 944 q 765 936 750 944 q 793 915 780 928 q 820 863 820 881 q 815 835 820 844 m 389 609 q 431 626 389 626 q 746 536 628 626 q 872 300 865 446 q 824 98 876 183 q 663 0 765 0 q 540 30 581 0 q 478 106 498 59 q 309 0 415 0 q 159 70 215 0 q 113 194 113 130 q 138 304 113 259 q 231 389 163 348 q 126 361 176 370 q 59 352 76 352 q 21 369 43 352 q 0 415 0 385 q 21 462 0 444 q 69 480 43 480 l 307 456 l 307 404 q 228 327 256 367 q 200 226 200 287 q 231 148 200 187 q 312 109 265 109 q 403 141 359 109 q 454 239 446 172 q 480 269 456 269 q 495 263 487 269 q 504 239 504 257 q 543 146 504 183 q 639 109 581 109 q 755 172 719 109 q 781 333 791 235 q 676 515 774 437 q 454 580 589 583 l 406 576 q 389 609 389 585 z "},"":{"ha":820,"x_min":-2,"x_max":728,"o":"m 561 296 q 600 322 561 322 q 695 279 663 322 q 728 192 728 235 q 715 114 728 148 q 678 56 702 80 q 539 0 626 0 q 383 96 430 0 q 215 0 320 0 q 19 107 70 0 q 0 200 0 143 q 36 293 0 257 q 141 352 72 328 q 181 366 152 359 q 237 385 209 372 q 309 459 309 417 q 279 513 309 493 q 200 533 248 533 q 113 513 152 533 q 65 468 74 493 q 49 428 56 443 q 26 416 43 413 q 4 432 9 419 q 2 478 -2 446 q 69 587 11 550 q 200 624 128 624 q 320 579 272 624 q 369 465 369 533 q 222 319 369 359 q 151 299 183 309 q 98 266 119 289 q 78 217 78 243 q 90 172 78 191 q 122 141 102 154 q 218 111 165 111 q 303 136 270 111 q 348 195 335 161 q 367 244 361 230 q 385 257 372 257 q 401 244 398 257 q 420 193 404 230 q 535 111 459 111 q 638 137 611 111 q 665 194 665 163 q 647 244 665 224 q 595 263 630 263 q 561 296 561 263 m 478 585 q 524 624 478 624 q 657 592 602 624 q 713 492 713 559 q 667 392 713 424 q 544 359 620 359 q 383 417 457 359 q 363 437 367 430 q 332 492 341 456 q 313 550 324 528 q 323 555 317 548 q 335 561 330 561 q 350 544 341 561 q 381 506 359 528 q 430 465 404 483 q 531 428 481 428 q 639 491 639 428 q 610 539 639 528 q 539 550 581 550 q 487 561 496 550 q 478 585 478 572 z "},"":{"ha":1648,"x_min":0,"x_max":1556,"o":"m 1093 -135 q 1045 -118 1057 -135 q 1037 -71 1033 -100 q 1058 -8 1041 -43 q 1094 65 1076 26 q 1148 -60 1141 -28 q 1142 -114 1156 -93 q 1093 -135 1128 -135 m 802 550 q 746 587 746 550 q 812 624 746 624 q 934 598 878 624 q 1030 528 991 572 q 1117 298 1117 431 q 1193 159 1128 217 q 1315 109 1252 109 q 1444 185 1391 109 q 1494 333 1494 257 q 1422 489 1494 422 q 1248 550 1354 550 q 1191 585 1191 550 q 1204 615 1191 606 q 1250 624 1217 624 q 1474 526 1389 628 q 1556 287 1556 426 q 1494 91 1556 174 q 1320 0 1428 0 q 1130 102 1206 0 q 1096 170 1107 131 q 1015 48 1078 98 q 883 0 952 0 q 693 106 770 0 q 648 201 663 146 q 626 274 633 256 q 641 292 630 274 q 658 318 652 309 q 667 330 665 326 l 681 281 q 870 109 752 109 q 1011 174 959 109 q 1054 306 1054 230 q 1032 430 1054 381 q 974 504 1011 478 q 802 550 911 550 m 326 580 q 219 628 276 594 q 136 684 163 661 q 109 730 109 707 q 129 770 109 752 q 173 789 148 789 q 219 774 198 789 q 330 624 235 757 q 639 935 483 767 q 657 941 646 941 q 714 912 687 941 q 741 863 741 883 q 737 833 741 843 l 326 580 m 574 84 q 552 64 574 84 q 469 23 530 44 q 338 2 407 2 q 206 23 269 2 q 100 85 144 44 q 0 309 0 174 q 98 537 0 443 q 328 624 189 624 q 559 537 459 624 q 640 437 609 496 q 670 307 670 378 q 644 181 670 237 q 574 84 619 124 m 331 576 q 246 561 289 576 q 167 519 204 546 q 83 372 83 457 q 152 193 83 265 q 330 120 220 120 q 504 193 435 120 q 570 372 570 263 q 494 522 570 465 q 331 576 426 576 z "},"":{"ha":1111,"x_min":-2,"x_max":1019,"o":"m 717 361 q 722 404 717 391 q 730 433 730 428 l 859 431 q 853 448 859 433 q 840 480 846 463 q 827 513 833 496 q 820 537 820 530 q 870 602 820 602 q 911 493 956 602 q 887 431 900 467 l 991 431 q 1019 396 1019 431 q 991 361 1019 361 l 717 361 m 356 515 q 533 624 383 624 q 700 541 643 624 q 746 394 746 478 q 714 248 746 309 q 650 161 681 187 q 756 11 743 69 q 739 -26 763 -15 q 663 22 702 -50 q 634 80 646 50 q 613 124 622 109 q 393 11 546 48 q 318 0 352 0 q 238 11 283 0 q 152 44 193 22 q 54 178 54 94 q 148 300 54 257 q 322 330 217 330 q 548 259 454 330 q 587 224 574 239 q 650 285 620 244 q 680 386 680 326 q 640 490 680 446 q 535 533 600 533 q 426 502 470 533 q 377 443 381 470 q 355 415 372 415 q 337 435 337 415 q 325 472 337 456 q 293 504 313 489 q 196 531 254 531 q 65 443 83 531 q 63 426 63 435 q 30 387 63 387 q 12 401 22 387 q 0 448 2 415 q 13 515 -2 481 q 52 570 28 548 q 172 624 109 624 q 293 597 248 628 q 356 515 337 567 m 319 291 q 279 291 319 291 q 187 261 239 291 q 135 187 135 231 q 184 135 135 163 q 319 108 233 107 q 451 131 404 109 q 550 193 498 152 q 489 243 537 217 q 319 291 398 291 z "},"":{"ha":972,"x_min":0,"x_max":880,"o":"m 463 270 q 635 109 515 109 q 764 161 711 109 q 817 309 817 213 q 754 478 817 409 q 576 550 689 550 q 509 593 509 550 q 575 624 509 624 q 697 596 641 624 q 793 520 754 569 q 880 283 880 417 q 819 89 880 172 q 635 0 756 0 q 522 29 572 0 q 450 111 472 57 q 261 0 389 0 q 59 104 128 0 q 0 337 0 194 q 69 528 0 439 q 243 626 139 619 q 218 703 222 676 q 208 750 213 730 q 218 792 204 770 q 261 813 231 813 q 313 744 328 813 q 289 626 302 700 q 384 584 343 622 q 426 489 426 546 q 386 396 426 431 q 296 361 346 361 q 215 381 246 361 q 169 428 183 400 q 156 489 154 456 q 172 550 157 522 q 69 274 31 469 q 170 131 87 180 q 260 109 211 109 q 336 122 309 109 q 381 157 363 135 q 437 270 409 189 l 463 270 m 265 572 q 221 546 243 572 q 200 494 200 520 q 219 442 200 469 q 278 415 237 415 q 354 498 354 415 q 331 551 354 530 q 265 572 309 572 z "},"":{"ha":763,"x_min":0,"x_max":741,"o":"m 326 580 q 219 628 276 594 q 136 684 163 661 q 109 730 109 707 q 129 770 109 752 q 173 789 148 789 q 219 774 198 789 q 330 624 235 757 q 639 935 483 767 q 657 941 646 941 q 714 912 687 941 q 741 863 741 883 q 737 833 741 843 l 326 580 m 574 84 q 552 64 574 84 q 469 23 530 44 q 338 2 407 2 q 206 23 269 2 q 100 85 144 44 q 0 309 0 174 q 98 537 0 443 q 328 624 189 624 q 559 537 459 624 q 640 437 609 496 q 670 307 670 378 q 644 181 670 237 q 574 84 619 124 m 331 576 q 246 561 289 576 q 167 519 204 546 q 83 372 83 457 q 152 193 83 265 q 330 120 220 120 q 504 193 435 120 q 570 372 570 263 q 494 522 570 465 q 331 576 426 576 m 402 380 q 402 367 402 380 q 381 334 402 354 q 334 315 361 315 q 286 333 307 315 q 265 379 265 352 q 286 426 265 406 q 334 446 307 446 q 381 426 361 446 q 402 380 402 406 z "},"":{"ha":919,"x_min":0,"x_max":831,"o":"m 813 835 q 587 702 633 730 q 506 654 541 674 q 444 615 472 633 q 393 585 415 596 q 340 607 367 596 q 289 630 313 619 q 183 730 183 676 q 205 772 183 754 q 251 791 226 791 q 296 776 276 791 q 332 722 304 759 q 404 624 361 685 q 487 696 428 641 q 595 806 546 752 q 715 937 644 861 q 734 944 722 944 q 762 936 746 944 q 789 915 778 928 q 819 863 819 881 q 813 835 819 844 m 433 57 q 398 107 411 78 q 328 29 378 57 q 226 0 278 0 q 59 71 119 0 q 0 257 0 143 q 126 522 0 411 q 404 626 243 626 q 689 550 604 626 q 694 537 694 548 q 670 511 694 511 q 641 528 659 511 q 400 580 563 580 q 196 515 280 580 q 96 256 76 422 q 159 130 106 172 q 240 109 185 109 q 330 140 294 109 q 373 213 365 170 q 394 256 381 256 q 420 217 415 256 q 478 144 426 178 q 598 109 530 109 q 711 152 663 109 q 756 246 756 194 q 723 207 752 231 q 644 183 694 183 q 556 218 594 183 q 519 306 519 252 q 561 393 519 361 q 655 424 611 424 q 731 406 698 424 q 785 361 763 389 q 821 214 830 302 q 753 63 813 126 q 594 0 693 0 q 433 57 496 0 m 658 248 q 673 248 658 248 q 706 267 687 248 q 726 314 726 285 q 704 358 726 343 q 656 374 681 374 q 608 357 630 374 q 587 313 587 341 q 608 267 587 285 q 658 248 630 248 z "},"":{"ha":919,"x_min":0,"x_max":831,"o":"m 394 -135 q 341 -69 333 -135 q 360 -8 343 -43 q 398 65 378 26 q 432 -8 419 20 q 451 -65 446 -37 q 444 -114 456 -93 q 394 -135 431 -135 m 813 835 q 587 702 633 730 q 506 654 541 674 q 444 615 472 633 q 393 585 415 596 q 340 607 367 596 q 289 630 313 619 q 183 730 183 676 q 205 772 183 754 q 251 791 226 791 q 296 776 276 791 q 332 722 304 759 q 404 624 361 685 q 487 696 428 641 q 595 806 546 752 q 715 937 644 861 q 734 944 722 944 q 762 936 746 944 q 789 915 778 928 q 819 863 819 881 q 813 835 819 844 m 433 57 q 398 107 411 78 q 328 29 378 57 q 226 0 278 0 q 59 71 119 0 q 0 257 0 143 q 126 522 0 411 q 404 626 243 626 q 689 550 604 626 q 694 537 694 548 q 670 511 694 511 q 641 528 659 511 q 400 580 563 580 q 196 515 280 580 q 96 256 76 422 q 159 130 106 172 q 240 109 185 109 q 330 140 294 109 q 373 213 365 170 q 394 256 381 256 q 420 217 415 256 q 478 144 426 178 q 598 109 530 109 q 711 152 663 109 q 756 246 756 194 q 723 207 752 231 q 644 183 694 183 q 556 218 594 183 q 519 306 519 252 q 561 393 519 361 q 655 424 611 424 q 731 406 698 424 q 785 361 763 389 q 821 214 830 302 q 753 63 813 126 q 594 0 693 0 q 433 57 496 0 m 658 248 q 673 248 658 248 q 706 267 687 248 q 726 314 726 285 q 704 358 726 343 q 656 374 681 374 q 608 357 630 374 q 587 313 587 341 q 608 267 587 285 q 658 248 630 248 z "},"":{"ha":980,"x_min":0,"x_max":887,"o":"m 824 93 q 745 24 793 50 q 648 -2 698 -2 q 564 9 598 -2 q 504 41 530 20 q 441 161 441 85 q 474 254 441 219 q 566 289 507 289 q 656 257 624 289 q 685 165 687 226 q 663 109 680 126 q 771 150 728 106 q 815 287 815 194 q 759 452 815 376 q 620 533 698 533 q 450 430 470 533 q 417 406 444 406 q 387 430 389 406 q 207 533 363 533 q 96 491 135 533 q 63 407 63 457 q 88 363 63 383 q 133 339 113 343 l 159 339 q 207 335 170 339 q 239 309 239 335 q 206 287 239 287 l 154 287 q 88 263 113 283 q 63 213 63 243 q 76 165 63 183 q 111 133 89 146 q 205 109 150 109 q 290 136 259 109 q 335 191 320 163 q 361 193 346 200 q 372 155 372 181 q 357 98 372 128 q 320 48 343 69 q 204 0 270 0 q 70 44 131 0 q 2 172 2 91 q 87 313 2 276 q 27 355 54 322 q 0 436 0 387 q 19 519 0 485 q 70 578 39 554 q 219 624 131 624 q 417 520 341 624 q 620 626 493 626 q 822 526 754 626 q 887 298 887 431 q 824 93 887 174 m 626 167 q 626 181 626 167 q 611 215 626 194 q 560 235 596 235 q 506 215 524 235 q 489 168 489 194 q 508 127 489 141 q 551 109 528 113 q 600 122 574 106 q 626 167 626 139 z "},"":{"ha":891,"x_min":0,"x_max":811,"o":"m 783 828 q 533 671 659 744 q 372 576 407 598 q 315 600 352 585 q 243 633 278 615 q 157 719 157 681 q 170 758 157 741 q 201 784 183 776 q 238 789 219 793 q 267 770 257 785 q 378 619 322 683 q 687 930 546 774 q 706 937 694 937 q 734 928 719 937 q 763 907 750 919 q 791 856 791 878 q 783 828 791 833 m 411 0 q 273 18 346 0 q 139 70 200 35 q 0 294 0 148 q 52 448 0 387 q 211 511 109 511 q 310 479 269 511 q 352 393 352 446 q 321 305 352 339 q 234 270 291 270 q 144 302 178 270 q 111 373 111 333 q 131 446 111 413 q 63 325 63 389 q 97 220 63 261 q 185 156 131 180 q 404 109 280 109 q 620 156 526 109 q 737 328 737 215 q 713 398 737 363 q 681 307 720 348 q 595 270 650 270 q 504 302 541 270 q 467 380 467 333 q 484 452 467 426 q 530 493 502 478 q 652 498 589 522 q 594 556 652 530 q 502 580 543 580 l 376 580 q 354 587 361 580 q 353 609 346 594 q 409 626 359 624 q 591 613 544 628 q 680 558 648 598 q 717 472 711 519 q 796 287 809 407 q 663 72 785 152 q 411 0 550 0 m 661 446 q 581 452 628 467 q 545 431 561 446 q 529 392 530 415 q 543 344 528 369 q 589 320 557 320 q 635 333 620 320 q 657 365 650 346 q 665 405 665 383 q 661 446 665 426 m 193 456 q 157 380 157 428 q 177 338 157 356 q 224 320 196 320 q 287 387 287 320 q 260 441 287 419 q 193 456 233 463 z "},"":{"ha":926,"x_min":0,"x_max":833,"o":"m 406 -135 q 352 -69 344 -135 q 371 -8 354 -43 q 407 65 389 26 q 463 -63 452 -24 q 456 -114 469 -93 q 406 -135 443 -135 m 820 831 q 726 772 781 806 l 611 704 q 497 634 550 667 q 406 580 444 602 q 219 678 276 626 q 207 759 174 713 q 270 791 230 794 q 301 772 289 789 q 340 717 313 756 q 413 620 367 678 q 567 772 487 694 q 722 931 646 850 q 742 939 730 939 q 769 931 754 939 q 796 909 783 922 q 826 858 826 880 q 820 831 826 837 m 483 391 q 461 347 483 365 q 408 330 439 330 q 356 345 378 330 q 335 391 335 361 q 356 437 335 420 q 408 454 378 454 q 461 435 439 454 q 483 391 483 417 m 760 76 q 744 58 760 76 q 684 20 728 41 q 581 0 641 0 q 482 26 522 0 q 413 107 443 52 q 234 0 352 0 q 58 67 117 0 q 0 231 0 133 q 33 398 0 328 q 122 519 67 469 q 413 624 239 624 q 707 524 589 624 q 799 405 765 476 q 833 265 833 333 q 813 154 833 196 q 760 76 793 111 m 96 324 q 119 185 89 250 q 225 109 154 109 q 336 135 296 109 q 398 215 376 161 l 430 215 q 493 136 456 163 q 582 109 530 109 q 663 131 635 109 q 709 183 691 152 q 739 320 744 241 q 638 507 726 439 q 420 576 550 576 q 199 507 291 576 q 96 324 107 439 z "},"":{"ha":926,"x_min":0,"x_max":833,"o":"m 820 831 q 726 772 781 806 l 611 704 q 497 634 550 667 q 406 580 444 602 q 219 678 276 626 q 207 759 174 713 q 270 791 230 794 q 301 772 289 789 q 340 717 313 756 q 413 620 367 678 q 567 772 487 694 q 722 931 646 850 q 742 939 730 939 q 769 931 754 939 q 796 909 783 922 q 826 858 826 880 q 820 831 826 837 m 760 76 q 744 58 760 76 q 684 20 728 41 q 581 0 641 0 q 482 26 522 0 q 413 107 443 52 q 234 0 352 0 q 58 67 117 0 q 0 231 0 133 q 33 398 0 328 q 122 519 67 469 q 413 624 239 624 q 707 524 589 624 q 799 405 765 476 q 833 265 833 333 q 813 154 833 196 q 760 76 793 111 m 96 324 q 119 185 89 250 q 225 109 154 109 q 336 135 296 109 q 398 215 376 161 l 430 215 q 493 136 456 163 q 582 109 530 109 q 663 131 635 109 q 709 183 691 152 q 739 320 744 241 q 638 507 726 439 q 420 576 550 576 q 199 507 291 576 q 96 324 107 439 z "},"":{"ha":926,"x_min":0,"x_max":833,"o":"m 406 -135 q 352 -69 344 -135 q 371 -8 354 -43 q 407 65 389 26 q 463 -63 452 -24 q 456 -114 469 -93 q 406 -135 443 -135 m 820 831 q 726 772 781 806 l 611 704 q 497 634 550 667 q 406 580 444 602 q 219 678 276 626 q 207 759 174 713 q 270 791 230 794 q 301 772 289 789 q 340 717 313 756 q 413 620 367 678 q 567 772 487 694 q 722 931 646 850 q 742 939 730 939 q 769 931 754 939 q 796 909 783 922 q 826 858 826 880 q 820 831 826 837 m 760 76 q 744 58 760 76 q 684 20 728 41 q 581 0 641 0 q 482 26 522 0 q 413 107 443 52 q 234 0 352 0 q 58 67 117 0 q 0 231 0 133 q 33 398 0 328 q 122 519 67 469 q 413 624 239 624 q 707 524 589 624 q 799 405 765 476 q 833 265 833 333 q 813 154 833 196 q 760 76 793 111 m 96 324 q 119 185 89 250 q 225 109 154 109 q 336 135 296 109 q 398 215 376 161 l 430 215 q 493 136 456 163 q 582 109 530 109 q 663 131 635 109 q 709 183 691 152 q 739 320 744 241 q 638 507 726 439 q 420 576 550 576 q 199 507 291 576 q 96 324 107 439 z "},"":{"ha":867,"x_min":-6,"x_max":781,"o":"m 656 831 q 559 772 615 806 q 445 703 504 739 q 332 634 387 667 q 243 580 278 602 q 52 678 120 620 q 26 720 26 698 q 39 760 26 743 q 70 785 52 778 q 139 770 117 804 q 246 620 185 696 q 557 931 480 848 q 576 939 563 939 q 633 909 606 939 q 661 857 661 878 q 656 831 661 837 m 528 0 q 406 39 457 0 q 315 154 356 78 q 256 241 276 219 q 168 291 209 291 q 106 273 126 291 q 83 228 87 256 q 92 170 80 200 q 119 125 104 141 q 152 99 135 109 q 181 78 169 89 q 219 35 219 52 q 161 -7 219 -7 q 58 48 104 -7 q 4 154 13 104 q 10 243 -6 204 q 67 306 26 281 q 159 330 107 330 q 365 213 265 330 q 443 137 407 165 q 524 109 478 109 q 602 127 570 109 q 652 174 633 144 q 676 333 694 241 q 526 526 659 461 q 265 580 419 580 q 241 581 257 580 q 224 606 224 581 q 269 624 224 624 q 624 546 498 624 q 769 289 750 469 q 719 93 780 174 q 528 0 650 0 z "},"":{"ha":846,"x_min":0,"x_max":754,"o":"m 333 657 q 207 583 231 593 q 102 628 152 606 q 0 728 0 674 q 19 770 0 752 q 64 789 39 789 q 109 774 89 789 q 146 720 120 759 q 220 624 172 681 q 262 662 237 637 q 320 719 287 687 q 406 806 354 754 q 530 935 459 859 q 548 941 537 941 q 605 912 576 941 q 633 863 633 883 q 626 833 633 843 l 333 657 m 467 550 q 406 583 406 550 q 419 613 406 602 q 457 624 433 624 q 681 519 604 624 q 754 289 754 420 q 693 91 754 170 q 508 0 622 0 q 322 100 394 0 q 163 0 270 0 q 47 44 94 0 q 0 161 0 87 q 44 278 0 235 q 165 320 89 320 q 293 270 237 320 q 339 209 322 244 q 412 141 372 172 q 501 109 452 109 q 585 131 550 109 q 643 185 620 152 q 687 342 687 252 q 630 491 687 431 q 467 550 572 550 m 269 217 q 236 256 269 235 q 161 276 204 276 q 92 250 119 276 q 64 190 65 224 q 94 132 63 156 q 165 109 124 109 q 237 143 206 109 q 269 217 269 176 z "},"":{"ha":846,"x_min":0,"x_max":754,"o":"m 377 -63 q 379 -77 377 -63 q 369 -112 381 -91 q 322 -133 356 -133 q 265 -67 256 -133 q 285 -7 269 -41 l 322 67 q 357 -6 343 22 q 377 -63 372 -35 m 333 657 q 207 583 231 593 q 102 628 152 606 q 0 728 0 674 q 19 770 0 752 q 64 789 39 789 q 109 774 89 789 q 146 720 120 759 q 220 624 172 681 q 262 662 237 637 q 320 719 287 687 q 406 806 354 754 q 530 935 459 859 q 548 941 537 941 q 605 912 576 941 q 633 863 633 883 q 626 833 633 843 l 333 657 m 467 550 q 406 583 406 550 q 419 613 406 602 q 457 624 433 624 q 681 519 604 624 q 754 289 754 420 q 693 91 754 170 q 508 0 622 0 q 322 100 394 0 q 163 0 270 0 q 47 44 94 0 q 0 161 0 87 q 44 278 0 235 q 165 320 89 320 q 293 270 237 320 q 339 209 322 244 q 412 141 372 172 q 501 109 452 109 q 585 131 550 109 q 643 185 620 152 q 687 342 687 252 q 630 491 687 431 q 467 550 572 550 m 269 217 q 226 256 257 237 q 156 276 194 276 q 92 250 119 276 q 64 190 65 224 q 94 132 63 156 q 165 109 124 109 q 237 143 206 109 q 269 217 269 176 z "},"":{"ha":894,"x_min":0,"x_max":802,"o":"m 467 585 q 533 624 467 624 q 652 591 600 624 q 737 507 704 557 q 802 281 802 407 q 744 93 802 178 q 581 0 681 0 q 391 109 463 0 q 318 32 361 65 q 219 0 274 0 q 126 13 163 0 q 59 52 89 26 q 0 185 0 106 q 152 356 0 304 q 235 381 194 369 q 320 456 320 406 q 286 524 320 498 q 196 550 252 550 q 101 517 141 550 q 61 430 61 483 q 39 404 61 404 q 0 456 0 404 q 63 578 0 526 q 194 624 119 624 q 315 581 263 624 q 374 470 374 533 q 338 381 374 407 q 246 341 302 356 q 204 327 235 337 q 141 302 172 317 q 63 222 63 263 q 103 134 63 159 q 207 109 143 109 q 372 244 333 109 q 394 265 376 265 q 415 246 413 265 q 580 109 443 109 q 707 193 661 109 q 741 354 744 257 q 676 493 737 435 q 528 550 615 550 q 467 585 467 550 z "},"":{"ha":894,"x_min":0,"x_max":941,"o":"m 443 -59 q 389 -133 452 -133 q 330 -65 320 -133 q 351 -6 333 -39 q 389 67 369 28 q 443 -59 435 -22 m 498 604 q 528 624 498 624 q 737 507 659 624 q 802 281 802 407 q 744 93 802 178 q 581 0 681 0 q 391 109 463 0 q 318 32 361 65 q 219 0 274 0 q 126 13 163 0 q 59 52 89 26 q 0 185 0 106 q 152 356 0 304 q 235 381 194 369 q 320 456 320 406 q 286 524 320 498 q 196 550 252 550 q 101 517 141 550 q 61 430 61 483 q 39 404 61 404 q 0 456 0 404 q 63 578 0 526 q 194 624 119 624 q 315 581 263 624 q 374 470 374 533 q 338 381 374 407 q 246 341 302 356 q 204 327 235 337 q 141 302 172 317 q 63 222 63 263 q 103 134 63 159 q 207 109 143 109 q 372 244 333 109 q 394 265 376 265 q 415 246 413 265 q 580 109 443 109 q 707 193 661 109 q 741 354 744 257 q 674 507 737 441 q 522 580 606 580 q 507 584 517 580 q 498 604 498 589 m 937 835 q 727 706 830 770 q 520 580 624 641 q 415 627 469 594 q 335 682 361 659 q 309 728 309 706 q 322 766 309 750 q 352 789 335 781 q 419 776 394 804 q 457 723 431 761 q 530 624 483 685 q 841 937 672 759 q 857 944 846 944 q 914 915 887 944 q 941 856 941 885 q 937 835 941 844 z "},"":{"ha":1324,"x_min":0,"x_max":1231,"o":"m 1135 533 q 1157 512 1135 533 q 1206 431 1180 491 q 1231 309 1231 372 q 1215 193 1231 246 q 1167 96 1198 139 q 976 0 1094 0 q 830 48 900 0 q 715 230 722 124 q 707 289 711 265 q 725 297 711 294 q 746 309 739 300 q 874 130 769 181 q 963 109 913 109 q 1114 177 1063 109 q 1165 341 1165 244 q 1089 493 1165 433 q 911 550 1017 550 q 869 561 881 550 q 856 590 856 572 q 867 616 856 607 q 926 624 878 624 q 1032 600 974 624 q 1135 533 1091 576 m 685 835 q 474 706 576 770 q 269 580 372 641 q 168 625 228 591 q 82 683 107 659 q 57 729 57 707 q 69 766 57 750 q 100 789 81 781 q 167 776 143 804 q 206 723 180 761 q 278 624 231 685 q 435 781 363 706 q 587 937 507 856 q 606 944 594 944 q 633 936 619 944 q 661 915 648 928 q 689 864 689 883 q 685 835 689 844 m 243 606 q 278 624 248 624 l 335 624 q 633 533 520 624 q 717 434 687 493 q 746 314 746 376 q 731 197 746 252 q 687 98 717 143 q 610 27 657 54 q 504 0 563 0 q 326 93 380 0 q 165 0 278 0 q 47 45 94 0 q 0 156 0 91 q 167 317 0 317 q 348 198 257 317 q 505 109 413 109 q 638 172 596 109 q 680 328 680 235 q 596 496 680 422 q 350 580 502 580 l 278 580 q 243 606 243 580 m 272 206 q 163 272 206 272 q 92 249 120 272 q 63 189 63 226 q 91 131 63 152 q 153 109 119 109 q 206 120 187 109 q 237 146 224 131 q 272 206 261 174 z "},"":{"ha":1696,"x_min":0,"x_max":1604,"o":"m 1106 835 q 689 580 824 659 q 583 627 637 594 q 504 682 530 659 q 478 728 478 706 q 491 766 478 750 q 522 789 504 781 q 589 776 565 804 q 627 723 602 761 q 698 624 652 685 q 1009 937 841 759 q 1028 944 1015 944 q 1056 936 1041 944 q 1083 915 1070 928 q 1113 863 1113 881 q 1106 835 1113 844 m 1508 533 q 1530 512 1508 533 q 1578 431 1552 491 q 1604 309 1604 372 q 1588 193 1604 246 q 1541 96 1572 139 q 1350 0 1469 0 q 1204 48 1274 0 q 1089 230 1096 124 q 1081 289 1085 265 q 1100 297 1085 294 q 1120 309 1115 300 q 1248 130 1150 180 q 1337 109 1285 109 q 1486 177 1435 109 q 1537 341 1537 244 q 1463 493 1537 435 q 1285 550 1391 550 q 1243 561 1256 550 q 1230 590 1230 572 q 1241 616 1230 607 q 1300 624 1252 624 q 1406 600 1348 624 q 1508 533 1465 576 m 689 580 q 680 602 680 580 q 694 624 680 624 l 757 624 q 1015 541 913 624 q 1120 304 1120 452 q 1041 96 1120 187 q 833 0 957 0 q 688 36 752 0 q 596 131 624 72 q 328 0 498 0 q 96 83 189 0 q 0 309 0 169 q 93 541 0 452 q 328 626 181 626 q 556 537 476 626 q 639 304 639 448 q 635 256 639 278 q 705 153 652 196 q 848 109 757 109 q 991 185 935 109 q 1039 319 1039 252 q 1016 432 1039 387 q 952 511 993 478 q 728 580 865 580 l 689 580 m 326 576 q 238 560 281 576 q 163 515 194 544 q 89 359 89 452 q 156 181 89 256 q 328 109 220 109 q 500 193 435 109 q 556 378 563 272 q 478 520 544 467 q 326 576 411 576 z "},"":{"ha":763,"x_min":0,"x_max":741,"o":"m 326 580 q 219 628 276 594 q 136 684 163 661 q 109 730 109 707 q 129 770 109 752 q 173 789 148 789 q 219 774 198 789 q 330 624 235 757 q 639 935 483 767 q 657 941 646 941 q 714 912 687 941 q 741 863 741 883 q 737 833 741 843 l 326 580 m 574 84 q 552 64 574 84 q 469 23 530 44 q 338 2 407 2 q 206 23 269 2 q 100 85 144 44 q 0 309 0 174 q 98 537 0 443 q 328 624 189 624 q 559 537 459 624 q 640 437 609 496 q 670 307 670 378 q 644 181 670 237 q 574 84 619 124 m 331 576 q 246 561 289 576 q 167 519 204 546 q 83 372 83 457 q 152 193 83 265 q 330 120 220 120 q 504 193 435 120 q 570 372 570 263 q 494 522 570 465 q 331 576 426 576 z "},"":{"ha":1024,"x_min":0,"x_max":931,"o":"m 648 0 q 542 25 593 0 q 459 96 491 50 q 381 24 433 48 q 268 0 330 0 q 154 29 206 0 q 69 104 102 57 q 0 326 0 202 q 67 530 0 444 q 250 624 141 624 q 404 543 367 624 q 415 478 415 515 q 369 385 411 419 q 274 352 328 352 q 191 370 220 352 q 146 417 161 389 q 156 539 113 481 q 63 372 63 483 q 115 204 63 274 q 283 120 178 120 q 384 150 341 120 q 435 207 428 180 q 458 226 444 226 q 485 207 472 226 q 537 146 498 172 q 644 120 576 120 q 759 152 713 120 q 831 231 806 183 q 860 335 856 278 q 850 440 865 393 q 802 519 835 487 q 723 550 769 550 q 650 517 678 550 q 622 443 622 483 q 644 366 622 402 q 707 307 667 330 q 717 285 719 300 q 700 270 715 270 l 224 270 q 203 276 215 269 q 191 294 191 283 q 226 320 191 320 l 609 320 q 559 373 583 335 q 535 455 535 411 q 549 530 535 498 q 587 581 563 561 q 706 624 633 624 q 831 578 778 624 q 907 462 883 531 q 927 312 931 393 q 889 162 922 231 q 796 46 856 93 q 648 0 737 0 m 335 489 q 261 563 335 563 q 208 542 226 563 q 187 494 191 520 q 197 442 183 467 q 250 410 211 417 q 312 430 289 404 q 335 489 335 456 z "},"":{"ha":904,"x_min":-7,"x_max":811,"o":"m 409 0 q 253 21 328 0 q 119 87 178 43 q -7 361 -7 183 q 61 548 -7 472 q 243 624 131 624 q 351 587 309 624 q 393 488 393 550 q 355 391 393 426 q 267 356 317 356 q 185 373 217 356 q 137 419 154 391 q 120 481 120 446 q 141 548 120 515 q 84 480 106 519 q 63 385 63 441 q 92 275 63 330 q 169 183 120 220 q 413 109 265 109 q 654 181 561 109 q 746 391 746 252 q 693 509 746 461 q 561 557 637 557 q 543 559 554 559 q 522 561 531 559 q 502 589 502 567 q 557 624 502 624 q 660 602 613 624 q 741 541 707 580 q 811 352 811 461 q 689 94 811 198 q 409 0 578 0 m 328 489 q 248 567 328 567 q 172 491 172 569 q 195 436 172 456 q 248 417 219 417 q 303 435 278 417 q 328 489 328 454 z "},"":{"ha":730,"x_min":0,"x_max":824,"o":"m 819 831 q 608 707 711 770 q 402 581 506 644 l 294 626 q 193 724 193 670 q 237 781 193 763 q 300 770 276 798 l 413 624 q 572 774 498 694 q 722 931 646 854 q 740 939 728 939 q 767 931 752 939 q 794 911 781 924 q 824 857 824 878 q 819 831 824 837 m 443 233 q 483 139 483 185 q 433 33 483 76 q 322 -7 387 -7 q 215 31 257 -7 q 178 116 183 61 q 219 204 172 170 q 70 281 133 220 q 0 433 0 348 q 54 571 0 519 q 204 624 107 624 q 337 552 298 624 q 348 488 348 530 q 311 418 348 446 q 227 389 274 389 q 146 417 180 389 q 113 491 113 444 q 152 576 113 537 q 86 530 109 569 q 63 448 63 491 q 86 373 63 406 q 146 319 109 341 q 324 281 213 281 q 353 280 343 281 q 392 282 363 278 q 455 304 420 287 q 519 343 489 320 q 583 463 583 393 q 550 542 583 507 q 431 576 517 576 q 401 579 417 576 q 385 600 385 581 q 417 624 385 624 q 583 576 524 624 q 635 433 643 528 q 507 259 619 324 q 443 233 476 239 m 161 493 q 222 443 161 443 q 262 459 246 443 q 278 503 278 476 q 260 546 278 530 q 213 576 243 563 q 161 493 161 550 m 298 200 q 257 169 276 194 q 239 119 239 144 q 265 70 239 93 q 326 48 291 48 q 382 71 361 48 q 403 128 404 94 q 370 182 402 161 q 298 200 339 204 z "},"":{"ha":839,"x_min":0,"x_max":746,"o":"m 681 833 q 471 705 574 770 q 267 576 369 639 q 81 681 144 620 q 56 728 56 706 q 96 785 56 770 q 165 774 141 802 q 204 720 178 759 q 276 624 230 681 q 433 780 361 704 q 585 935 506 856 q 604 941 593 941 q 652 919 633 941 q 687 856 687 881 q 681 833 687 843 m 243 606 q 278 624 248 624 l 335 624 q 633 533 520 624 q 717 434 687 493 q 746 314 746 376 q 731 197 746 252 q 687 98 717 143 q 610 27 657 54 q 504 0 563 0 q 326 93 380 0 q 165 0 278 0 q 47 45 94 0 q 0 156 0 91 q 167 317 0 317 q 348 198 257 317 q 505 109 413 109 q 638 172 596 109 q 680 328 680 235 q 596 500 680 426 q 350 580 498 583 l 269 576 q 254 585 265 580 q 243 606 243 591 m 272 206 q 163 272 206 272 q 92 249 120 272 q 63 189 63 226 q 91 131 63 152 q 153 109 119 109 q 206 120 187 109 q 237 146 224 131 q 272 206 261 174 z "},"":{"ha":633,"x_min":0,"x_max":689,"o":"m 685 837 q 278 576 528 741 q 85 681 161 611 q 57 730 57 707 q 100 789 57 772 q 167 778 141 807 q 206 725 180 763 q 278 626 231 687 q 435 782 363 707 q 587 939 507 857 q 606 946 594 946 q 633 938 619 946 q 661 915 648 930 q 689 865 689 885 q 685 837 689 844 m 244 604 q 282 624 244 624 q 366 623 320 624 q 448 611 411 622 q 541 496 541 585 q 511 415 541 444 q 441 361 481 385 q 495 279 472 328 q 519 183 519 230 q 465 46 519 93 q 320 0 411 0 q 198 43 252 0 q 143 161 143 87 q 339 372 143 302 q 273 413 315 393 q 185 435 231 433 q 96 356 96 439 l 104 313 q 89 274 106 289 q 52 263 72 259 q 0 337 0 283 q 56 441 0 404 q 181 478 106 478 q 308 453 256 478 q 404 394 361 428 q 461 437 435 411 q 487 493 487 463 q 420 565 487 548 q 283 576 376 576 q 256 585 267 576 q 244 604 244 594 m 383 335 q 231 183 231 285 q 255 131 231 154 q 334 109 278 109 q 420 143 391 109 q 450 220 450 176 q 383 335 450 300 z "},"":{"ha":869,"x_min":0,"x_max":815,"o":"m 628 837 q 224 576 426 711 q 110 625 165 593 q 29 682 56 657 q 2 730 2 707 q 44 789 2 772 q 81 794 61 796 q 112 778 100 793 q 150 725 124 763 q 222 626 176 687 q 531 939 361 756 q 550 946 539 946 q 607 917 580 946 q 635 866 635 887 q 628 837 635 844 m 769 -69 q 715 -7 726 -69 q 698 130 707 44 q 623 39 685 78 q 491 0 561 0 q 374 26 420 0 q 313 93 328 52 q 161 0 274 0 q 47 44 94 0 q 0 159 0 89 q 44 267 0 230 q 161 304 87 304 q 309 228 263 304 q 330 194 320 209 q 483 109 381 109 q 635 174 585 109 q 680 336 680 230 q 619 496 680 443 q 463 550 559 550 q 422 560 446 550 q 400 591 398 570 q 456 624 404 624 q 689 509 619 624 q 746 281 746 419 l 746 206 q 781 43 746 93 q 815 -22 815 -7 q 769 -69 815 -69 m 265 196 q 215 243 246 226 q 149 259 183 259 q 89 238 115 259 q 63 184 63 217 q 92 131 63 152 q 150 109 120 109 q 196 119 180 109 q 230 141 213 128 q 265 196 261 167 z "},"":{"ha":852,"x_min":2,"x_max":759,"o":"m 628 837 q 224 576 426 711 q 110 625 165 593 q 29 682 56 657 q 2 730 2 707 q 44 789 2 772 q 81 794 61 796 q 112 778 100 793 q 150 725 124 763 q 222 626 176 687 q 531 939 361 756 q 550 946 539 946 q 607 917 580 946 q 635 866 635 887 q 628 837 635 844 m 246 28 q 191 -17 246 -17 q 85 41 137 -17 q 31 161 31 96 q 69 267 31 226 q 194 307 107 307 q 281 277 244 307 q 349 208 317 246 q 416 140 381 170 q 505 109 450 109 q 597 131 559 109 q 656 185 635 152 q 691 352 691 243 q 622 504 691 444 q 504 550 567 550 q 454 556 478 550 q 431 585 430 563 q 444 616 433 607 q 483 624 456 624 q 685 519 607 624 q 759 285 759 419 q 685 81 759 167 q 509 0 617 0 q 326 133 396 0 q 252 240 281 215 q 183 265 222 265 q 122 235 144 265 q 100 176 100 206 q 123 128 100 146 q 162 100 146 109 q 191 84 178 91 q 217 70 204 78 q 246 28 246 54 z "},"":{"ha":1206,"x_min":0,"x_max":1113,"o":"m 628 837 q 224 576 426 711 q 110 625 165 593 q 29 682 56 657 q 2 730 2 707 q 44 789 2 772 q 81 794 61 796 q 112 778 100 793 q 150 725 124 763 q 222 626 176 687 q 531 939 361 756 q 550 946 539 946 q 607 917 580 946 q 635 866 635 887 q 628 837 635 844 m 511 0 q 320 100 380 0 q 167 0 276 0 q 50 46 106 0 q 0 162 0 89 q 48 272 0 235 q 165 309 96 309 q 272 273 233 309 q 330 198 311 237 q 443 119 359 150 q 489 109 467 109 q 635 168 591 109 q 680 333 680 226 q 626 481 680 422 q 515 533 580 533 l 502 533 q 466 546 480 533 q 452 579 452 559 q 464 611 452 598 q 498 624 476 624 l 941 624 q 1048 585 996 624 q 1113 456 1113 541 q 1078 367 1113 404 q 981 333 1043 330 q 911 356 937 333 q 857 447 857 396 q 887 533 857 498 l 654 533 q 769 289 769 441 q 696 91 769 180 q 511 0 622 0 m 959 535 q 922 456 922 487 q 943 409 922 426 q 989 391 963 393 q 1035 407 1015 389 q 1053 456 1056 426 q 1028 509 1050 487 q 959 535 1006 531 m 159 256 q 63 180 63 256 q 89 131 63 152 q 157 109 115 109 q 229 131 200 109 q 263 194 257 154 q 214 241 246 226 q 159 256 181 256 z "},"":{"ha":1285,"x_min":41,"x_max":1193,"o":"m 230 0 q 103 30 165 0 q 41 120 41 59 q 109 217 41 181 q 230 246 165 246 l 450 246 q 583 274 520 246 q 678 372 678 311 q 572 509 678 456 q 324 546 456 565 q 398 431 398 493 q 348 330 398 369 q 230 291 298 291 q 111 334 161 291 q 61 441 61 378 q 183 587 61 533 q 403 633 287 633 q 624 563 519 633 q 746 377 746 483 q 643 209 746 270 q 450 156 557 156 l 230 156 q 111 119 119 156 q 146 96 113 96 l 1193 96 l 1193 0 l 230 0 m 320 434 q 320 451 320 434 q 292 489 320 469 q 229 509 263 509 q 168 490 194 509 q 141 437 141 470 q 163 380 141 404 q 231 356 196 356 q 293 378 265 356 q 320 434 320 400 z "},"":{"ha":407,"x_min":-856,"x_max":250,"o":"m 204 402 q 107 369 159 369 q 41 389 70 369 q -9 463 -9 422 q 26 559 -9 524 l -811 559 q -856 607 -856 557 q -811 657 -856 646 l 141 657 q 219 624 193 652 q 250 513 250 585 q 204 402 250 441 m 87 567 q 64 528 78 557 q 50 476 50 498 q 69 436 50 454 q 117 419 89 419 q 171 437 144 419 q 198 487 198 456 q 87 567 198 581 z "},"":{"ha":9,"x_min":-952,"x_max":-509,"o":"m -602 600 q -763 554 -676 554 q -911 593 -850 554 q -952 637 -952 613 q -930 661 -952 661 q -907 654 -924 661 l -885 637 q -774 609 -811 609 q -641 643 -698 609 q -576 752 -576 687 q -602 815 -576 780 q -698 681 -626 730 q -787 657 -730 657 q -893 689 -844 657 q -946 785 -946 728 q -878 907 -946 865 q -744 939 -822 939 q -596 896 -665 939 q -509 750 -509 844 q -602 600 -509 656 m -746 885 q -869 770 -869 885 q -831 731 -869 750 q -767 715 -794 711 q -704 750 -737 722 q -654 848 -643 811 q -746 885 -678 885 z "},"":{"ha":9,"x_min":-952,"x_max":-509,"o":"m -783 991 q -739 935 -772 935 q -596 894 -665 935 q -509 745 -509 837 q -602 598 -509 654 q -763 550 -676 550 q -911 591 -850 550 q -952 635 -952 611 q -930 659 -952 659 q -920 656 -926 659 q -907 648 -915 652 l -885 635 q -774 606 -804 606 q -641 639 -698 606 q -576 750 -576 681 q -602 811 -576 776 q -698 678 -626 728 q -785 656 -726 656 q -893 687 -844 656 q -946 781 -946 719 q -819 928 -946 885 q -854 1019 -854 972 q -816 1096 -854 1065 q -728 1128 -778 1128 q -640 1101 -678 1128 q -602 1033 -602 1074 q -607 987 -602 993 q -641 983 -622 983 q -715 1061 -646 1061 q -764 1042 -744 1061 q -783 991 -783 1022 m -746 881 q -869 769 -869 881 q -831 728 -869 744 q -767 711 -794 707 q -704 746 -737 719 q -654 844 -644 806 q -746 881 -680 881 z "},"":{"ha":502,"x_min":-209,"x_max":320,"o":"m 276 107 q 72 -9 213 -9 q -126 78 -31 -9 q -209 243 -209 159 q -207 281 -207 239 q -185 307 -204 289 q -96 167 -135 204 q 50 113 -41 113 q 209 172 141 113 q 259 330 259 220 q 187 467 259 402 q -13 543 106 543 q -72 569 -72 543 q -6 611 -72 611 q 259 478 165 611 q 320 280 320 391 q 276 107 320 169 z "},"":{"ha":902,"x_min":-174,"x_max":659,"o":"m 659 507 q 651 454 659 480 q 626 407 643 428 q 529 359 589 359 q 434 387 469 359 q 400 456 400 415 q 433 550 400 519 l 17 550 q -19 561 -2 550 q -37 599 -37 572 q -19 637 -37 626 q 17 648 -2 648 l 502 648 q 622 604 580 648 q 659 507 659 565 m 494 550 q 469 514 480 530 q 457 472 457 498 q 477 430 457 446 q 525 413 496 413 q 578 430 554 413 q 608 487 602 446 q 582 541 615 528 q 494 550 550 554 m 254 533 q 276 512 254 533 q 324 431 298 491 q 350 309 350 372 q 333 193 350 246 q 285 96 317 139 q 94 0 213 0 q -111 104 -19 0 q -167 230 -161 159 q -174 289 -170 265 q -156 297 -170 294 q -133 309 -143 300 q -72 178 -124 233 q 87 109 -7 109 q 232 177 181 109 q 283 341 283 244 q 207 493 283 435 q 30 550 133 550 q -13 561 0 550 q -26 590 -26 572 q -15 616 -26 607 q 44 624 -4 624 q 151 600 93 624 q 254 533 209 576 z "},"":{"ha":350,"x_min":-293,"x_max":289,"o":"m -131 -80 q -198 -111 -169 -80 q -128 -169 -169 -169 q -69 -120 -69 -169 q -131 -80 -69 -80 m -215 -183 q -52 -300 -198 -300 q 100 -230 26 -300 q 196 -57 176 -156 q -26 533 278 339 q -37 556 -37 548 l -37 569 q -17 594 -37 580 q 15 603 4 604 q 28 598 26 602 q 111 534 63 581 q 196 407 159 487 q 235 -65 287 217 q 141 -281 215 -187 q -49 -387 57 -387 q -213 -330 -156 -387 q -270 -144 -293 -252 q -243 -89 -263 -115 q -120 -22 -193 -22 q -35 -56 -72 -22 q 2 -135 2 -89 q -32 -214 2 -181 q -109 -246 -67 -246 q -175 -232 -152 -246 q -215 -183 -198 -219 z "},"":{"ha":580,"x_min":-293,"x_max":511,"o":"m 388 330 q 357 330 388 330 q 291 361 326 330 q 256 435 256 393 q 296 515 256 478 l 6 515 q -26 531 -15 515 q -37 565 -37 548 q -30 594 -37 581 q 17 606 -22 606 l 363 606 q 467 565 419 606 q 511 470 511 526 q 481 372 511 415 q 388 330 450 330 m 352 517 q 323 480 337 504 q 309 438 309 456 q 330 401 309 420 q 381 381 350 381 q 431 404 413 381 q 450 446 450 426 q 352 517 450 509 m -131 -80 q -198 -111 -169 -80 q -128 -169 -169 -169 q -69 -120 -69 -169 q -131 -80 -69 -80 m -215 -183 q -52 -300 -198 -300 q 100 -230 26 -300 q 196 -57 176 -156 q -26 533 278 339 q -37 556 -37 548 l -37 569 q -17 594 -37 580 q 15 603 4 604 q 28 598 26 602 q 111 534 63 581 q 196 407 159 487 q 235 -65 287 217 q 141 -281 215 -187 q -49 -387 57 -387 q -213 -330 -156 -387 q -270 -144 -293 -252 q -243 -89 -263 -115 q -120 -22 -193 -22 q -35 -56 -72 -22 q 2 -135 2 -89 q -32 -214 2 -181 q -109 -246 -67 -246 q -175 -232 -152 -246 q -215 -183 -198 -219 z "},"":{"ha":9,"x_min":-850,"x_max":-220,"o":"m -850 811 q -844 825 -846 817 q -828 833 -841 833 l -356 833 q -220 702 -220 833 q -380 561 -220 561 l -541 561 q -585 588 -585 561 q -541 615 -585 615 l -383 615 q -365 613 -380 613 q -291 661 -291 613 q -316 715 -291 691 q -383 739 -341 739 l -828 739 q -850 785 -850 739 l -850 811 z "},"":{"ha":9,"x_min":-850,"x_max":-220,"o":"m -850 807 q -844 822 -846 815 q -828 830 -841 830 l -431 830 q -467 912 -467 865 q -430 988 -467 959 q -346 1017 -393 1017 q -263 994 -300 1017 q -226 922 -226 970 q -246 874 -226 874 q -254 881 -250 876 q -263 891 -257 885 q -272 906 -269 896 q -344 933 -294 933 q -394 887 -394 933 q -359 833 -394 844 q -256 785 -274 800 q -220 700 -220 757 q -380 561 -220 561 l -541 561 q -585 588 -585 561 q -541 615 -585 615 l -383 615 q -365 613 -380 613 q -291 661 -291 613 q -316 713 -291 689 q -383 737 -341 737 l -828 737 q -850 783 -850 737 l -850 807 z "},"":{"ha":24,"x_min":-1061,"x_max":-207,"o":"m -837 811 q -831 825 -835 817 q -815 833 -828 833 l -341 833 q -207 702 -207 833 q -367 561 -207 561 l -530 561 q -572 588 -572 561 q -530 615 -572 615 l -372 615 q -352 613 -367 613 q -278 661 -278 613 q -303 715 -278 691 q -372 739 -328 739 l -815 739 q -837 785 -837 739 l -837 811 m -898 -328 q -1061 -196 -1061 -328 q -935 -74 -1061 -74 q -831 -183 -831 -74 q -844 -226 -831 -204 l -331 -226 q -300 -278 -300 -226 q -305 -319 -300 -309 q -335 -328 -309 -328 l -898 -328 m -887 -180 q -934 -131 -887 -131 q -981 -159 -981 -131 q -941 -220 -981 -196 q -899 -214 -911 -220 q -887 -180 -887 -207 z "},"":{"ha":185,"x_min":-774,"x_max":31,"o":"m -96 583 q -211 685 -211 583 q -194 750 -211 707 q -372 654 -298 750 l -404 654 q -581 754 -469 754 q -694 676 -694 754 q -641 613 -694 624 l -543 596 q -526 580 -530 593 q -541 561 -522 567 q -576 559 -559 556 q -715 591 -687 580 q -774 705 -774 624 q -711 822 -774 785 q -580 854 -659 854 q -394 785 -457 854 q -194 865 -348 865 l -148 865 q -22 826 -76 865 q 31 722 31 789 q -3 619 31 656 q -96 583 -37 583 m -111 750 q -144 727 -131 750 q -156 681 -156 704 q -107 626 -156 635 q -63 640 -83 624 q -45 683 -43 656 q -61 722 -48 711 q -111 750 -74 733 z "},"":{"ha":185,"x_min":-774,"x_max":35,"o":"m 11 900 q -12 914 -7 900 q -26 935 -17 928 q -78 950 -52 950 q -143 911 -143 950 q -100 854 -143 865 q 30 713 30 815 q -94 585 30 585 q -211 687 -211 585 q -194 750 -211 713 q -369 656 -300 746 l -404 656 q -589 754 -467 754 q -666 733 -633 754 q -698 678 -698 713 q -639 613 -698 630 l -543 596 q -526 580 -530 593 q -541 561 -522 567 q -576 559 -559 556 q -715 591 -687 580 q -774 704 -774 624 q -717 817 -774 783 q -580 850 -659 850 q -394 783 -456 850 q -187 865 -346 863 q -206 934 -206 887 q -172 1008 -206 981 q -90 1035 -139 1035 q -3 1009 -41 1035 q 35 942 35 983 q 11 900 35 900 m -63 728 q -111 750 -72 733 q -143 728 -131 752 q -154 681 -154 704 q -106 628 -154 635 q -60 642 -81 624 q -43 681 -39 659 q -63 728 -43 711 z "},"":{"ha":319,"x_min":-778,"x_max":143,"o":"m 143 695 q 143 666 143 695 q 104 606 143 637 q 12 574 65 574 q -73 599 -41 574 q -106 664 -106 624 q -89 731 -106 704 l -309 731 q -283 648 -283 694 q -406 554 -283 554 l -596 554 q -620 575 -620 561 q -596 596 -620 589 l -407 596 q -339 657 -339 596 q -365 700 -339 678 q -433 731 -404 731 l -756 731 q -778 750 -767 739 l -776 815 q -754 830 -756 830 l -17 830 q 98 792 54 830 q 143 695 143 754 m -9 737 q -48 676 -48 724 q -31 639 -48 656 q 8 622 -15 622 q 56 637 31 622 q 80 676 80 652 q -9 737 80 737 z "},"":{"ha":189,"x_min":-596,"x_max":69,"o":"m -374 567 l -404 563 l -533 583 q -581 649 -581 600 q -531 722 -581 698 q -596 824 -596 750 q -543 919 -596 898 q -415 926 -522 926 l -4 926 q 69 900 69 926 l 69 841 q 28 824 69 824 l -457 824 q -520 785 -520 824 q -446 750 -520 750 l -248 750 q -163 722 -163 750 q -185 693 -163 698 q -246 691 -193 691 l -415 691 q -485 689 -480 691 q -528 646 -528 680 q -478 613 -528 620 q -433 609 -459 613 q -372 602 -407 606 q -356 587 -361 600 q -374 567 -354 572 z "},"":{"ha":602,"x_min":54,"x_max":417,"o":"m 120 689 q 54 835 54 744 q 108 943 54 894 q 232 991 163 991 q 347 953 302 991 q 417 854 393 915 l 335 819 q 245 894 287 894 q 178 871 204 894 q 152 819 152 848 q 219 700 152 759 l 120 689 z "},"":{"ha":11,"x_min":-835,"x_max":-207,"o":"m -702 -291 q -771 -264 -739 -291 q -819 -214 -804 -237 q -835 -151 -835 -191 q -805 -74 -835 -111 q -711 -37 -774 -37 q -615 -87 -643 -37 q -604 -137 -604 -109 q -620 -193 -604 -165 l -256 -193 q -224 -204 -241 -193 q -207 -238 -207 -215 q -221 -276 -207 -261 q -261 -291 -235 -291 l -702 -291 m -761 -133 q -719 -187 -761 -180 q -659 -143 -669 -187 q -671 -108 -656 -126 q -708 -91 -687 -91 q -745 -106 -730 -91 q -761 -133 -761 -120 z "},"":{"ha":981,"x_min":-9,"x_max":876,"o":"m 26 887 q -6 900 0 887 q -9 937 -9 915 q 22 987 -9 987 l 428 987 q 406 1043 406 1009 q 436 1109 406 1076 q 519 1143 467 1143 q 609 1116 570 1143 q 648 1026 648 1089 q 606 931 648 974 q 487 887 561 887 l 26 887 m 572 1034 q 572 1046 572 1034 q 556 1071 572 1057 q 517 1085 539 1085 q 481 1069 494 1085 q 467 1034 467 1054 q 480 999 467 1015 q 516 984 493 983 q 556 998 539 985 q 572 1034 572 1011 m 813 835 q 729 784 759 804 q 677 752 698 765 q 643 731 656 739 q 615 711 630 722 q 522 654 600 700 q 456 606 487 630 q 404 576 424 583 q 346 603 378 587 q 289 630 315 619 q 185 730 185 676 q 199 767 185 752 q 230 787 213 781 q 296 776 274 802 q 332 723 304 761 q 406 624 361 685 q 448 664 424 639 q 507 722 472 689 q 717 937 609 824 q 735 944 724 944 q 762 936 746 944 q 789 915 778 928 q 819 863 819 881 q 813 835 819 844 m 387 609 q 430 626 387 626 q 744 536 626 626 q 870 300 863 446 q 822 98 874 183 q 661 0 763 0 q 478 106 520 0 q 309 0 415 0 q 159 70 217 0 q 111 194 111 130 q 136 304 111 259 q 230 389 161 348 q 124 361 174 370 q 57 352 74 352 q 19 369 41 352 q -2 415 -2 385 q 19 462 -2 444 q 67 480 41 480 l 304 456 l 304 404 q 225 327 252 367 q 198 226 198 287 q 230 148 198 187 q 309 109 263 109 q 400 141 356 109 q 452 239 444 172 q 478 269 454 269 q 494 263 485 269 q 502 239 502 257 q 541 146 502 183 q 637 109 580 109 q 754 172 719 109 q 780 333 789 235 q 674 515 772 441 q 452 580 583 583 l 404 576 q 387 609 387 585 z "},"":{"ha":826,"x_min":-2,"x_max":728,"o":"m 437 804 q 415 860 415 826 q 445 927 415 894 q 528 959 476 959 q 619 933 580 959 q 657 844 657 907 q 615 748 657 791 q 494 702 569 702 l 35 702 q 5 716 9 702 q 0 754 0 730 q 28 804 0 804 l 437 804 m 478 850 q 530 802 478 802 q 565 816 548 804 q 581 851 581 828 q 565 888 581 874 q 525 902 548 902 q 490 885 502 902 q 478 850 478 869 m 561 296 q 600 322 561 322 q 695 279 663 322 q 728 192 728 235 q 715 114 728 148 q 678 56 702 80 q 539 0 626 0 q 383 96 430 0 q 215 0 320 0 q 19 107 70 0 q 0 200 0 143 q 36 293 0 257 q 141 352 72 328 q 181 366 152 359 q 237 385 209 372 q 309 459 309 417 q 279 513 309 493 q 200 533 248 533 q 113 513 152 533 q 65 468 74 493 q 49 428 56 443 q 26 416 43 413 q 4 432 9 419 q 2 478 -2 446 q 69 587 11 550 q 200 624 128 624 q 320 579 272 624 q 369 465 369 533 q 222 319 369 359 q 151 299 183 309 q 98 266 119 289 q 78 217 78 243 q 90 172 78 191 q 122 141 102 154 q 218 111 165 111 q 303 136 270 111 q 348 195 335 161 q 367 244 361 230 q 385 257 372 257 q 401 244 398 257 q 420 193 404 230 q 535 111 459 111 q 638 137 611 111 q 665 194 665 163 q 647 244 665 224 q 595 263 630 263 q 561 296 561 263 m 478 585 q 524 624 478 624 q 657 592 602 624 q 713 492 713 559 q 667 392 713 424 q 544 359 620 359 q 383 417 457 359 q 363 437 367 430 q 332 492 341 456 q 313 550 324 528 q 323 555 317 548 q 335 561 330 561 q 350 544 341 561 q 381 506 359 528 q 430 465 404 483 q 531 428 481 428 q 639 491 639 428 q 610 539 639 528 q 539 550 581 550 q 487 561 496 550 q 478 585 478 572 z "},"":{"ha":2093,"x_min":0,"x_max":2009,"o":"m 1746 456 q 1794 550 1746 507 l 1387 550 q 1341 555 1354 550 q 1328 578 1328 559 l 1328 604 q 1348 622 1328 619 q 1380 624 1359 624 l 1839 624 q 1931 605 1893 624 q 1990 558 1970 585 q 2009 489 2009 531 q 1968 391 2009 420 q 1877 361 1926 361 q 1789 389 1828 361 q 1746 456 1750 417 m 1850 550 q 1809 476 1809 506 q 1828 430 1809 446 q 1876 413 1846 413 q 1922 432 1906 413 q 1939 481 1939 452 q 1850 550 1939 539 m 1615 91 q 1541 25 1585 50 q 1449 0 1496 0 q 1366 13 1402 0 q 1300 48 1330 26 q 1219 170 1231 106 q 1133 48 1198 102 q 1002 0 1072 0 q 811 106 893 0 q 767 200 781 144 q 746 274 752 256 q 763 297 756 287 q 776 317 770 307 q 785 330 781 326 l 802 281 q 991 109 865 109 q 1130 174 1081 109 q 1172 306 1172 231 q 1151 430 1172 381 q 1093 504 1130 478 q 920 550 1030 550 q 865 587 865 550 q 886 616 865 607 q 928 624 907 624 q 1150 528 1061 624 q 1233 298 1233 437 q 1311 159 1248 217 q 1433 109 1369 109 q 1563 185 1509 109 q 1611 333 1611 256 q 1541 489 1611 426 q 1369 550 1472 550 q 1309 585 1309 550 q 1322 615 1309 606 q 1369 624 1335 624 q 1594 526 1509 628 q 1674 287 1674 428 q 1615 91 1674 176 m 467 585 q 533 624 467 624 q 652 591 600 624 q 737 507 704 557 q 802 281 802 407 q 744 93 802 178 q 581 0 681 0 q 391 109 463 0 q 318 32 361 65 q 219 0 274 0 q 126 13 163 0 q 59 52 89 26 q 0 185 0 106 q 152 356 0 304 q 235 381 194 369 q 320 456 320 406 q 286 524 320 498 q 196 550 252 550 q 101 517 141 550 q 61 430 61 483 q 39 404 61 404 q 0 456 0 404 q 63 578 0 526 q 194 624 119 624 q 315 581 263 624 q 374 470 374 533 q 338 381 374 407 q 246 341 302 356 q 204 327 235 337 q 141 302 172 317 q 63 222 63 263 q 103 134 63 159 q 207 109 143 109 q 372 244 333 109 q 394 265 376 265 q 415 246 413 265 q 580 109 443 109 q 707 193 661 109 q 741 354 744 257 q 676 493 737 435 q 528 550 615 550 q 467 585 467 550 z "},"":{"ha":1419,"x_min":13,"x_max":1328,"o":"m 1067 407 q 1117 504 1063 465 l 861 504 q 812 507 830 504 q 794 534 794 511 q 808 569 794 557 q 861 580 822 580 l 1159 580 q 1307 511 1257 580 q 1328 443 1328 485 q 1288 344 1328 374 q 1187 313 1248 313 q 1120 333 1150 313 q 1067 407 1067 370 m 78 463 q 48 426 78 426 q 17 481 24 426 q 70 611 13 552 q 191 663 117 659 q 372 550 326 670 q 431 634 385 604 q 543 665 476 665 q 649 644 609 665 q 711 591 689 624 q 744 439 756 522 q 656 285 735 346 q 587 242 624 261 q 519 199 550 222 q 468 144 489 176 q 446 69 446 113 q 470 -6 446 26 q 528 -59 494 -37 q 668 -104 598 -104 q 787 -80 737 -104 q 872 -15 837 -56 q 939 196 939 63 q 896 374 939 285 q 820 489 876 420 q 796 538 794 517 q 815 570 798 559 q 856 576 831 581 q 900 543 881 570 q 984 365 967 452 q 1002 195 1002 278 q 982 37 1002 113 q 922 -96 963 -39 q 670 -224 837 -224 q 472 -156 556 -224 q 376 69 376 -76 q 397 162 376 126 q 451 227 419 198 q 521 276 483 256 q 593 319 559 296 q 651 368 626 341 q 680 437 676 394 q 654 534 689 496 q 554 572 619 572 q 444 542 489 572 q 391 476 400 511 q 372 452 389 452 q 352 472 352 452 q 341 510 352 493 q 309 541 330 528 q 213 572 259 572 q 80 481 100 572 q 78 463 78 472 m 1170 504 q 1130 430 1130 459 q 1148 382 1130 400 q 1195 365 1167 365 q 1242 384 1224 365 q 1259 434 1259 404 q 1239 481 1259 465 q 1170 504 1219 496 z "},"":{"ha":13,"x_min":-641,"x_max":-43,"o":"m -422 -115 q -317 -63 -394 -63 q -215 -111 -250 -63 q -194 -202 -189 -146 q -230 -283 -200 -257 q -292 -328 -259 -309 q -346 -366 -324 -346 q -369 -426 -369 -385 q -326 -493 -372 -467 q -248 -515 -283 -519 q -135 -465 -172 -515 q -98 -352 -98 -415 q -121 -247 -98 -289 q -169 -183 -144 -206 q -178 -151 -181 -167 q -161 -128 -174 -135 q -132 -120 -148 -120 q -106 -139 -117 -120 q -54 -246 -65 -194 q -43 -348 -43 -298 q -55 -444 -43 -398 q -93 -526 -67 -491 q -246 -602 -146 -602 q -415 -504 -365 -602 q -431 -432 -431 -470 q -421 -373 -431 -394 q -396 -336 -411 -352 q -363 -309 -381 -320 q -326 -287 -344 -298 l -328 -287 q -277 -252 -300 -269 q -252 -206 -254 -235 q -266 -155 -246 -174 q -318 -135 -285 -135 q -374 -150 -350 -135 q -402 -183 -398 -165 q -423 -206 -404 -206 q -443 -186 -443 -206 q -464 -151 -443 -167 q -517 -135 -485 -135 q -583 -181 -574 -135 q -584 -183 -583 -181 q -585 -193 -585 -185 q -613 -220 -589 -220 q -631 -209 -622 -220 q -640 -176 -639 -198 q -631 -132 -641 -154 q -606 -96 -622 -111 q -530 -65 -574 -65 q -422 -115 -461 -59 z "},"":{"ha":254,"x_min":-613,"x_max":176,"o":"m 163 -159 q 176 -211 176 -176 q 148 -268 176 -246 q 89 -289 120 -289 q 31 -269 57 -289 q 4 -223 4 -250 q 20 -178 4 -196 l -107 -178 q -143 -174 -130 -178 q -156 -152 -156 -170 q -147 -125 -156 -133 q -107 -117 -139 -117 l 67 -117 q 163 -159 126 -117 m -394 -117 q -289 -65 -367 -65 q -189 -111 -224 -65 q -167 -202 -161 -144 q -202 -284 -172 -259 q -264 -329 -231 -309 q -319 -368 -296 -348 q -341 -428 -341 -387 q -298 -496 -344 -469 q -220 -517 -256 -520 q -107 -466 -144 -517 q -70 -352 -70 -415 q -141 -183 -70 -254 q -150 -154 -154 -169 q -133 -130 -146 -139 q -105 -122 -120 -120 q -78 -141 -89 -124 q -26 -247 -37 -194 q -15 -350 -15 -300 q -27 -446 -15 -400 q -63 -526 -39 -493 q -219 -604 -120 -604 q -341 -563 -289 -604 q -404 -426 -404 -513 q -335 -311 -404 -352 q -298 -289 -317 -300 l -300 -289 q -249 -254 -272 -270 q -224 -206 -226 -237 q -238 -157 -219 -176 q -290 -139 -257 -139 q -346 -153 -322 -139 q -374 -185 -370 -167 q -395 -206 -376 -206 q -415 -183 -415 -206 q -436 -154 -415 -169 q -489 -139 -457 -139 q -556 -183 -546 -139 q -556 -186 -556 -185 q -558 -195 -557 -187 q -564 -213 -559 -204 q -581 -222 -569 -222 q -603 -211 -594 -222 q -612 -178 -611 -200 q -604 -134 -613 -156 q -578 -96 -594 -113 q -502 -67 -546 -67 q -394 -117 -433 -61 m 131 -209 q 119 -183 131 -191 q 76 -172 106 -176 q 43 -212 43 -194 q 56 -240 43 -230 q 89 -250 69 -250 q 131 -209 131 -250 z "},"":{"ha":763,"x_min":2,"x_max":670,"o":"m 574 84 q 552 64 574 84 q 470 23 530 44 q 340 2 411 2 q 206 23 269 2 q 100 85 144 44 q 2 309 2 172 q 98 537 2 444 q 330 624 189 624 q 563 537 463 624 q 641 437 611 496 q 670 307 670 378 q 644 181 670 237 q 574 84 619 124 m 333 576 q 246 561 289 576 q 167 519 204 546 q 83 372 83 457 q 152 193 83 265 q 330 120 222 120 q 507 193 441 120 q 572 372 572 265 q 496 522 572 461 q 333 576 431 576 z "},"":{"ha":748,"x_min":0,"x_max":656,"o":"m 587 485 q 640 348 624 424 q 656 226 656 272 q 650 144 656 180 q 633 72 644 107 q 603 12 622 37 q 550 -8 583 -13 q 499 17 517 -4 q 504 78 481 37 q 548 330 548 167 q 491 494 548 419 q 341 580 426 580 q 234 551 281 580 q 157 478 187 522 q 94 270 94 383 q 128 143 94 215 q 163 44 161 72 q 115 -6 167 9 q 24 63 56 -22 q 0 197 0 126 q 19 346 0 269 q 81 485 39 424 q 339 624 178 624 q 587 485 506 624 z "},"":{"ha":878,"x_min":15,"x_max":785,"o":"m 478 87 q 635 141 550 87 q 715 324 719 206 q 602 524 707 441 q 350 598 467 619 q 419 496 419 548 q 322 374 419 409 q 263 363 294 363 q 204 373 231 363 q 154 402 176 383 q 107 502 107 441 q 220 637 107 587 q 413 661 317 669 q 646 576 550 657 q 746 450 715 522 q 778 324 778 378 q 678 74 785 178 q 478 2 598 4 l 59 2 q 28 15 39 2 q 16 44 17 28 q 26 74 15 61 q 59 87 37 87 l 478 87 m 346 496 q 320 547 346 528 q 263 567 294 567 q 206 548 231 567 q 181 500 181 530 q 200 444 181 470 q 266 424 235 424 q 321 444 296 424 q 346 496 346 465 z "},"":{"ha":639,"x_min":20,"x_max":546,"o":"m 524 487 q 472 376 520 413 l 476 376 q 404 330 439 348 q 504 276 469 311 q 546 167 546 220 q 478 43 546 93 q 289 -9 398 -13 q 133 11 189 -9 q 24 89 28 48 q 74 139 20 139 q 124 106 117 139 q 178 56 131 81 q 294 26 222 26 q 412 67 367 26 q 456 152 457 107 q 446 194 456 170 q 326 261 420 261 l 185 261 l 185 354 l 298 354 q 415 394 357 354 l 413 394 q 452 431 437 415 q 467 470 467 446 q 417 561 465 531 q 309 596 369 596 q 213 572 250 596 q 178 509 178 554 q 161 470 178 483 q 126 456 146 456 q 78 502 78 456 q 143 622 80 580 q 291 665 200 665 q 452 619 389 661 q 524 487 524 567 z "},"":{"ha":585,"x_min":11,"x_max":493,"o":"m 480 564 q 484 554 480 564 q 491 521 489 544 q 493 470 493 498 q 481 399 493 443 q 443 317 470 356 q 260 235 385 235 q 69 317 135 235 q 11 491 11 387 q 52 600 11 572 q 93 611 69 613 q 128 581 135 604 q 109 531 124 557 q 78 446 78 478 q 92 382 78 415 q 126 324 106 350 q 182 280 146 298 q 257 261 219 261 q 324 275 296 261 q 372 311 352 289 q 415 410 415 361 q 408 496 415 459 q 380 561 402 533 q 380 597 367 583 q 417 612 393 611 q 456 598 441 613 q 480 564 470 583 m 265 0 q 131 78 169 0 q 120 130 120 100 q 131 184 120 159 q 163 228 143 209 q 259 265 200 265 q 359 230 317 265 q 404 131 404 191 q 365 33 404 70 q 265 0 330 0 m 293 228 q 261 233 278 233 q 229 228 244 233 q 200 213 213 222 q 169 164 169 193 q 176 119 169 135 q 193 89 183 102 q 259 65 215 65 q 344 119 324 65 q 352 156 352 135 q 293 228 352 207 z "},"":{"ha":859,"x_min":11,"x_max":767,"o":"m 63 546 q 11 580 11 546 q 83 609 11 606 q 320 525 226 613 q 415 297 415 437 q 322 77 415 157 q 72 -2 230 -4 q 37 6 52 -2 q 24 34 22 15 q 39 58 26 54 q 84 64 52 63 q 160 86 117 65 q 233 143 204 107 q 298 317 298 217 q 233 481 298 417 q 63 546 169 546 m 617 379 q 607 347 617 379 q 558 260 598 315 q 477 167 519 206 q 394 98 435 128 q 319 53 354 69 q 257 31 285 37 q 193 15 230 24 q 171 33 187 20 q 154 61 156 46 q 168 82 152 76 q 217 93 183 89 q 316 127 257 106 q 443 204 374 148 q 533 324 502 250 q 576 433 569 402 q 508 412 544 406 q 450 443 472 419 q 418 514 417 469 q 445 590 419 559 q 517 622 472 620 q 597 592 561 624 q 634 501 633 559 q 617 379 635 443 m 626 465 q 756 274 750 372 q 741 204 757 239 q 630 100 713 139 q 544 96 570 74 q 563 131 530 107 l 646 193 q 567 446 767 304 l 626 465 m 525 572 q 514 572 525 572 q 488 556 504 572 q 472 519 472 541 q 488 482 472 498 q 525 467 504 467 q 563 482 546 467 q 580 519 580 498 q 563 556 580 541 q 525 572 546 572 z "},"":{"ha":770,"x_min":-4,"x_max":678,"o":"m 613 131 q 678 67 678 131 q 663 20 678 41 q 613 0 648 0 l 159 0 q 48 51 89 0 q 2 157 7 102 q 19 278 -4 239 q 78 326 43 317 q 24 456 24 372 q 58 577 24 539 q 144 615 93 615 l 304 615 q 325 613 309 615 q 342 580 341 611 q 307 539 343 548 l 193 535 q 87 467 89 546 q 108 385 83 407 q 181 363 133 363 l 376 363 q 415 359 394 363 q 435 326 435 356 q 376 289 435 289 l 178 289 q 83 198 91 289 q 165 131 93 131 l 613 131 z "},"":{"ha":672,"x_min":-9,"x_max":580,"o":"m 497 63 q 478 49 497 63 q 406 18 459 35 q 299 0 354 0 q 193 13 244 0 q 98 52 141 26 q 0 200 0 111 q 39 290 0 259 q 135 333 78 320 q 259 349 193 346 q 374 359 326 352 q 489 437 489 374 q 466 485 489 467 q 407 517 443 504 q 267 539 350 539 q 132 518 183 539 q 57 470 81 496 q 11 465 30 450 q 10 506 -9 474 q 66 558 30 537 q 141 591 102 580 q 265 611 213 611 q 367 601 317 611 q 457 570 417 591 q 550 446 550 524 q 518 361 548 389 q 443 321 487 333 q 333 306 398 309 q 215 294 269 302 q 125 268 161 287 q 89 208 89 248 q 146 138 89 169 q 294 107 204 107 q 454 141 387 107 q 501 175 483 156 q 519 213 519 194 l 580 213 q 557 131 580 170 q 497 63 535 91 z "},"":{"ha":876,"x_min":0,"x_max":783,"o":"m 637 367 q 587 124 650 228 q 339 -15 504 -15 q 81 126 180 -15 q 0 417 0 243 q 19 534 0 487 q 59 603 37 581 q 115 615 81 624 q 163 567 167 602 q 137 491 161 539 q 94 342 94 396 q 111 232 94 287 q 157 133 128 178 q 234 60 187 89 q 333 31 281 31 q 424 55 385 31 q 491 115 463 78 q 548 279 548 191 q 521 429 548 367 q 473 531 494 491 q 469 593 452 572 q 530 620 485 613 q 602 537 572 628 q 624 464 613 504 q 637 367 635 424 m 731 524 l 506 524 q 459 572 463 522 q 506 624 459 613 l 730 624 q 783 585 778 622 q 731 524 778 520 z "},"":{"ha":770,"x_min":-4,"x_max":678,"o":"m 165 485 q 83 417 93 485 q 178 326 91 326 l 376 326 q 435 289 435 326 q 415 256 435 259 q 376 252 394 252 l 181 252 q 108 230 133 252 q 87 152 83 207 q 193 80 89 69 l 307 78 q 342 37 343 69 q 325 3 341 6 q 304 0 309 0 l 144 0 q 58 39 93 0 q 24 146 24 78 q 78 289 24 244 q 19 337 43 298 q 2 457 -4 376 q 48 565 7 515 q 159 615 89 615 l 613 615 q 663 594 648 615 q 678 546 678 574 q 613 485 678 485 l 165 485 z "},"":{"ha":837,"x_min":2,"x_max":744,"o":"m 626 156 q 744 -4 744 78 q 530 -193 744 -111 q 385 -241 441 -224 q 248 -285 330 -257 q 217 -275 230 -287 q 199 -247 204 -263 q 200 -216 194 -231 q 226 -194 206 -200 q 483 -139 317 -181 q 680 -6 680 -69 q 556 80 680 46 l 611 170 l 626 156 m 574 84 q 552 64 574 84 q 470 23 530 44 q 340 2 411 2 q 206 23 269 2 q 100 85 144 44 q 2 309 2 172 q 98 537 2 444 q 330 624 189 624 q 563 537 463 624 q 641 437 611 496 q 670 307 670 378 q 644 181 670 237 q 574 84 619 124 m 333 576 q 246 561 289 576 q 167 519 204 546 q 83 372 83 457 q 152 193 83 265 q 330 120 222 120 q 507 193 441 120 q 572 372 572 265 q 496 522 572 461 q 333 576 431 576 z "},"":{"ha":244,"x_min":52,"x_max":152,"o":"m 152 0 l 52 0 l 52 931 l 152 931 l 152 0 z "},"":{"ha":633,"x_min":37,"x_max":541,"o":"m 456 415 q 465 226 456 281 q 535 43 494 89 q 531 11 541 26 q 506 -10 522 -4 q 473 -17 491 -17 q 444 -2 456 -17 q 407 57 415 24 q 383 257 383 143 l 383 259 q 268 217 335 217 q 145 246 200 217 q 69 333 91 276 q 43 609 37 406 l 100 609 q 131 356 100 393 q 239 309 172 311 q 354 339 309 304 q 402 456 402 369 l 406 609 l 459 609 l 456 415 z "},"":{"ha":959,"x_min":13,"x_max":867,"o":"m 209 226 q 13 472 17 233 l 13 628 l 57 628 q 64 449 59 487 q 91 372 69 411 q 218 321 126 320 q 330 376 309 322 q 363 628 363 424 l 419 628 q 455 361 415 402 q 560 320 494 320 q 674 360 626 320 q 722 469 722 400 l 722 628 l 776 628 l 776 428 q 783 235 776 291 q 856 46 815 93 q 860 16 867 30 q 837 -6 854 2 q 800 -13 820 -13 q 758 6 780 -13 q 730 61 737 26 q 707 211 709 135 q 704 267 704 252 l 704 269 q 588 226 657 226 q 469 257 519 226 q 387 343 413 287 q 339 269 372 296 q 209 226 291 226 z "},"":{"ha":1124,"x_min":48,"x_max":1031,"o":"m 48 420 l 48 520 l 1031 520 l 1031 420 l 48 420 z "},"":{"ha":1420,"x_min":41,"x_max":1328,"o":"m 1328 56 q 1278 0 1328 4 l 246 0 q 115 28 172 0 q 41 148 41 81 q 115 281 41 239 q 246 313 172 313 l 485 313 q 641 337 574 313 q 733 446 733 381 q 637 615 733 535 q 341 704 478 726 q 420 581 420 644 q 307 437 420 480 q 237 426 274 426 q 167 439 200 426 q 107 474 133 452 q 54 589 54 520 q 185 750 54 691 q 565 748 393 811 q 693 674 635 724 q 809 446 809 574 q 700 265 809 337 q 485 215 602 215 l 246 215 q 109 144 102 211 q 246 106 120 102 l 1276 106 q 1314 90 1300 106 q 1328 56 1328 74 m 335 582 q 335 601 335 582 q 305 643 335 620 q 236 665 274 665 q 169 644 198 665 q 141 588 141 622 q 165 522 141 554 q 241 498 206 498 q 306 521 276 498 q 335 582 335 544 z "},"":{"ha":1200,"x_min":37,"x_max":1107,"o":"m 246 0 q 37 120 37 0 q 178 226 37 194 l 581 320 q 689 374 689 348 q 587 420 689 415 l 233 439 q 43 539 43 450 q 209 659 43 624 l 576 733 q 667 785 667 754 q 615 828 667 822 q 548 831 600 831 l 93 831 q 63 870 65 831 q 93 919 59 907 l 539 919 q 752 785 752 919 q 615 680 752 709 l 220 594 q 141 543 141 580 q 215 502 141 509 l 263 502 l 337 498 l 615 480 q 737 446 694 476 q 781 376 781 424 q 757 320 781 350 q 680 276 726 287 l 235 172 q 144 120 144 152 q 235 83 144 83 q 629 97 450 93 q 1067 111 807 102 q 1094 95 1083 113 q 1106 57 1104 78 q 1099 19 1107 37 q 1067 0 1091 0 l 246 0 z "},"":{"ha":1224,"x_min":17,"x_max":1137,"o":"m 511 656 q 480 770 528 730 q 383 819 444 807 q 161 667 257 841 q 330 554 231 572 q 511 656 491 524 m 1120 589 q 1130 380 1137 500 q 1117 320 1128 346 q 1089 250 1113 296 q 1024 152 1050 174 q 619 0 881 0 q 226 131 430 0 q 37 550 17 274 q 187 841 48 724 l 187 837 q 393 906 298 922 q 544 833 493 885 q 593 637 613 757 q 506 501 580 546 q 322 476 431 456 q 131 594 230 491 l 117 515 q 289 194 117 341 q 615 81 420 81 q 954 200 843 81 q 1035 574 1076 330 l 1120 589 z "},"":{"ha":0,"x_min":0,"x_max":65,"o":"m 0 -496 l 0 1122 l 65 1122 l 65 -496 l 0 -496 z "},"":{"ha":0,"x_min":0,"x_max":278,"o":"m 0 -496 l 0 1122 l 278 1122 l 278 1057 l 65 1057 l 65 -496 l 0 -496 z "},"":{"ha":1274,"x_min":41,"x_max":1204,"o":"m 41 535 l 1204 535 l 1204 383 l 41 383 l 41 535 z "},"":{"ha":2683,"x_min":7,"x_max":2669,"o":"m 7 535 l 2669 535 l 2669 383 l 7 383 l 7 535 z "},"":{"ha":267,"x_min":37,"x_max":169,"o":"m 93 611 l 93 594 l 152 594 q 156 589 152 593 q 161 572 161 583 q 165 563 165 570 l 165 548 q 161 539 165 544 q 153 523 161 528 q 143 514 144 519 q 131 509 141 509 q 122 506 128 506 l 109 506 q 56 526 76 506 q 37 589 37 552 q 78 698 37 661 q 114 739 98 728 q 131 761 130 750 l 169 750 q 157 737 163 744 q 144 724 152 730 q 133 708 139 717 q 122 693 128 700 q 93 611 93 656 z "},"":{"ha":298,"x_min":56,"x_max":191,"o":"m 65 678 l 61 689 l 61 706 q 72 746 61 728 q 119 763 94 763 q 169 739 143 763 q 191 678 191 707 q 178 613 191 648 q 123 540 143 557 q 97 517 104 522 q 89 509 91 511 l 56 511 q 69 528 63 520 q 83 544 76 535 q 96 562 91 552 q 109 576 102 572 q 118 594 115 585 q 126 615 120 604 q 131 654 131 628 l 131 656 l 130 656 l 130 669 l 72 669 q 65 678 69 674 z "},"":{"ha":511,"x_min":37,"x_max":354,"o":"m 152 598 q 161 576 161 583 q 165 563 165 572 l 165 550 q 161 541 165 544 q 148 524 161 530 q 131 511 141 511 q 122 509 128 509 l 109 509 q 37 593 37 509 q 78 702 37 665 q 109 739 93 722 q 131 763 130 754 l 169 754 q 155 737 163 744 q 141 720 146 730 q 129 707 133 717 q 119 689 124 698 q 93 613 93 654 l 93 598 l 152 598 m 339 524 q 293 506 326 506 q 243 530 259 506 q 222 588 222 552 q 230 644 222 624 q 261 702 243 676 l 294 733 q 322 759 311 754 l 354 754 l 354 750 q 335 728 350 737 q 320 711 326 719 q 308 695 315 704 q 298 677 302 687 q 289 657 294 667 q 281 613 281 644 l 281 598 l 339 598 q 341 592 341 594 q 346 585 341 589 l 352 572 l 352 541 q 344 532 348 535 q 339 524 341 530 z "},"":{"ha":515,"x_min":52,"x_max":374,"o":"m 89 761 l 113 765 q 185 711 163 765 q 191 676 191 696 l 183 680 q 178 619 183 637 q 161 593 169 606 q 140 565 159 589 q 111 533 120 541 q 89 509 94 520 l 52 519 q 64 531 59 524 q 78 543 69 537 q 89 557 81 550 q 120 611 111 583 q 130 656 130 628 l 130 670 l 72 670 q 69 678 69 676 q 65 683 69 680 q 61 696 65 683 l 61 731 q 67 741 65 735 q 89 761 70 748 m 257 670 q 248 683 256 676 q 246 691 248 691 l 246 707 q 257 748 246 730 q 276 759 267 754 q 298 765 285 765 q 352 739 330 765 q 374 680 374 717 q 365 623 374 643 q 348 592 356 604 q 335 567 341 580 l 298 530 q 274 509 283 519 l 243 513 q 255 530 246 522 q 269 545 263 537 q 282 562 276 554 q 294 578 289 570 q 303 596 298 587 q 310 615 307 606 q 317 633 313 624 q 320 650 320 643 q 317 659 320 657 q 313 665 313 661 l 313 670 l 257 670 z "},"":{"ha":946,"x_min":89,"x_max":813,"o":"m 209 48 q 206 24 209 31 q 201 14 206 17 q 194 4 196 11 q 185 -4 191 0 l 172 -9 q 154 -13 165 -13 q 137 -13 154 -13 q 119 -6 128 -13 q 104 4 111 0 q 98 14 100 11 q 93 23 96 17 q 89 35 89 30 l 89 48 q 94 74 89 65 q 104 93 100 83 q 122 104 115 98 q 144 109 135 109 q 171 105 163 109 q 185 98 180 100 q 206 72 206 91 q 213 48 213 61 l 209 48 m 496 93 q 511 54 511 69 q 505 18 511 24 q 496 4 498 11 q 485 -4 489 0 q 461 -13 467 -13 l 452 -13 l 437 -13 q 419 -6 428 -13 q 406 4 411 0 q 398 14 404 11 q 393 24 393 17 q 391 43 391 31 l 391 59 q 397 82 391 76 q 406 93 404 89 q 416 98 411 96 q 426 104 420 100 q 476 104 450 117 q 496 93 481 100 m 809 48 q 806 24 809 31 q 793 4 806 15 q 785 -3 791 0 q 775 -9 780 -6 q 757 -13 770 -13 l 737 -13 q 730 -9 731 -13 q 709 4 719 -2 q 698 24 702 11 q 689 45 689 33 q 694 68 689 57 q 701 83 700 78 q 707 93 702 89 q 719 98 713 96 q 730 104 724 100 q 750 109 733 109 q 771 105 763 109 q 785 97 780 100 q 793 89 791 94 q 806 72 806 81 q 813 48 813 57 l 809 48 z "},"":{"ha":769,"x_min":2,"x_max":676,"o":"m 452 587 q 557 431 544 548 l 667 431 l 667 389 l 559 389 q 498 237 550 293 q 414 184 469 204 q 215 183 359 165 q 337 102 281 143 q 467 -24 393 61 q 576 -122 539 -104 q 635 -142 613 -141 q 676 -143 657 -143 l 676 -156 l 487 -156 q 228 89 393 -17 q 4 200 63 194 l 4 265 l 46 252 q 352 237 261 191 q 439 389 433 283 l 2 389 l 2 431 l 441 431 q 370 563 433 531 q 296 583 335 581 q 222 587 257 585 l 2 587 l 2 630 l 667 630 l 667 587 l 452 587 z "},"":{"ha":911,"x_min":13,"x_max":819,"o":"m 13 652 q 13 676 13 652 q 47 734 13 700 q 131 769 81 769 q 214 734 180 769 q 248 652 248 700 q 214 569 248 604 q 131 533 180 533 q 47 569 81 533 q 13 652 13 604 m 61 668 q 61 652 61 668 q 81 616 61 637 q 130 594 100 594 q 180 616 159 594 q 200 668 200 637 q 180 719 200 698 q 130 739 159 739 q 81 719 100 739 q 61 668 61 698 m 802 452 l 807 452 l 802 646 l 793 646 q 785 632 793 641 q 768 624 778 624 q 741 630 757 624 q 700 643 724 635 q 566 663 633 663 q 440 635 498 663 q 341 561 381 607 q 248 330 248 459 q 338 86 248 172 q 581 0 428 0 q 735 44 669 0 q 819 194 819 98 l 807 194 q 750 77 807 128 q 594 26 693 26 q 422 113 489 26 q 356 330 356 200 q 422 557 356 467 q 581 650 487 650 q 714 609 657 650 q 802 452 770 569 z "},"":{"ha":906,"x_min":13,"x_max":813,"o":"m 13 652 q 13 676 13 652 q 47 734 13 700 q 131 769 81 769 q 214 734 180 769 q 248 652 248 700 q 214 569 248 604 q 131 533 180 533 q 47 569 81 533 q 13 652 13 604 m 61 668 q 61 652 61 668 q 81 616 61 637 q 130 594 100 594 q 180 616 159 594 q 200 668 200 637 q 180 719 200 698 q 130 739 159 739 q 81 719 100 739 q 61 668 61 698 m 487 346 l 487 131 q 518 41 487 69 q 589 13 548 13 l 600 13 l 600 0 l 272 0 l 272 13 l 283 13 q 356 41 326 13 q 389 131 387 69 l 389 539 q 361 627 389 604 q 291 650 333 650 l 281 650 l 281 663 l 802 663 l 813 507 l 798 507 q 746 611 793 572 q 604 650 700 650 l 487 650 l 487 359 l 550 359 q 631 393 611 359 q 652 467 652 426 l 652 480 l 663 480 l 663 219 l 652 219 l 652 230 q 621 315 652 283 q 539 346 591 346 l 487 346 z "},"":{"ha":1094,"x_min":30,"x_max":996,"o":"m 972 991 q 996 955 996 980 q 965 909 996 930 q 961 907 963 907 q 952 906 959 907 l 315 906 q 179 855 230 906 q 128 719 128 804 q 190 585 128 635 q 365 535 252 535 l 469 535 l 493 522 q 519 485 519 507 q 496 444 519 463 l 470 435 l 365 435 q 198 380 265 435 q 133 252 133 322 q 209 130 133 181 q 393 78 285 78 l 491 78 q 511 69 507 74 q 535 33 535 56 q 515 -6 535 11 l 491 -17 l 393 -17 q 146 56 246 -17 q 41 246 41 135 q 96 407 41 333 q 167 483 152 481 q 87 561 141 493 q 30 722 30 628 q 109 924 30 841 q 298 1002 183 1002 l 950 1002 q 972 991 970 998 z "},"":{"ha":809,"x_min":44,"x_max":717,"o":"m 124 -20 l 548 657 l 619 657 l 194 -20 l 124 -20 m 50 624 q 163 657 130 624 l 172 657 l 170 352 q 192 297 170 311 q 252 283 213 283 l 252 270 l 44 270 l 44 283 q 104 299 87 283 q 120 352 120 315 l 120 613 q 111 611 119 611 l 50 611 l 50 624 m 717 115 q 615 207 717 185 q 682 241 659 217 q 706 288 706 265 q 699 327 706 311 q 678 357 693 343 q 579 393 643 393 q 485 372 515 393 q 456 332 456 352 q 469 299 456 313 q 500 285 481 285 q 539 289 531 285 q 496 339 496 300 q 508 368 496 350 q 568 385 520 385 q 633 362 615 385 q 652 304 652 339 q 641 252 652 269 q 617 226 630 235 q 579 211 596 211 q 558 214 561 211 q 546 217 556 217 q 519 200 519 222 q 527 188 519 193 q 548 188 535 183 q 565 194 561 193 q 591 196 569 196 q 638 174 613 196 q 663 110 663 152 q 633 39 663 69 q 555 9 604 9 q 482 29 506 9 q 459 81 459 48 q 496 131 459 115 q 471 133 491 133 q 433 118 452 133 q 415 76 415 102 q 432 35 415 50 q 474 11 450 20 q 550 0 507 0 q 676 33 635 0 q 717 115 717 67 z "},"":{"ha":1450,"x_min":26,"x_max":1057,"o":"m 378 711 q 300 483 378 578 l 1057 483 l 1057 404 l 298 404 q 350 320 335 352 q 378 172 378 263 q 223 340 307 276 q 26 444 139 404 q 223 549 139 485 q 378 711 307 613 z "},"":{"ha":876,"x_min":22,"x_max":585,"o":"m 261 719 q 217 690 237 704 q 169 663 196 676 q 22 635 102 635 q 192 799 124 711 q 302 1004 259 887 q 414 799 346 887 q 585 635 481 711 q 433 667 509 635 q 343 719 385 685 l 343 -80 l 261 -80 l 261 719 z "},"":{"ha":1483,"x_min":35,"x_max":1070,"o":"m 794 489 q 768 530 781 509 q 744 572 754 550 q 715 717 715 648 q 875 556 791 620 q 1070 450 959 491 q 874 343 959 407 q 715 178 789 278 q 735 300 715 248 q 769 372 756 352 q 793 411 781 393 l 35 411 l 35 489 l 794 489 z "},"":{"ha":820,"x_min":4,"x_max":572,"o":"m 246 1002 l 328 1002 l 328 196 q 400 241 346 215 q 572 281 487 281 q 398 113 467 204 q 287 -96 330 22 q 176 111 244 22 q 4 281 107 200 q 200 226 106 281 q 246 194 222 211 l 246 1002 z "},"":{"ha":1676,"x_min":31,"x_max":1317,"o":"m 31 537 l 1317 537 l 1317 359 l 31 359 l 31 537 z "},"":{"ha":1393,"x_min":93,"x_max":1093,"o":"m 524 785 q 544 833 524 813 q 592 854 563 854 q 640 833 620 854 q 659 785 659 813 q 640 738 659 757 q 592 719 620 719 q 544 738 563 719 q 524 785 524 757 m 524 -81 q 544 -34 524 -54 q 592 -15 563 -15 q 640 -34 620 -15 q 659 -81 659 -54 q 640 -129 659 -109 q 592 -148 620 -148 q 544 -129 563 -148 q 524 -81 524 -109 m 93 352 q 112 398 93 380 q 158 417 131 417 q 206 398 185 417 q 226 352 226 380 q 206 306 226 324 q 158 287 185 287 q 112 306 131 287 q 93 352 93 324 m 959 352 q 980 398 959 380 q 1027 417 1000 417 q 1073 398 1054 417 q 1093 352 1093 380 q 1073 306 1093 324 q 1027 287 1054 287 q 980 306 1000 287 q 959 352 959 324 m 219 69 q 171 88 191 69 q 152 135 152 107 q 171 181 152 163 q 219 200 191 200 q 267 181 246 200 q 287 135 287 163 q 267 88 287 107 q 219 69 246 69 m 968 502 q 953 502 968 502 q 919 521 939 502 q 900 569 900 541 q 919 616 900 596 q 968 635 939 635 q 1016 616 996 635 q 1035 569 1035 596 q 1016 521 1035 541 q 968 502 996 502 m 808 661 q 795 661 808 661 q 762 680 781 661 q 743 726 743 698 q 762 773 743 754 q 808 793 781 793 q 856 773 835 793 q 876 726 876 754 q 856 680 876 698 q 808 661 835 661 m 309 -22 q 329 25 309 6 q 376 44 348 44 q 423 25 404 44 q 443 -22 443 6 q 423 -69 443 -50 q 376 -89 404 -89 q 329 -69 348 -89 q 309 -22 309 -50 m 219 502 q 171 521 191 502 q 152 569 152 541 q 171 616 152 596 q 219 635 191 635 q 267 616 246 635 q 287 569 287 596 q 267 521 287 541 q 219 502 246 502 m 968 69 q 953 69 968 69 q 919 88 939 69 q 900 135 900 107 q 919 181 900 163 q 968 200 939 200 q 1016 181 996 200 q 1035 135 1035 163 q 1016 88 1035 107 q 968 69 996 69 m 376 661 q 329 680 348 661 q 309 726 309 698 q 329 773 309 754 q 376 793 348 793 q 423 773 404 793 q 443 726 443 754 q 423 680 443 698 q 376 661 404 661 m 743 -22 q 762 25 743 6 q 808 44 781 44 q 856 25 835 44 q 876 -22 876 6 q 856 -69 876 -50 q 808 -89 835 -89 q 762 -69 781 -89 q 743 -22 743 -50 z "}}}
